<svg width="10" height="10" viewBox="0 0 10 10" fill="none" xmlns="http://www.w3.org/2000/svg">
<path d="M5.20672 7.94066L7.5711 9.43841C7.87335 9.62966 8.24835 9.34504 8.15872 8.99216L7.47585 6.30529C7.45656 6.23044 7.45878 6.15168 7.48227 6.07804C7.50575 6.00441 7.54954 5.93889 7.6086 5.88904L9.72885 4.12466C10.0071 3.89291 9.86385 3.43054 9.50572 3.40729L6.7371 3.22729C6.66255 3.222 6.59105 3.19565 6.5309 3.1513C6.47075 3.10695 6.42444 3.04643 6.39735 2.97679L5.3646 0.376537C5.33648 0.302639 5.28656 0.239034 5.22146 0.194155C5.15636 0.149277 5.07916 0.125244 5.0001 0.125244C4.92103 0.125244 4.84383 0.149277 4.77873 0.194155C4.71364 0.239034 4.66372 0.302639 4.6356 0.376537L3.60285 2.97679C3.57581 3.0465 3.52952 3.1071 3.46937 3.15152C3.40922 3.19594 3.33768 3.22234 3.2631 3.22766L0.494473 3.40766C0.136723 3.43054 -0.00727701 3.89291 0.271348 4.12466L2.3916 5.88941C2.45059 5.93924 2.49434 6.00469 2.51782 6.07825C2.5413 6.15181 2.54356 6.2305 2.52435 6.30529L1.89135 8.79716C1.78372 9.22054 2.2341 9.56216 2.59635 9.33229L4.79385 7.94066C4.85561 7.9014 4.92728 7.88054 5.00047 7.88054C5.07366 7.88054 5.14533 7.9014 5.2071 7.94066H5.20672Z" fill="#CCCCCC"/>
</svg>
