<svg width="316" height="64" viewBox="0 0 316 64" fill="none" xmlns="http://www.w3.org/2000/svg">
<path d="M26.574 1.8H28.574V-0.200005H26.574V1.8ZM26.574 62V64H28.574V62H26.574ZM12.642 62H10.642V64H12.642V62ZM12.642 12.98H14.642V10.98H12.642V12.98ZM0.602 12.98H-1.398V14.98H0.602V12.98ZM0.602 1.8V-0.200005H-1.398V1.8H0.602ZM24.574 1.8V62H28.574V1.8H24.574ZM26.574 60H12.642V64H26.574V60ZM14.642 62V12.98H10.642V62H14.642ZM12.642 10.98H0.602V14.98H12.642V10.98ZM2.602 12.98V1.8H-1.398V12.98H2.602ZM0.602 3.8H26.574V-0.200005H0.602V3.8ZM100.328 49.358V51.358H102.328V49.358H100.328ZM90.5237 49.358V47.358H88.5237V49.358H90.5237ZM90.5237 62V64H92.5237V62H90.5237ZM76.9357 62H74.9357V64H76.9357V62ZM76.9357 49.358H78.9357V47.358H76.9357V49.358ZM44.5137 49.358H42.5137V51.358H44.5137V49.358ZM44.5137 39.984L42.9085 38.791L42.5137 39.3221V39.984H44.5137ZM72.8937 1.8V-0.200005H71.8883L71.2885 0.606949L72.8937 1.8ZM87.5137 1.8L89.1315 2.97588L91.4399 -0.200005H87.5137V1.8ZM61.1977 38.006L59.5799 36.8301L57.2716 40.006H61.1977V38.006ZM77.3657 38.006V40.006H79.3657V38.006H77.3657ZM77.3657 26.74V24.74H75.3657V26.74H77.3657ZM90.5237 26.74H92.5237V24.74H90.5237V26.74ZM90.5237 38.006H88.5237V40.006H90.5237V38.006ZM100.328 38.006H102.328V36.006H100.328V38.006ZM100.328 47.358H90.5237V51.358H100.328V47.358ZM88.5237 49.358V62H92.5237V49.358H88.5237ZM90.5237 60H76.9357V64H90.5237V60ZM78.9357 62V49.358H74.9357V62H78.9357ZM76.9357 47.358H44.5137V51.358H76.9357V47.358ZM46.5137 49.358V39.984H42.5137V49.358H46.5137ZM46.1189 41.177L74.4989 2.99304L71.2885 0.606949L42.9085 38.791L46.1189 41.177ZM72.8937 3.8H87.5137V-0.200005H72.8937V3.8ZM85.8959 0.624109L59.5799 36.8301L62.8155 39.1819L89.1315 2.97588L85.8959 0.624109ZM61.1977 40.006H77.3657V36.006H61.1977V40.006ZM79.3657 38.006V26.74H75.3657V38.006H79.3657ZM77.3657 28.74H90.5237V24.74H77.3657V28.74ZM88.5237 26.74V38.006H92.5237V26.74H88.5237ZM90.5237 40.006H100.328V36.006H90.5237V40.006ZM98.3277 38.006V49.358H102.328V38.006H98.3277ZM192.318 1.8H194.318V-0.200005H192.318V1.8ZM192.318 10.83L194.151 11.6308L194.318 11.2479V10.83H192.318ZM169.958 62V64H171.267L171.791 62.8008L169.958 62ZM154.822 62L152.993 61.1916L151.752 64H154.822V62ZM176.408 13.152L178.238 13.9604L179.479 11.152H176.408V13.152ZM156.456 13.152V11.152H154.456V13.152H156.456ZM156.456 22.956V24.956H158.456V22.956H156.456ZM144.072 22.956H142.072V24.956H144.072V22.956ZM144.072 1.8V-0.200005H142.072V1.8H144.072ZM190.318 1.8V10.83H194.318V1.8H190.318ZM190.486 10.0292L168.126 61.1992L171.791 62.8008L194.151 11.6308L190.486 10.0292ZM169.958 60H154.822V64H169.958V60ZM156.652 62.8084L178.238 13.9604L174.579 12.3436L152.993 61.1916L156.652 62.8084ZM176.408 11.152H156.456V15.152H176.408V11.152ZM154.456 13.152V22.956H158.456V13.152H154.456ZM156.456 20.956H144.072V24.956H156.456V20.956ZM146.072 22.956V1.8H142.072V22.956H146.072ZM144.072 3.8H192.318V-0.200005H144.072V3.8ZM247.626 8.508L246.156 9.8639L246.164 9.87205L247.626 8.508ZM250.894 48.154L249.127 47.2182L249.122 47.2264L249.118 47.2346L250.894 48.154ZM240.144 59.248L241.099 61.0054L240.144 59.248ZM214.86 62L214.366 63.938L214.384 63.9426L214.402 63.9468L214.86 62ZM207.378 58.904L205.592 58.0036L204.779 59.6167L206.301 60.5894L207.378 58.904ZM212.538 48.67L213.67 47.021L211.783 45.7259L210.752 47.7696L212.538 48.67ZM235.93 47.208L237.344 48.6222L237.351 48.6155L237.358 48.6087L235.93 47.208ZM240.746 34.136L242.745 34.2167L242.951 29.1026L239.332 32.7218L240.746 34.136ZM215.29 37.232L216.172 35.4367L215.29 37.232ZM207.808 30.696L206.124 31.7741L206.129 31.7819L206.134 31.7896L207.808 30.696ZM208.066 10.228L206.397 9.12587L208.066 10.228ZM216.236 3.262L217.082 5.07436L217.089 5.07134L217.095 5.06827L216.236 3.262ZM236.274 26.654L237.594 28.1563L237.597 28.1537L236.274 26.654ZM236.36 13.668L235.017 15.15L235.029 15.1602L235.04 15.1703L236.36 13.668ZM221.396 13.582L220.102 12.057L220.091 12.0668L220.079 12.0768L221.396 13.582ZM221.396 26.74L220.053 28.222L220.077 28.2439L220.102 28.265L221.396 26.74ZM227.846 2.768C235.837 2.768 241.851 5.196 246.156 9.86388L249.096 7.15211C243.884 1.5 236.711 -1.232 227.846 -1.232V2.768ZM246.164 9.87205C250.464 14.4832 252.764 21.2898 252.764 30.61H256.764C256.764 20.6662 254.306 12.7381 249.089 7.14395L246.164 9.87205ZM252.764 30.61C252.764 37.1827 251.522 42.6938 249.127 47.2182L252.662 49.0898C255.427 43.8676 256.764 37.6827 256.764 30.61H252.764ZM249.118 47.2346C246.772 51.7672 243.468 55.1664 239.19 57.4906L241.099 61.0054C246.108 58.2842 249.971 54.2875 252.67 49.0734L249.118 47.2346ZM239.19 57.4906C234.88 59.8316 229.857 61.032 224.062 61.032V65.032C230.423 65.032 236.121 63.7097 241.099 61.0054L239.19 57.4906ZM224.062 61.032C220.995 61.032 218.082 60.7035 215.318 60.0532L214.402 63.9468C217.486 64.6725 220.708 65.032 224.062 65.032V61.032ZM215.354 60.062C212.591 59.3575 210.303 58.3995 208.455 57.2186L206.301 60.5894C208.581 62.0458 211.282 63.1518 214.366 63.938L215.354 60.062ZM209.164 59.8044L214.324 49.5704L210.752 47.7696L205.592 58.0036L209.164 59.8044ZM211.407 50.319C214.749 52.6129 218.931 53.68 223.804 53.68V49.68C219.504 49.68 216.175 48.7404 213.67 47.021L211.407 50.319ZM223.804 53.68C229.318 53.68 233.912 52.0552 237.344 48.6222L234.516 45.7938C231.986 48.3235 228.496 49.68 223.804 49.68V53.68ZM237.358 48.6087C240.789 45.1116 242.502 40.2196 242.745 34.2167L238.748 34.0553C238.532 39.4044 237.034 43.227 234.503 45.8073L237.358 48.6087ZM239.332 32.7218C236.182 35.8713 231.754 37.554 225.782 37.554V41.554C232.539 41.554 238.086 39.6247 242.16 35.5502L239.332 32.7218ZM225.782 37.554C222.217 37.554 219.026 36.8378 216.172 35.4367L214.409 39.0273C217.861 40.7222 221.664 41.554 225.782 41.554V37.554ZM216.172 35.4367C213.325 34.0393 211.112 32.0964 209.483 29.6024L206.134 31.7896C208.174 34.9143 210.949 37.3287 214.409 39.0273L216.172 35.4367ZM209.493 29.6179C207.884 27.1034 207.056 24.1882 207.056 20.806H203.056C203.056 24.8771 204.064 28.5553 206.124 31.7741L209.493 29.6179ZM207.056 20.806C207.056 17.1429 207.966 14.0087 209.735 11.3301L206.397 9.12587C204.153 12.5246 203.056 16.4424 203.056 20.806H207.056ZM209.735 11.3301C211.529 8.61311 213.962 6.53046 217.082 5.07436L215.39 1.44963C211.631 3.2042 208.616 5.76555 206.397 9.12587L209.735 11.3301ZM217.095 5.06827C220.299 3.54496 223.872 2.768 227.846 2.768V-1.232C223.335 -1.232 219.168 -0.346292 215.378 1.45573L217.095 5.06827ZM228.878 31.148C232.298 31.148 235.266 30.203 237.594 28.1563L234.954 25.1517C233.499 26.4304 231.536 27.148 228.878 27.148V31.148ZM237.597 28.1537C239.984 26.0478 241.198 23.3196 241.198 20.118H237.198C237.198 22.191 236.463 23.8202 234.951 25.1543L237.597 28.1537ZM241.198 20.118C241.198 16.9362 240.027 14.2279 237.68 12.1657L235.04 15.1703C236.477 16.4334 237.198 18.0251 237.198 20.118H241.198ZM237.703 12.186C235.396 10.0951 232.308 9.174 228.706 9.174V13.174C231.64 13.174 233.655 13.9156 235.017 15.15L237.703 12.186ZM228.706 9.174C225.351 9.174 222.425 10.0861 220.102 12.057L222.69 15.107C224.151 13.8672 226.099 13.174 228.706 13.174V9.174ZM220.079 12.0768C217.752 14.1133 216.644 16.8721 216.644 20.118H220.644C220.644 17.8599 221.371 16.2614 222.713 15.0872L220.079 12.0768ZM216.644 20.118C216.644 23.3645 217.751 26.1356 220.053 28.222L222.739 25.258C221.372 24.0191 220.644 22.3755 220.644 20.118H216.644ZM220.102 28.265C222.438 30.2472 225.429 31.148 228.878 31.148V27.148C226.135 27.148 224.138 26.4435 222.69 25.215L220.102 28.265ZM309.006 29.492L307.717 31.0213L307.728 31.0302L309.006 29.492ZM312.36 53.142L314.063 54.1902L314.068 54.183L314.072 54.1757L312.36 53.142ZM303.932 60.366L304.793 62.1712L304.805 62.1656L303.932 60.366ZM277.53 61.398L276.988 63.3231L277.004 63.3276L277.02 63.3318L277.53 61.398ZM267.124 56.582L265.347 55.6647L264.556 57.1973L265.955 58.2051L267.124 56.582ZM272.628 45.918L273.828 44.318L271.936 42.8987L270.851 45.0007L272.628 45.918ZM280.54 49.96L279.919 51.861L279.935 51.8664L279.952 51.8716L280.54 49.96ZM297.998 49.272L299.129 50.9215L297.998 49.272ZM297.826 37.662L296.749 39.3474L296.76 39.354L296.77 39.3606L297.826 37.662ZM271.596 35.684L269.604 35.502L269.405 37.684H271.596V35.684ZM274.692 1.8V-0.200005H272.866L272.7 1.61801L274.692 1.8ZM311.414 1.8H313.414V-0.200005H311.414V1.8ZM311.414 12.98V14.98H313.414V12.98H311.414ZM286.302 12.98V10.98H284.461L284.309 12.8151L286.302 12.98ZM285.356 24.418L283.363 24.2531L283.184 26.418H285.356V24.418ZM290.258 26.418C298.544 26.418 304.229 28.081 307.717 31.0213L310.295 27.9627C305.757 24.1376 298.943 22.418 290.258 22.418V26.418ZM307.728 31.0302C311.305 34.0026 313.112 37.9494 313.112 43.08H317.112C317.112 36.8586 314.849 31.7467 310.284 27.9538L307.728 31.0302ZM313.112 43.08C313.112 46.3979 312.288 49.3924 310.648 52.1083L314.072 54.1757C316.102 50.8143 317.112 47.1008 317.112 43.08H313.112ZM310.657 52.0938C309.059 54.6904 306.57 56.8641 303.06 58.5664L304.805 62.1656C308.862 60.1985 311.992 57.5562 314.063 54.1902L310.657 52.0938ZM303.071 58.5608C299.687 60.1746 295.387 61.032 290.086 61.032V65.032C295.793 65.032 300.723 64.1121 304.793 62.1712L303.071 58.5608ZM290.086 61.032C286.017 61.032 282.003 60.5099 278.04 59.4642L277.02 63.3318C281.313 64.4648 285.67 65.032 290.086 65.032V61.032ZM278.072 59.4729C274.183 58.3774 270.937 56.8625 268.293 54.9589L265.955 58.2051C269.045 60.4295 272.735 62.1252 276.988 63.3231L278.072 59.4729ZM268.901 57.4993L274.405 46.8353L270.851 45.0007L265.347 55.6647L268.901 57.4993ZM271.428 47.518C273.912 49.3811 276.749 50.8247 279.919 51.861L281.162 48.059C278.369 47.146 275.931 45.8949 273.828 44.318L271.428 47.518ZM279.952 51.8716C283.126 52.8482 286.392 53.336 289.742 53.336V49.336C286.786 49.336 283.917 48.9065 281.128 48.0484L279.952 51.8716ZM289.742 53.336C293.474 53.336 296.673 52.6056 299.129 50.9215L296.867 47.6225C295.31 48.6904 293.005 49.336 289.742 49.336V53.336ZM299.129 50.9215C301.688 49.1666 303.008 46.6243 303.008 43.51H299.008C299.008 45.3264 298.321 46.6254 296.867 47.6225L299.129 50.9215ZM303.008 43.51C303.008 40.2664 301.614 37.6614 298.882 35.9634L296.77 39.3606C298.281 40.2999 299.008 41.5936 299.008 43.51H303.008ZM298.903 35.9766C296.318 34.3252 292.193 33.684 286.99 33.684V37.684C292.107 37.684 295.206 38.3615 296.749 39.3474L298.903 35.9766ZM286.99 33.684H271.596V37.684H286.99V33.684ZM273.588 35.866L276.684 1.98198L272.7 1.61801L269.604 35.502L273.588 35.866ZM274.692 3.8H311.414V-0.200005H274.692V3.8ZM309.414 1.8V12.98H313.414V1.8H309.414ZM311.414 10.98H286.302V14.98H311.414V10.98ZM284.309 12.8151L283.363 24.2531L287.349 24.5829L288.295 13.1448L284.309 12.8151ZM285.356 26.418H290.258V22.418H285.356V26.418Z" fill="url(#paint0_linear_64_4122)"/>
<defs>
<linearGradient id="paint0_linear_64_4122" x1="0" y1="31.5" x2="318" y2="31.5" gradientUnits="userSpaceOnUse">
<stop stop-color="#F7941D"/>
<stop offset="1" stop-color="#27AAE1"/>
</linearGradient>
</defs>
</svg>
