<svg width="1075" height="458" viewBox="0 0 1075 458" fill="none" xmlns="http://www.w3.org/2000/svg">
<path d="M227.156 126.432C224.54 126.432 222.176 125.868 220.064 124.74C217.976 123.612 216.332 122.064 215.132 120.096C213.956 118.104 213.368 115.872 213.368 113.4C213.368 110.928 213.956 108.708 215.132 106.74C216.332 104.748 217.976 103.188 220.064 102.06C222.176 100.932 224.54 100.368 227.156 100.368C229.772 100.368 232.124 100.932 234.212 102.06C236.3 103.188 237.944 104.748 239.144 106.74C240.344 108.708 240.944 110.928 240.944 113.4C240.944 115.872 240.344 118.104 239.144 120.096C237.944 122.064 236.3 123.612 234.212 124.74C232.124 125.868 229.772 126.432 227.156 126.432ZM227.156 121.464C228.644 121.464 229.988 121.128 231.188 120.456C232.388 119.76 233.324 118.8 233.996 117.576C234.692 116.352 235.04 114.96 235.04 113.4C235.04 111.84 234.692 110.448 233.996 109.224C233.324 108 232.388 107.052 231.188 106.38C229.988 105.684 228.644 105.336 227.156 105.336C225.668 105.336 224.324 105.684 223.124 106.38C221.924 107.052 220.976 108 220.28 109.224C219.608 110.448 219.272 111.84 219.272 113.4C219.272 114.96 219.608 116.352 220.28 117.576C220.976 118.8 221.924 119.76 223.124 120.456C224.324 121.128 225.668 121.464 227.156 121.464ZM256.201 107.964C258.049 107.964 259.669 108.348 261.061 109.116C262.453 109.86 263.521 110.916 264.265 112.284C265.033 113.652 265.417 115.236 265.417 117.036C265.417 118.884 264.961 120.528 264.049 121.968C263.161 123.384 261.913 124.488 260.305 125.28C258.697 126.048 256.873 126.432 254.833 126.432C251.449 126.432 248.785 125.352 246.841 123.192C244.921 121.008 243.961 117.816 243.961 113.616C243.961 109.728 244.801 106.632 246.481 104.328C248.185 102 250.789 100.476 254.293 99.756L263.509 97.92L264.265 102.744L256.129 104.364C253.921 104.796 252.277 105.516 251.197 106.524C250.141 107.532 249.517 108.96 249.325 110.808C250.165 109.896 251.173 109.2 252.349 108.72C253.525 108.216 254.809 107.964 256.201 107.964ZM254.869 122.076C256.309 122.076 257.461 121.608 258.325 120.672C259.213 119.736 259.657 118.548 259.657 117.108C259.657 115.644 259.213 114.48 258.325 113.616C257.461 112.752 256.309 112.32 254.869 112.32C253.405 112.32 252.229 112.752 251.341 113.616C250.453 114.48 250.009 115.644 250.009 117.108C250.009 118.572 250.465 119.772 251.377 120.708C252.289 121.62 253.453 122.076 254.869 122.076ZM280.639 106.344C282.439 106.344 284.071 106.764 285.535 107.604C287.023 108.42 288.187 109.584 289.027 111.096C289.867 112.584 290.287 114.324 290.287 116.316C290.287 118.308 289.867 120.06 289.027 121.572C288.187 123.06 287.023 124.224 285.535 125.064C284.071 125.88 282.439 126.288 280.639 126.288C278.167 126.288 276.223 125.508 274.807 123.948V132.984H269.191V106.632H274.555V108.864C275.947 107.184 277.975 106.344 280.639 106.344ZM279.667 121.68C281.107 121.68 282.283 121.2 283.195 120.24C284.131 119.256 284.599 117.948 284.599 116.316C284.599 114.684 284.131 113.388 283.195 112.428C282.283 111.444 281.107 110.952 279.667 110.952C278.227 110.952 277.039 111.444 276.103 112.428C275.191 113.388 274.735 114.684 274.735 116.316C274.735 117.948 275.191 119.256 276.103 120.24C277.039 121.2 278.227 121.68 279.667 121.68ZM301.431 106.344C304.431 106.344 306.735 107.064 308.343 108.504C309.951 109.92 310.755 112.068 310.755 114.948V126H305.499V123.588C304.443 125.388 302.475 126.288 299.595 126.288C298.107 126.288 296.811 126.036 295.707 125.532C294.627 125.028 293.799 124.332 293.223 123.444C292.647 122.556 292.359 121.548 292.359 120.42C292.359 118.62 293.031 117.204 294.375 116.172C295.743 115.14 297.843 114.624 300.675 114.624H305.139C305.139 113.4 304.767 112.464 304.023 111.816C303.279 111.144 302.163 110.808 300.675 110.808C299.643 110.808 298.623 110.976 297.615 111.312C296.631 111.624 295.791 112.056 295.095 112.608L293.079 108.684C294.135 107.94 295.395 107.364 296.859 106.956C298.347 106.548 299.871 106.344 301.431 106.344ZM300.999 122.508C301.959 122.508 302.811 122.292 303.555 121.86C304.299 121.404 304.827 120.744 305.139 119.88V117.9H301.287C298.983 117.9 297.831 118.656 297.831 120.168C297.831 120.888 298.107 121.464 298.659 121.896C299.235 122.304 300.015 122.508 300.999 122.508ZM328.022 115.92C329.174 116.28 330.062 116.832 330.686 117.576C331.334 118.32 331.658 119.208 331.658 120.24C331.658 121.464 331.238 122.544 330.398 123.48C329.558 124.392 328.406 125.1 326.942 125.604C325.478 126.108 323.822 126.36 321.974 126.36C320.462 126.36 318.974 126.204 317.51 125.892C316.046 125.58 314.69 125.112 313.442 124.488L314.954 120.564C316.994 121.548 319.25 122.04 321.722 122.04C323.042 122.04 324.074 121.848 324.818 121.464C325.586 121.056 325.97 120.492 325.97 119.772C325.97 119.148 325.706 118.68 325.178 118.368C324.65 118.032 323.882 117.864 322.874 117.864H318.914V114.372H322.37C323.354 114.372 324.11 114.216 324.638 113.904C325.166 113.592 325.43 113.136 325.43 112.536C325.43 111.912 325.094 111.432 324.422 111.096C323.774 110.76 322.838 110.592 321.614 110.592C319.742 110.592 317.702 111.036 315.494 111.924L314.126 108.036C316.814 106.86 319.43 106.272 321.974 106.272C323.726 106.272 325.286 106.488 326.654 106.92C328.046 107.352 329.138 107.988 329.93 108.828C330.722 109.644 331.118 110.604 331.118 111.708C331.118 112.62 330.842 113.448 330.29 114.192C329.738 114.912 328.982 115.488 328.022 115.92ZM344.815 126.288C342.775 126.288 340.939 125.868 339.307 125.028C337.699 124.164 336.439 122.976 335.527 121.464C334.615 119.952 334.159 118.236 334.159 116.316C334.159 114.396 334.615 112.68 335.527 111.168C336.439 109.656 337.699 108.48 339.307 107.64C340.939 106.776 342.775 106.344 344.815 106.344C346.855 106.344 348.679 106.776 350.287 107.64C351.895 108.48 353.155 109.656 354.067 111.168C354.979 112.68 355.435 114.396 355.435 116.316C355.435 118.236 354.979 119.952 354.067 121.464C353.155 122.976 351.895 124.164 350.287 125.028C348.679 125.868 346.855 126.288 344.815 126.288ZM344.815 121.68C346.255 121.68 347.431 121.2 348.343 120.24C349.279 119.256 349.747 117.948 349.747 116.316C349.747 114.684 349.279 113.388 348.343 112.428C347.431 111.444 346.255 110.952 344.815 110.952C343.375 110.952 342.187 111.444 341.251 112.428C340.315 113.388 339.847 114.684 339.847 116.316C339.847 117.948 340.315 119.256 341.251 120.24C342.187 121.2 343.375 121.68 344.815 121.68ZM374.094 115.884C376.374 116.652 377.514 118.188 377.514 120.492C377.514 122.244 376.854 123.6 375.534 124.56C374.214 125.52 372.246 126 369.63 126H359.298V106.632H369.198C371.622 106.632 373.518 107.076 374.886 107.964C376.254 108.828 376.938 110.052 376.938 111.636C376.938 112.596 376.686 113.448 376.182 114.192C375.702 114.912 375.006 115.476 374.094 115.884ZM364.446 114.588H368.694C370.662 114.588 371.646 113.892 371.646 112.5C371.646 111.132 370.662 110.448 368.694 110.448H364.446V114.588ZM369.162 122.184C371.226 122.184 372.258 121.476 372.258 120.06C372.258 119.316 372.018 118.776 371.538 118.44C371.058 118.08 370.302 117.9 369.27 117.9H364.446V122.184H369.162ZM389.216 106.344C392.216 106.344 394.52 107.064 396.128 108.504C397.736 109.92 398.54 112.068 398.54 114.948V126H393.284V123.588C392.228 125.388 390.26 126.288 387.38 126.288C385.892 126.288 384.596 126.036 383.492 125.532C382.412 125.028 381.584 124.332 381.008 123.444C380.432 122.556 380.144 121.548 380.144 120.42C380.144 118.62 380.816 117.204 382.16 116.172C383.528 115.14 385.628 114.624 388.46 114.624H392.924C392.924 113.4 392.552 112.464 391.808 111.816C391.064 111.144 389.948 110.808 388.46 110.808C387.428 110.808 386.408 110.976 385.4 111.312C384.416 111.624 383.576 112.056 382.88 112.608L380.864 108.684C381.92 107.94 383.18 107.364 384.644 106.956C386.132 106.548 387.656 106.344 389.216 106.344ZM388.784 122.508C389.744 122.508 390.596 122.292 391.34 121.86C392.084 121.404 392.612 120.744 392.924 119.88V117.9H389.072C386.768 117.9 385.616 118.656 385.616 120.168C385.616 120.888 385.892 121.464 386.444 121.896C387.02 122.304 387.8 122.508 388.784 122.508ZM419.691 111.24H413.139V126H407.559V111.24H401.007V106.632H419.691V111.24ZM440.704 116.388C440.704 116.46 440.668 116.964 440.596 117.9H425.944C426.208 119.1 426.832 120.048 427.816 120.744C428.8 121.44 430.024 121.788 431.488 121.788C432.496 121.788 433.384 121.644 434.152 121.356C434.944 121.044 435.676 120.564 436.348 119.916L439.336 123.156C437.512 125.244 434.848 126.288 431.344 126.288C429.16 126.288 427.228 125.868 425.548 125.028C423.868 124.164 422.572 122.976 421.66 121.464C420.748 119.952 420.292 118.236 420.292 116.316C420.292 114.42 420.736 112.716 421.624 111.204C422.536 109.668 423.772 108.48 425.332 107.64C426.916 106.776 428.68 106.344 430.624 106.344C432.52 106.344 434.236 106.752 435.772 107.568C437.308 108.384 438.508 109.56 439.372 111.096C440.26 112.608 440.704 114.372 440.704 116.388ZM430.66 110.592C429.388 110.592 428.32 110.952 427.456 111.672C426.592 112.392 426.064 113.376 425.872 114.624H435.412C435.22 113.4 434.692 112.428 433.828 111.708C432.964 110.964 431.908 110.592 430.66 110.592ZM463.409 106.632V126H457.793V111.24H451.673L451.493 114.66C451.397 117.204 451.157 119.316 450.773 120.996C450.389 122.676 449.765 123.996 448.901 124.956C448.037 125.916 446.837 126.396 445.301 126.396C444.485 126.396 443.513 126.252 442.385 125.964L442.673 121.356C443.057 121.404 443.333 121.428 443.501 121.428C444.341 121.428 444.965 121.128 445.373 120.528C445.805 119.904 446.093 119.124 446.237 118.188C446.381 117.228 446.489 115.968 446.561 114.408L446.849 106.632H463.409ZM479.285 112.824C481.805 112.848 483.737 113.424 485.081 114.552C486.425 115.656 487.097 117.228 487.097 119.268C487.097 121.404 486.341 123.072 484.829 124.272C483.341 125.448 481.241 126.036 478.529 126.036L468.809 126V106.632H474.389V112.824H479.285ZM478.025 122.04C479.105 122.064 479.933 121.836 480.509 121.356C481.085 120.876 481.373 120.156 481.373 119.196C481.373 118.26 481.085 117.576 480.509 117.144C479.957 116.712 479.129 116.484 478.025 116.46L474.389 116.424V122.04H478.025ZM490.606 106.632H496.186V114.192H504.61V106.632H510.226V126H504.61V118.764H496.186V126H490.606V106.632ZM523.126 106.344C526.126 106.344 528.43 107.064 530.038 108.504C531.646 109.92 532.45 112.068 532.45 114.948V126H527.194V123.588C526.138 125.388 524.17 126.288 521.29 126.288C519.802 126.288 518.506 126.036 517.402 125.532C516.322 125.028 515.494 124.332 514.918 123.444C514.342 122.556 514.054 121.548 514.054 120.42C514.054 118.62 514.726 117.204 516.07 116.172C517.438 115.14 519.538 114.624 522.37 114.624H526.834C526.834 113.4 526.462 112.464 525.718 111.816C524.974 111.144 523.858 110.808 522.37 110.808C521.338 110.808 520.318 110.976 519.31 111.312C518.326 111.624 517.486 112.056 516.79 112.608L514.774 108.684C515.83 107.94 517.09 107.364 518.554 106.956C520.042 106.548 521.566 106.344 523.126 106.344ZM522.694 122.508C523.654 122.508 524.506 122.292 525.25 121.86C525.994 121.404 526.522 120.744 526.834 119.88V117.9H522.982C520.678 117.9 519.526 118.656 519.526 120.168C519.526 120.888 519.802 121.464 520.354 121.896C520.93 122.304 521.71 122.508 522.694 122.508ZM554.537 106.632V126H549.533V120.456H545.393L541.721 126H535.745L540.173 119.664C538.829 119.136 537.797 118.38 537.077 117.396C536.381 116.388 536.033 115.176 536.033 113.76C536.033 111.48 536.849 109.728 538.481 108.504C540.137 107.256 542.405 106.632 545.285 106.632H554.537ZM545.393 111.204C544.193 111.204 543.281 111.42 542.657 111.852C542.057 112.284 541.757 112.98 541.757 113.94C541.757 114.9 542.045 115.608 542.621 116.064C543.221 116.496 544.121 116.712 545.321 116.712H549.533V111.204H545.393ZM589.39 106.632V126H583.774V111.24H575.71V126H570.13V106.632H589.39ZM613.35 106.632V126H607.734V111.24H601.614L601.434 114.66C601.338 117.204 601.098 119.316 600.714 120.996C600.33 122.676 599.706 123.996 598.842 124.956C597.978 125.916 596.778 126.396 595.242 126.396C594.426 126.396 593.454 126.252 592.326 125.964L592.614 121.356C592.998 121.404 593.274 121.428 593.442 121.428C594.282 121.428 594.906 121.128 595.314 120.528C595.746 119.904 596.034 119.124 596.178 118.188C596.322 117.228 596.43 115.968 596.502 114.408L596.79 106.632H613.35ZM626.275 106.344C629.275 106.344 631.579 107.064 633.187 108.504C634.795 109.92 635.599 112.068 635.599 114.948V126H630.343V123.588C629.287 125.388 627.319 126.288 624.439 126.288C622.951 126.288 621.655 126.036 620.551 125.532C619.471 125.028 618.643 124.332 618.067 123.444C617.491 122.556 617.203 121.548 617.203 120.42C617.203 118.62 617.875 117.204 619.219 116.172C620.587 115.14 622.687 114.624 625.519 114.624H629.983C629.983 113.4 629.611 112.464 628.867 111.816C628.123 111.144 627.007 110.808 625.519 110.808C624.487 110.808 623.467 110.976 622.459 111.312C621.475 111.624 620.635 112.056 619.939 112.608L617.923 108.684C618.979 107.94 620.239 107.364 621.703 106.956C623.191 106.548 624.715 106.344 626.275 106.344ZM625.843 122.508C626.803 122.508 627.655 122.292 628.399 121.86C629.143 121.404 629.671 120.744 629.983 119.88V117.9H626.131C623.827 117.9 622.675 118.656 622.675 120.168C622.675 120.888 622.951 121.464 623.503 121.896C624.079 122.304 624.859 122.508 625.843 122.508ZM656.749 111.24H650.197V126H644.617V111.24H638.065V106.632H656.749V111.24ZM685.682 116.244C685.682 119.244 684.674 121.62 682.658 123.372C680.666 125.1 677.81 126.096 674.09 126.36V132.984H668.942V126.36C665.222 126.096 662.354 125.112 660.338 123.408C658.346 121.68 657.35 119.292 657.35 116.244C657.35 113.244 658.334 110.916 660.302 109.26C662.294 107.604 665.174 106.644 668.942 106.38V99.288H674.09V106.38C677.81 106.644 680.666 107.616 682.658 109.296C684.674 110.976 685.682 113.292 685.682 116.244ZM662.786 116.244C662.786 117.972 663.278 119.304 664.262 120.24C665.246 121.176 666.806 121.764 668.942 122.004V110.736C666.806 110.952 665.246 111.516 664.262 112.428C663.278 113.316 662.786 114.588 662.786 116.244ZM674.09 122.004C676.226 121.764 677.786 121.176 678.77 120.24C679.778 119.304 680.282 117.972 680.282 116.244C680.282 114.588 679.778 113.316 678.77 112.428C677.786 111.516 676.226 110.952 674.09 110.736V122.004ZM698.557 126.288C696.517 126.288 694.681 125.868 693.049 125.028C691.441 124.164 690.181 122.976 689.269 121.464C688.357 119.952 687.901 118.236 687.901 116.316C687.901 114.396 688.357 112.68 689.269 111.168C690.181 109.656 691.441 108.48 693.049 107.64C694.681 106.776 696.517 106.344 698.557 106.344C700.597 106.344 702.421 106.776 704.029 107.64C705.637 108.48 706.897 109.656 707.809 111.168C708.721 112.68 709.177 114.396 709.177 116.316C709.177 118.236 708.721 119.952 707.809 121.464C706.897 122.976 705.637 124.164 704.029 125.028C702.421 125.868 700.597 126.288 698.557 126.288ZM698.557 121.68C699.997 121.68 701.173 121.2 702.085 120.24C703.021 119.256 703.489 117.948 703.489 116.316C703.489 114.684 703.021 113.388 702.085 112.428C701.173 111.444 699.997 110.952 698.557 110.952C697.117 110.952 695.929 111.444 694.993 112.428C694.057 113.388 693.589 114.684 693.589 116.316C693.589 117.948 694.057 119.256 694.993 120.24C695.929 121.2 697.117 121.68 698.557 121.68ZM724.452 106.344C726.252 106.344 727.884 106.764 729.348 107.604C730.836 108.42 732 109.584 732.84 111.096C733.68 112.584 734.1 114.324 734.1 116.316C734.1 118.308 733.68 120.06 732.84 121.572C732 123.06 730.836 124.224 729.348 125.064C727.884 125.88 726.252 126.288 724.452 126.288C721.98 126.288 720.036 125.508 718.62 123.948V132.984H713.004V106.632H718.368V108.864C719.76 107.184 721.788 106.344 724.452 106.344ZM723.48 121.68C724.92 121.68 726.096 121.2 727.008 120.24C727.944 119.256 728.412 117.948 728.412 116.316C728.412 114.684 727.944 113.388 727.008 112.428C726.096 111.444 724.92 110.952 723.48 110.952C722.04 110.952 720.852 111.444 719.916 112.428C719.004 113.388 718.548 114.684 718.548 116.316C718.548 117.948 719.004 119.256 719.916 120.24C720.852 121.2 722.04 121.68 723.48 121.68ZM756.936 126V114.408L751.14 124.128H748.764L743.112 114.372V126H738.036V106.632H743.904L750.096 117.828L756.684 106.632H761.94L762.012 126H756.936ZM774.915 106.344C777.915 106.344 780.219 107.064 781.827 108.504C783.435 109.92 784.239 112.068 784.239 114.948V126H778.983V123.588C777.927 125.388 775.959 126.288 773.079 126.288C771.591 126.288 770.295 126.036 769.191 125.532C768.111 125.028 767.283 124.332 766.707 123.444C766.131 122.556 765.843 121.548 765.843 120.42C765.843 118.62 766.515 117.204 767.859 116.172C769.227 115.14 771.327 114.624 774.159 114.624H778.623C778.623 113.4 778.251 112.464 777.507 111.816C776.763 111.144 775.647 110.808 774.159 110.808C773.127 110.808 772.107 110.976 771.099 111.312C770.115 111.624 769.275 112.056 768.579 112.608L766.563 108.684C767.619 107.94 768.879 107.364 770.343 106.956C771.831 106.548 773.355 106.344 774.915 106.344ZM774.483 122.508C775.443 122.508 776.295 122.292 777.039 121.86C777.783 121.404 778.311 120.744 778.623 119.88V117.9H774.771C772.467 117.9 771.315 118.656 771.315 120.168C771.315 120.888 771.591 121.464 772.143 121.896C772.719 122.304 773.499 122.508 774.483 122.508Z" fill="white"/>
<path d="M212.936 170.8H219.668L224.888 178.432L230.108 170.8H236.948L228.56 182.86L237.632 196H230.756L224.888 187.648L219.092 196H212.36L221.36 183.112L212.936 170.8ZM252.258 196.432C250.266 196.432 248.418 196.108 246.714 195.46C245.034 194.812 243.57 193.9 242.322 192.724C241.098 191.548 240.138 190.168 239.442 188.584C238.77 187 238.434 185.272 238.434 183.4C238.434 181.528 238.77 179.8 239.442 178.216C240.138 176.632 241.11 175.252 242.358 174.076C243.606 172.9 245.07 171.988 246.75 171.34C248.43 170.692 250.254 170.368 252.222 170.368C254.214 170.368 256.038 170.692 257.694 171.34C259.374 171.988 260.826 172.9 262.05 174.076C263.298 175.252 264.27 176.632 264.966 178.216C265.662 179.776 266.01 181.504 266.01 183.4C266.01 185.272 265.662 187.012 264.966 188.62C264.27 190.204 263.298 191.584 262.05 192.76C260.826 193.912 259.374 194.812 257.694 195.46C256.038 196.108 254.226 196.432 252.258 196.432ZM252.222 191.464C253.35 191.464 254.382 191.272 255.318 190.888C256.278 190.504 257.118 189.952 257.838 189.232C258.558 188.512 259.11 187.66 259.494 186.676C259.902 185.692 260.106 184.6 260.106 183.4C260.106 182.2 259.902 181.108 259.494 180.124C259.11 179.14 258.558 178.288 257.838 177.568C257.142 176.848 256.314 176.296 255.354 175.912C254.394 175.528 253.35 175.336 252.222 175.336C251.094 175.336 250.05 175.528 249.09 175.912C248.154 176.296 247.326 176.848 246.606 177.568C245.886 178.288 245.322 179.14 244.914 180.124C244.53 181.108 244.338 182.2 244.338 183.4C244.338 184.576 244.53 185.668 244.914 186.676C245.322 187.66 245.874 188.512 246.57 189.232C247.29 189.952 248.13 190.504 249.09 190.888C250.05 191.272 251.094 191.464 252.222 191.464ZM286.504 193.408V175.552H277.864L277.756 179.224C277.684 180.784 277.576 182.26 277.432 183.652C277.312 185.044 277.12 186.316 276.856 187.468C276.592 188.596 276.244 189.556 275.812 190.348C275.404 191.14 274.888 191.704 274.264 192.04L268.036 191.248C268.9 191.272 269.608 190.972 270.16 190.348C270.736 189.724 271.192 188.848 271.528 187.72C271.864 186.568 272.104 185.224 272.248 183.688C272.416 182.152 272.536 180.484 272.608 178.684L272.896 170.8H292.264V193.408H286.504ZM267.208 201.22L267.244 191.248H295.792V201.22H290.392V196H272.608V201.22H267.208ZM315.169 182.14H327.265V186.82H315.169V182.14ZM315.601 196H309.769V170.8H328.813V175.48H315.601V196ZM340.08 196.288C338.472 196.288 337.032 195.976 335.76 195.352C334.512 194.728 333.54 193.78 332.844 192.508C332.148 191.212 331.8 189.568 331.8 187.576V176.632H337.416V186.748C337.416 188.356 337.752 189.544 338.424 190.312C339.12 191.056 340.092 191.428 341.34 191.428C342.204 191.428 342.972 191.248 343.644 190.888C344.316 190.504 344.844 189.928 345.228 189.16C345.612 188.368 345.804 187.384 345.804 186.208V176.632H351.42V196H346.092V190.672L347.064 192.22C346.416 193.564 345.456 194.584 344.184 195.28C342.936 195.952 341.568 196.288 340.08 196.288ZM364.543 196.288C362.263 196.288 360.487 195.712 359.215 194.56C357.943 193.384 357.307 191.644 357.307 189.34V172.348H362.923V189.268C362.923 190.084 363.139 190.72 363.571 191.176C364.003 191.608 364.591 191.824 365.335 191.824C366.223 191.824 366.979 191.584 367.603 191.104L369.115 195.064C368.539 195.472 367.843 195.784 367.027 196C366.235 196.192 365.407 196.288 364.543 196.288ZM354.319 181.384V177.064H367.747V181.384H354.319ZM380.44 196.288C378.832 196.288 377.392 195.976 376.12 195.352C374.872 194.728 373.9 193.78 373.204 192.508C372.508 191.212 372.16 189.568 372.16 187.576V176.632H377.776V186.748C377.776 188.356 378.112 189.544 378.784 190.312C379.48 191.056 380.452 191.428 381.7 191.428C382.564 191.428 383.332 191.248 384.004 190.888C384.676 190.504 385.204 189.928 385.588 189.16C385.972 188.368 386.164 187.384 386.164 186.208V176.632H391.78V196H386.452V190.672L387.424 192.22C386.776 193.564 385.816 194.584 384.544 195.28C383.296 195.952 381.928 196.288 380.44 196.288ZM396.983 196V176.632H402.347V182.104L401.591 180.52C402.167 179.152 403.091 178.12 404.363 177.424C405.635 176.704 407.183 176.344 409.007 176.344V181.528C408.767 181.504 408.551 181.492 408.359 181.492C408.167 181.468 407.963 181.456 407.747 181.456C406.211 181.456 404.963 181.9 404.003 182.788C403.067 183.652 402.599 185.008 402.599 186.856V196H396.983ZM421.817 196.288C419.609 196.288 417.665 195.856 415.985 194.992C414.329 194.128 413.045 192.952 412.133 191.464C411.221 189.952 410.765 188.236 410.765 186.316C410.765 184.372 411.209 182.656 412.097 181.168C413.009 179.656 414.245 178.48 415.805 177.64C417.365 176.776 419.129 176.344 421.097 176.344C422.993 176.344 424.697 176.752 426.209 177.568C427.745 178.36 428.957 179.512 429.845 181.024C430.733 182.512 431.177 184.3 431.177 186.388C431.177 186.604 431.165 186.856 431.141 187.144C431.117 187.408 431.093 187.66 431.069 187.9H415.337V184.624H428.117L425.957 185.596C425.957 184.588 425.753 183.712 425.345 182.968C424.937 182.224 424.373 181.648 423.653 181.24C422.933 180.808 422.093 180.592 421.133 180.592C420.173 180.592 419.321 180.808 418.577 181.24C417.857 181.648 417.293 182.236 416.885 183.004C416.477 183.748 416.273 184.636 416.273 185.668V186.532C416.273 187.588 416.501 188.524 416.957 189.34C417.437 190.132 418.097 190.744 418.937 191.176C419.801 191.584 420.809 191.788 421.961 191.788C422.993 191.788 423.893 191.632 424.661 191.32C425.453 191.008 426.173 190.54 426.821 189.916L429.809 193.156C428.921 194.164 427.805 194.944 426.461 195.496C425.117 196.024 423.569 196.288 421.817 196.288ZM442.196 196L453.428 170.8H459.188L470.456 196H464.336L455.12 173.752H457.424L448.172 196H442.196ZM447.812 190.6L449.36 186.172H462.32L463.904 190.6H447.812ZM481.858 196.288C479.77 196.288 477.91 195.868 476.278 195.028C474.646 194.164 473.362 192.976 472.426 191.464C471.514 189.952 471.058 188.236 471.058 186.316C471.058 184.372 471.514 182.656 472.426 181.168C473.362 179.656 474.646 178.48 476.278 177.64C477.91 176.776 479.77 176.344 481.858 176.344C483.898 176.344 485.674 176.776 487.186 177.64C488.698 178.48 489.814 179.692 490.534 181.276L486.178 183.616C485.674 182.704 485.038 182.032 484.27 181.6C483.526 181.168 482.71 180.952 481.822 180.952C480.862 180.952 479.998 181.168 479.23 181.6C478.462 182.032 477.85 182.644 477.394 183.436C476.962 184.228 476.746 185.188 476.746 186.316C476.746 187.444 476.962 188.404 477.394 189.196C477.85 189.988 478.462 190.6 479.23 191.032C479.998 191.464 480.862 191.68 481.822 191.68C482.71 191.68 483.526 191.476 484.27 191.068C485.038 190.636 485.674 189.952 486.178 189.016L490.534 191.392C489.814 192.952 488.698 194.164 487.186 195.028C485.674 195.868 483.898 196.288 481.858 196.288ZM505.648 196V192.22L505.288 191.392V184.624C505.288 183.424 504.916 182.488 504.172 181.816C503.452 181.144 502.336 180.808 500.824 180.808C499.792 180.808 498.772 180.976 497.764 181.312C496.78 181.624 495.94 182.056 495.244 182.608L493.228 178.684C494.284 177.94 495.556 177.364 497.044 176.956C498.532 176.548 500.044 176.344 501.58 176.344C504.532 176.344 506.824 177.04 508.456 178.432C510.088 179.824 510.904 181.996 510.904 184.948V196H505.648ZM499.744 196.288C498.232 196.288 496.936 196.036 495.856 195.532C494.776 195.004 493.948 194.296 493.372 193.408C492.796 192.52 492.508 191.524 492.508 190.42C492.508 189.268 492.784 188.26 493.336 187.396C493.912 186.532 494.812 185.86 496.036 185.38C497.26 184.876 498.856 184.624 500.824 184.624H505.972V187.9H501.436C500.116 187.9 499.204 188.116 498.7 188.548C498.22 188.98 497.98 189.52 497.98 190.168C497.98 190.888 498.256 191.464 498.808 191.896C499.384 192.304 500.164 192.508 501.148 192.508C502.084 192.508 502.924 192.292 503.668 191.86C504.412 191.404 504.952 190.744 505.288 189.88L506.152 192.472C505.744 193.72 505 194.668 503.92 195.316C502.84 195.964 501.448 196.288 499.744 196.288ZM524.443 196.288C522.619 196.288 520.975 195.88 519.511 195.064C518.047 194.224 516.883 193.06 516.019 191.572C515.179 190.084 514.759 188.332 514.759 186.316C514.759 184.276 515.179 182.512 516.019 181.024C516.883 179.536 518.047 178.384 519.511 177.568C520.975 176.752 522.619 176.344 524.443 176.344C526.075 176.344 527.503 176.704 528.727 177.424C529.951 178.144 530.899 179.236 531.571 180.7C532.243 182.164 532.579 184.036 532.579 186.316C532.579 188.572 532.255 190.444 531.607 191.932C530.959 193.396 530.023 194.488 528.799 195.208C527.599 195.928 526.147 196.288 524.443 196.288ZM525.415 191.68C526.327 191.68 527.155 191.464 527.899 191.032C528.643 190.6 529.231 189.988 529.663 189.196C530.119 188.38 530.347 187.42 530.347 186.316C530.347 185.188 530.119 184.228 529.663 183.436C529.231 182.644 528.643 182.032 527.899 181.6C527.155 181.168 526.327 180.952 525.415 180.952C524.479 180.952 523.639 181.168 522.895 181.6C522.151 182.032 521.551 182.644 521.095 183.436C520.663 184.228 520.447 185.188 520.447 186.316C520.447 187.42 520.663 188.38 521.095 189.196C521.551 189.988 522.151 190.6 522.895 191.032C523.639 191.464 524.479 191.68 525.415 191.68ZM530.491 196V192.04L530.599 186.28L530.239 180.556V169.288H535.855V196H530.491ZM550.665 196.288C548.457 196.288 546.513 195.856 544.833 194.992C543.177 194.128 541.893 192.952 540.981 191.464C540.069 189.952 539.613 188.236 539.613 186.316C539.613 184.372 540.057 182.656 540.945 181.168C541.857 179.656 543.093 178.48 544.653 177.64C546.213 176.776 547.977 176.344 549.945 176.344C551.841 176.344 553.545 176.752 555.057 177.568C556.593 178.36 557.805 179.512 558.693 181.024C559.581 182.512 560.025 184.3 560.025 186.388C560.025 186.604 560.013 186.856 559.989 187.144C559.965 187.408 559.941 187.66 559.917 187.9H544.185V184.624H556.965L554.805 185.596C554.805 184.588 554.601 183.712 554.193 182.968C553.785 182.224 553.221 181.648 552.501 181.24C551.781 180.808 550.941 180.592 549.981 180.592C549.021 180.592 548.169 180.808 547.425 181.24C546.705 181.648 546.141 182.236 545.733 183.004C545.325 183.748 545.121 184.636 545.121 185.668V186.532C545.121 187.588 545.349 188.524 545.805 189.34C546.285 190.132 546.945 190.744 547.785 191.176C548.649 191.584 549.657 191.788 550.809 191.788C551.841 191.788 552.741 191.632 553.509 191.32C554.301 191.008 555.021 190.54 555.669 189.916L558.657 193.156C557.769 194.164 556.653 194.944 555.309 195.496C553.965 196.024 552.417 196.288 550.665 196.288ZM588.568 176.344C590.104 176.344 591.46 176.656 592.636 177.28C593.836 177.88 594.772 178.816 595.444 180.088C596.14 181.336 596.488 182.944 596.488 184.912V196H590.872V185.776C590.872 184.216 590.548 183.064 589.9 182.32C589.252 181.576 588.34 181.204 587.164 181.204C586.348 181.204 585.616 181.396 584.968 181.78C584.32 182.14 583.816 182.692 583.456 183.436C583.096 184.18 582.916 185.128 582.916 186.28V196H577.3V185.776C577.3 184.216 576.976 183.064 576.328 182.32C575.704 181.576 574.804 181.204 573.628 181.204C572.812 181.204 572.08 181.396 571.432 181.78C570.784 182.14 570.28 182.692 569.92 183.436C569.56 184.18 569.38 185.128 569.38 186.28V196H563.764V176.632H569.128V181.924L568.12 180.376C568.792 179.056 569.74 178.06 570.964 177.388C572.212 176.692 573.628 176.344 575.212 176.344C576.988 176.344 578.536 176.8 579.856 177.712C581.2 178.6 582.088 179.968 582.52 181.816L580.54 181.276C581.188 179.764 582.22 178.564 583.636 177.676C585.076 176.788 586.72 176.344 588.568 176.344ZM603.618 203.272C602.61 203.272 601.614 203.116 600.63 202.804C599.646 202.492 598.842 202.06 598.218 201.508L600.27 197.512C600.702 197.896 601.194 198.196 601.746 198.412C602.322 198.628 602.886 198.736 603.438 198.736C604.23 198.736 604.854 198.544 605.31 198.16C605.79 197.8 606.222 197.188 606.606 196.324L607.614 193.948L608.046 193.336L614.994 176.632H620.394L611.646 197.188C611.022 198.748 610.302 199.972 609.486 200.86C608.694 201.748 607.806 202.372 606.822 202.732C605.862 203.092 604.794 203.272 603.618 203.272ZM606.93 196.756L598.29 176.632H604.086L610.782 192.832L606.93 196.756Z" fill="white"/>
<path d="M212.24 265L218.58 251H220.56L226.92 265H224.82L219.16 252.12H219.96L214.3 265H212.24ZM214.94 261.5L215.48 259.9H223.36L223.94 261.5H214.94ZM236.696 265L232.596 259.84L234.176 258.88L238.956 265H236.696ZM229.016 265V254.4H230.936V265H229.016ZM230.356 260.52V258.88H233.856V260.52H230.356ZM234.336 259.92L232.556 259.68L236.616 254.4H238.676L234.336 259.92ZM242.894 265V255.58L243.374 256.08H239.014V254.4H248.694V256.08H244.354L244.814 255.58V265H242.894ZM251.197 269C250.69 269 250.197 268.913 249.717 268.74C249.237 268.58 248.824 268.34 248.477 268.02L249.297 266.58C249.564 266.833 249.857 267.027 250.177 267.16C250.497 267.293 250.837 267.36 251.197 267.36C251.664 267.36 252.05 267.24 252.357 267C252.664 266.76 252.95 266.333 253.217 265.72L253.877 264.26L254.077 264.02L258.237 254.4H260.117L254.977 266.06C254.67 266.807 254.324 267.393 253.937 267.82C253.564 268.247 253.15 268.547 252.697 268.72C252.244 268.907 251.744 269 251.197 269ZM253.717 265.34L248.877 254.4H250.877L254.997 263.84L253.717 265.34ZM268.251 265V262.76L268.151 262.34V258.52C268.151 257.707 267.911 257.08 267.431 256.64C266.964 256.187 266.257 255.96 265.311 255.96C264.684 255.96 264.071 256.067 263.471 256.28C262.871 256.48 262.364 256.753 261.951 257.1L261.151 255.66C261.697 255.22 262.351 254.887 263.111 254.66C263.884 254.42 264.691 254.3 265.531 254.3C266.984 254.3 268.104 254.653 268.891 255.36C269.677 256.067 270.071 257.147 270.071 258.6V265H268.251ZM264.771 265.12C263.984 265.12 263.291 264.987 262.691 264.72C262.104 264.453 261.651 264.087 261.331 263.62C261.011 263.14 260.851 262.6 260.851 262C260.851 261.427 260.984 260.907 261.251 260.44C261.531 259.973 261.977 259.6 262.591 259.32C263.217 259.04 264.057 258.9 265.111 258.9H268.471V260.28H265.191C264.231 260.28 263.584 260.44 263.251 260.76C262.917 261.08 262.751 261.467 262.751 261.92C262.751 262.44 262.957 262.86 263.371 263.18C263.784 263.487 264.357 263.64 265.091 263.64C265.811 263.64 266.437 263.48 266.971 263.16C267.517 262.84 267.911 262.373 268.151 261.76L268.531 263.08C268.277 263.707 267.831 264.207 267.191 264.58C266.551 264.94 265.744 265.12 264.771 265.12ZM271.768 264.98L271.888 263.36C271.981 263.373 272.068 263.387 272.148 263.4C272.228 263.413 272.301 263.42 272.368 263.42C272.795 263.42 273.128 263.273 273.368 262.98C273.621 262.687 273.808 262.3 273.928 261.82C274.048 261.327 274.135 260.773 274.188 260.16C274.241 259.547 274.281 258.933 274.308 258.32L274.488 254.4H282.628V265H280.708V255.52L281.168 256.08H275.728L276.168 255.5L276.028 258.44C275.988 259.373 275.915 260.247 275.808 261.06C275.701 261.873 275.535 262.587 275.308 263.2C275.095 263.813 274.795 264.293 274.408 264.64C274.035 264.987 273.548 265.16 272.948 265.16C272.775 265.16 272.588 265.14 272.388 265.1C272.201 265.073 271.995 265.033 271.768 264.98ZM291.24 258C292.587 258.013 293.614 258.32 294.32 258.92C295.027 259.52 295.38 260.367 295.38 261.46C295.38 262.607 294.994 263.493 294.22 264.12C293.447 264.733 292.354 265.033 290.94 265.02L286.34 265V254.4H288.26V257.98L291.24 258ZM290.78 263.56C291.647 263.573 292.3 263.4 292.74 263.04C293.194 262.68 293.42 262.147 293.42 261.44C293.42 260.747 293.2 260.24 292.76 259.92C292.32 259.6 291.66 259.433 290.78 259.42L288.26 259.38V263.54L290.78 263.56ZM297.844 265V254.4H299.764V258.9H305.804V254.4H307.724V265H305.804V260.56H299.764V265H297.844ZM321.938 265V254.4H323.858V265H321.938ZM316.238 258C317.584 258.013 318.604 258.32 319.298 258.92C320.004 259.52 320.358 260.367 320.358 261.46C320.358 262.607 319.971 263.493 319.198 264.12C318.438 264.733 317.344 265.033 315.918 265.02L311.458 265V254.4H313.378V257.98L316.238 258ZM315.778 263.56C316.631 263.573 317.284 263.4 317.738 263.04C318.191 262.68 318.418 262.147 318.418 261.44C318.418 260.747 318.191 260.24 317.738 259.92C317.298 259.6 316.644 259.433 315.778 259.42L313.378 259.38V263.54L315.778 263.56ZM332.31 265.12C331.177 265.12 330.177 264.887 329.31 264.42C328.457 263.953 327.79 263.313 327.31 262.5C326.844 261.687 326.61 260.753 326.61 259.7C326.61 258.647 326.837 257.713 327.29 256.9C327.757 256.087 328.39 255.453 329.19 255C330.004 254.533 330.917 254.3 331.93 254.3C332.957 254.3 333.864 254.527 334.65 254.98C335.437 255.433 336.05 256.073 336.49 256.9C336.944 257.713 337.17 258.667 337.17 259.76C337.17 259.84 337.164 259.933 337.15 260.04C337.15 260.147 337.144 260.247 337.13 260.34H328.11V258.96H336.13L335.35 259.44C335.364 258.76 335.224 258.153 334.93 257.62C334.637 257.087 334.23 256.673 333.71 256.38C333.204 256.073 332.61 255.92 331.93 255.92C331.264 255.92 330.67 256.073 330.15 256.38C329.63 256.673 329.224 257.093 328.93 257.64C328.637 258.173 328.49 258.787 328.49 259.48V259.8C328.49 260.507 328.65 261.14 328.97 261.7C329.304 262.247 329.764 262.673 330.35 262.98C330.937 263.287 331.61 263.44 332.37 263.44C332.997 263.44 333.564 263.333 334.07 263.12C334.59 262.907 335.044 262.587 335.43 262.16L336.49 263.4C336.01 263.96 335.41 264.387 334.69 264.68C333.984 264.973 333.19 265.12 332.31 265.12ZM348.62 265.14C347.82 265.14 347.033 265.04 346.26 264.84C345.5 264.627 344.82 264.327 344.22 263.94L344.8 262.48C345.307 262.8 345.887 263.053 346.54 263.24C347.193 263.413 347.853 263.5 348.52 263.5C349.133 263.5 349.66 263.427 350.1 263.28C350.553 263.133 350.9 262.933 351.14 262.68C351.38 262.413 351.5 262.107 351.5 261.76C351.5 261.267 351.28 260.887 350.84 260.62C350.4 260.353 349.787 260.22 349 260.22H347.08V258.84H348.88C349.347 258.84 349.753 258.787 350.1 258.68C350.447 258.573 350.713 258.413 350.9 258.2C351.1 257.973 351.2 257.713 351.2 257.42C351.2 257.1 351.087 256.827 350.86 256.6C350.633 256.373 350.313 256.2 349.9 256.08C349.5 255.96 349.027 255.9 348.48 255.9C347.947 255.913 347.4 255.987 346.84 256.12C346.293 256.253 345.733 256.46 345.16 256.74L344.64 255.24C345.28 254.933 345.907 254.7 346.52 254.54C347.147 254.367 347.767 254.273 348.38 254.26C349.3 254.233 350.12 254.34 350.84 254.58C351.56 254.807 352.127 255.14 352.54 255.58C352.967 256.02 353.18 256.54 353.18 257.14C353.18 257.647 353.02 258.1 352.7 258.5C352.38 258.887 351.953 259.193 351.42 259.42C350.887 259.647 350.273 259.76 349.58 259.76L349.66 259.3C350.847 259.3 351.78 259.533 352.46 260C353.14 260.467 353.48 261.1 353.48 261.9C353.48 262.54 353.267 263.107 352.84 263.6C352.413 264.08 351.833 264.46 351.1 264.74C350.38 265.007 349.553 265.14 348.62 265.14ZM356.399 265V254.4H358.319V258.9H364.359V254.4H366.279V265H364.359V260.56H358.319V265H356.399ZM376.512 265V262.76L376.412 262.34V258.52C376.412 257.707 376.172 257.08 375.692 256.64C375.226 256.187 374.519 255.96 373.572 255.96C372.946 255.96 372.332 256.067 371.732 256.28C371.132 256.48 370.626 256.753 370.212 257.1L369.412 255.66C369.959 255.22 370.612 254.887 371.372 254.66C372.146 254.42 372.952 254.3 373.792 254.3C375.246 254.3 376.366 254.653 377.152 255.36C377.939 256.067 378.332 257.147 378.332 258.6V265H376.512ZM373.032 265.12C372.246 265.12 371.552 264.987 370.952 264.72C370.366 264.453 369.912 264.087 369.592 263.62C369.272 263.14 369.112 262.6 369.112 262C369.112 261.427 369.246 260.907 369.512 260.44C369.792 259.973 370.239 259.6 370.852 259.32C371.479 259.04 372.319 258.9 373.372 258.9H376.732V260.28H373.452C372.492 260.28 371.846 260.44 371.512 260.76C371.179 261.08 371.012 261.467 371.012 261.92C371.012 262.44 371.219 262.86 371.632 263.18C372.046 263.487 372.619 263.64 373.352 263.64C374.072 263.64 374.699 263.48 375.232 263.16C375.779 262.84 376.172 262.373 376.412 261.76L376.792 263.08C376.539 263.707 376.092 264.207 375.452 264.58C374.812 264.94 374.006 265.12 373.032 265.12ZM381.79 265V254.4H383.71V258.9H389.75V254.4H391.67V265H389.75V260.56H383.71V265H381.79ZM395.403 265V254.4H397.323V262.12L403.823 254.4H405.563V265H403.643V257.28L397.163 265H395.403ZM416.07 265V261.28L416.37 261.64H412.99C411.576 261.64 410.47 261.34 409.67 260.74C408.883 260.14 408.49 259.267 408.49 258.12C408.49 256.893 408.91 255.967 409.75 255.34C410.603 254.713 411.736 254.4 413.15 254.4H417.79V265H416.07ZM408.39 265L411.27 260.94H413.25L410.45 265H408.39ZM416.07 260.68V255.54L416.37 256.08H413.21C412.33 256.08 411.65 256.247 411.17 256.58C410.69 256.9 410.45 257.433 410.45 258.18C410.45 259.567 411.343 260.26 413.13 260.26H416.37L416.07 260.68ZM434.147 264.1V256.08H429.547L429.447 258.12C429.42 258.787 429.374 259.433 429.307 260.06C429.254 260.673 429.16 261.24 429.027 261.76C428.907 262.28 428.727 262.707 428.487 263.04C428.247 263.373 427.927 263.58 427.527 263.66L425.627 263.32C426.04 263.333 426.374 263.2 426.627 262.92C426.88 262.627 427.074 262.227 427.207 261.72C427.354 261.213 427.46 260.64 427.527 260C427.594 259.347 427.647 258.673 427.687 257.98L427.847 254.4H436.067V264.1H434.147ZM425.207 267.46V263.32H437.687V267.46H435.887V265H427.027V267.46H425.207ZM438.428 264.98L438.548 263.36C438.641 263.373 438.728 263.387 438.808 263.4C438.888 263.413 438.961 263.42 439.028 263.42C439.455 263.42 439.788 263.273 440.028 262.98C440.281 262.687 440.468 262.3 440.588 261.82C440.708 261.327 440.795 260.773 440.848 260.16C440.901 259.547 440.941 258.933 440.968 258.32L441.148 254.4H449.288V265H447.368V255.52L447.828 256.08H442.388L442.828 255.5L442.688 258.44C442.648 259.373 442.575 260.247 442.468 261.06C442.361 261.873 442.195 262.587 441.968 263.2C441.755 263.813 441.455 264.293 441.068 264.64C440.695 264.987 440.208 265.16 439.608 265.16C439.435 265.16 439.248 265.14 439.048 265.1C438.861 265.073 438.655 265.033 438.428 264.98ZM459.781 265V261.28L460.081 261.64H456.701C455.287 261.64 454.181 261.34 453.381 260.74C452.594 260.14 452.201 259.267 452.201 258.12C452.201 256.893 452.621 255.967 453.461 255.34C454.314 254.713 455.447 254.4 456.861 254.4H461.501V265H459.781ZM452.101 265L454.981 260.94H456.961L454.161 265H452.101ZM459.781 260.68V255.54L460.081 256.08H456.921C456.041 256.08 455.361 256.247 454.881 256.58C454.401 256.9 454.161 257.433 454.161 258.18C454.161 259.567 455.054 260.26 456.841 260.26H460.081L459.781 260.68ZM470.618 265V254.4H472.538V258.9H478.578V254.4H480.498V265H478.578V260.56H472.538V265H470.618ZM488.771 265.12C487.704 265.12 486.758 264.887 485.931 264.42C485.104 263.953 484.451 263.313 483.971 262.5C483.491 261.673 483.251 260.74 483.251 259.7C483.251 258.647 483.491 257.713 483.971 256.9C484.451 256.087 485.104 255.453 485.931 255C486.758 254.533 487.704 254.3 488.771 254.3C489.824 254.3 490.764 254.533 491.591 255C492.431 255.453 493.084 256.087 493.551 256.9C494.031 257.7 494.271 258.633 494.271 259.7C494.271 260.753 494.031 261.687 493.551 262.5C493.084 263.313 492.431 263.953 491.591 264.42C490.764 264.887 489.824 265.12 488.771 265.12ZM488.771 263.44C489.451 263.44 490.058 263.287 490.591 262.98C491.138 262.673 491.564 262.24 491.871 261.68C492.178 261.107 492.331 260.447 492.331 259.7C492.331 258.94 492.178 258.287 491.871 257.74C491.564 257.18 491.138 256.747 490.591 256.44C490.058 256.133 489.451 255.98 488.771 255.98C488.091 255.98 487.484 256.133 486.951 256.44C486.418 256.747 485.991 257.18 485.671 257.74C485.351 258.287 485.191 258.94 485.191 259.7C485.191 260.447 485.351 261.107 485.671 261.68C485.991 262.24 486.418 262.673 486.951 262.98C487.484 263.287 488.091 263.44 488.771 263.44ZM497.044 265V254.4H501.964C503.204 254.4 504.177 254.64 504.884 255.12C505.604 255.587 505.964 256.253 505.964 257.12C505.964 257.987 505.624 258.66 504.944 259.14C504.277 259.607 503.39 259.84 502.284 259.84L502.584 259.32C503.85 259.32 504.79 259.553 505.404 260.02C506.017 260.487 506.324 261.173 506.324 262.08C506.324 263 505.977 263.72 505.284 264.24C504.604 264.747 503.557 265 502.144 265H497.044ZM498.924 263.52H502.004C502.804 263.52 503.404 263.4 503.804 263.16C504.204 262.907 504.404 262.507 504.404 261.96C504.404 261.4 504.217 260.993 503.844 260.74C503.484 260.473 502.91 260.34 502.124 260.34H498.924V263.52ZM498.924 258.96H501.804C502.537 258.96 503.09 258.827 503.464 258.56C503.85 258.28 504.044 257.893 504.044 257.4C504.044 256.893 503.85 256.513 503.464 256.26C503.09 256.007 502.537 255.88 501.804 255.88H498.924V258.96ZM509.329 265V254.4H511.249V262.12L517.749 254.4H519.489V265H517.569V257.28L511.089 265H509.329ZM529.895 260.66C529.335 260.927 528.755 261.14 528.155 261.3C527.569 261.447 526.962 261.52 526.335 261.52C525.055 261.52 524.042 261.22 523.295 260.62C522.562 260.02 522.195 259.093 522.195 257.84V254.4H524.115V257.72C524.115 258.48 524.349 259.04 524.815 259.4C525.295 259.76 525.935 259.94 526.735 259.94C527.242 259.94 527.762 259.873 528.295 259.74C528.842 259.607 529.375 259.42 529.895 259.18V260.66ZM529.755 265V254.4H531.675V265H529.755ZM543.083 265L538.983 259.84L540.563 258.88L545.343 265H543.083ZM535.403 265V254.4H537.323V265H535.403ZM536.743 260.52V258.88H540.243V260.52H536.743ZM540.723 259.92L538.943 259.68L543.003 254.4H545.063L540.723 259.92ZM551.545 265.12C550.478 265.12 549.531 264.887 548.705 264.42C547.878 263.953 547.225 263.313 546.745 262.5C546.265 261.673 546.025 260.74 546.025 259.7C546.025 258.647 546.265 257.713 546.745 256.9C547.225 256.087 547.878 255.453 548.705 255C549.531 254.533 550.478 254.3 551.545 254.3C552.598 254.3 553.538 254.533 554.365 255C555.205 255.453 555.858 256.087 556.325 256.9C556.805 257.7 557.045 258.633 557.045 259.7C557.045 260.753 556.805 261.687 556.325 262.5C555.858 263.313 555.205 263.953 554.365 264.42C553.538 264.887 552.598 265.12 551.545 265.12ZM551.545 263.44C552.225 263.44 552.831 263.287 553.365 262.98C553.911 262.673 554.338 262.24 554.645 261.68C554.951 261.107 555.105 260.447 555.105 259.7C555.105 258.94 554.951 258.287 554.645 257.74C554.338 257.18 553.911 256.747 553.365 256.44C552.831 256.133 552.225 255.98 551.545 255.98C550.865 255.98 550.258 256.133 549.725 256.44C549.191 256.747 548.765 257.18 548.445 257.74C548.125 258.287 547.965 258.94 547.965 259.7C547.965 260.447 548.125 261.107 548.445 261.68C548.765 262.24 549.191 262.673 549.725 262.98C550.258 263.287 550.865 263.44 551.545 263.44ZM559.817 265V254.4H564.737C565.977 254.4 566.95 254.64 567.657 255.12C568.377 255.587 568.737 256.253 568.737 257.12C568.737 257.987 568.397 258.66 567.717 259.14C567.05 259.607 566.164 259.84 565.057 259.84L565.357 259.32C566.624 259.32 567.564 259.553 568.177 260.02C568.79 260.487 569.097 261.173 569.097 262.08C569.097 263 568.75 263.72 568.057 264.24C567.377 264.747 566.33 265 564.917 265H559.817ZM561.697 263.52H564.777C565.577 263.52 566.177 263.4 566.577 263.16C566.977 262.907 567.177 262.507 567.177 261.96C567.177 261.4 566.99 260.993 566.617 260.74C566.257 260.473 565.684 260.34 564.897 260.34H561.697V263.52ZM561.697 258.96H564.577C565.31 258.96 565.864 258.827 566.237 258.56C566.624 258.28 566.817 257.893 566.817 257.4C566.817 256.893 566.624 256.513 566.237 256.26C565.864 256.007 565.31 255.88 564.577 255.88H561.697V258.96ZM577.473 265V254.4H579.393V262.12L585.893 254.4H587.633V265H585.713V257.28L579.233 265H577.473ZM596.731 265V254.4H606.551V265H604.631V255.6L605.091 256.08H598.191L598.651 255.6V265H596.731ZM615.886 265.12C615.006 265.12 614.2 264.92 613.466 264.52C612.746 264.107 612.166 263.5 611.726 262.7C611.3 261.9 611.086 260.9 611.086 259.7C611.086 258.5 611.293 257.5 611.706 256.7C612.133 255.9 612.706 255.3 613.426 254.9C614.16 254.5 614.98 254.3 615.886 254.3C616.926 254.3 617.846 254.527 618.646 254.98C619.446 255.433 620.08 256.067 620.546 256.88C621.013 257.68 621.246 258.62 621.246 259.7C621.246 260.78 621.013 261.727 620.546 262.54C620.08 263.353 619.446 263.987 618.646 264.44C617.846 264.893 616.926 265.12 615.886 265.12ZM610.266 268.88V254.4H612.106V257.26L611.986 259.72L612.186 262.18V268.88H610.266ZM615.726 263.44C616.406 263.44 617.013 263.287 617.546 262.98C618.093 262.673 618.52 262.24 618.826 261.68C619.146 261.107 619.306 260.447 619.306 259.7C619.306 258.94 619.146 258.287 618.826 257.74C618.52 257.18 618.093 256.747 617.546 256.44C617.013 256.133 616.406 255.98 615.726 255.98C615.06 255.98 614.453 256.133 613.906 256.44C613.373 256.747 612.946 257.18 612.626 257.74C612.32 258.287 612.166 258.94 612.166 259.7C612.166 260.447 612.32 261.107 612.626 261.68C612.946 262.24 613.373 262.673 613.906 262.98C614.453 263.287 615.06 263.44 615.726 263.44ZM628.576 265.12C627.509 265.12 626.562 264.887 625.736 264.42C624.909 263.953 624.256 263.313 623.776 262.5C623.296 261.673 623.056 260.74 623.056 259.7C623.056 258.647 623.296 257.713 623.776 256.9C624.256 256.087 624.909 255.453 625.736 255C626.562 254.533 627.509 254.3 628.576 254.3C629.629 254.3 630.569 254.533 631.396 255C632.236 255.453 632.889 256.087 633.356 256.9C633.836 257.7 634.076 258.633 634.076 259.7C634.076 260.753 633.836 261.687 633.356 262.5C632.889 263.313 632.236 263.953 631.396 264.42C630.569 264.887 629.629 265.12 628.576 265.12ZM628.576 263.44C629.256 263.44 629.862 263.287 630.396 262.98C630.942 262.673 631.369 262.24 631.676 261.68C631.982 261.107 632.136 260.447 632.136 259.7C632.136 258.94 631.982 258.287 631.676 257.74C631.369 257.18 630.942 256.747 630.396 256.44C629.862 256.133 629.256 255.98 628.576 255.98C627.896 255.98 627.289 256.133 626.756 256.44C626.222 256.747 625.796 257.18 625.476 257.74C625.156 258.287 624.996 258.94 624.996 259.7C624.996 260.447 625.156 261.107 625.476 261.68C625.796 262.24 626.222 262.673 626.756 262.98C627.289 263.287 627.896 263.44 628.576 263.44ZM643.168 265.16C643.155 265.16 643.108 265.16 643.028 265.16C642.962 265.16 642.895 265.16 642.828 265.16C642.762 265.16 642.722 265.16 642.708 265.16C640.535 265.133 638.848 264.653 637.648 263.72C636.448 262.773 635.848 261.427 635.848 259.68C635.848 257.947 636.448 256.62 637.648 255.7C638.862 254.767 640.568 254.293 642.768 254.28C642.795 254.28 642.835 254.28 642.888 254.28C642.955 254.28 643.015 254.28 643.068 254.28C643.135 254.28 643.175 254.28 643.188 254.28C645.415 254.28 647.142 254.747 648.368 255.68C649.608 256.613 650.228 257.947 650.228 259.68C650.228 261.44 649.608 262.793 648.368 263.74C647.128 264.687 645.395 265.16 643.168 265.16ZM643.128 263.48C644.288 263.48 645.248 263.333 646.008 263.04C646.782 262.747 647.362 262.32 647.748 261.76C648.135 261.2 648.328 260.507 648.328 259.68C648.328 258.867 648.135 258.187 647.748 257.64C647.362 257.093 646.782 256.68 646.008 256.4C645.248 256.12 644.288 255.98 643.128 255.98C643.102 255.98 643.048 255.98 642.968 255.98C642.888 255.98 642.842 255.98 642.828 255.98C641.695 255.98 640.748 256.127 639.988 256.42C639.242 256.7 638.682 257.113 638.308 257.66C637.935 258.207 637.748 258.88 637.748 259.68C637.748 260.493 637.935 261.18 638.308 261.74C638.695 262.3 639.262 262.727 640.008 263.02C640.768 263.313 641.708 263.467 642.828 263.48C642.855 263.48 642.902 263.48 642.968 263.48C643.048 263.48 643.102 263.48 643.128 263.48ZM642.088 268.88V250.16H643.968V268.88H642.088ZM657.662 265.12C656.529 265.12 655.529 264.887 654.662 264.42C653.809 263.953 653.142 263.313 652.662 262.5C652.195 261.687 651.962 260.753 651.962 259.7C651.962 258.647 652.189 257.713 652.642 256.9C653.109 256.087 653.742 255.453 654.542 255C655.355 254.533 656.269 254.3 657.282 254.3C658.309 254.3 659.215 254.527 660.002 254.98C660.789 255.433 661.402 256.073 661.842 256.9C662.295 257.713 662.522 258.667 662.522 259.76C662.522 259.84 662.515 259.933 662.502 260.04C662.502 260.147 662.495 260.247 662.482 260.34H653.462V258.96H661.482L660.702 259.44C660.715 258.76 660.575 258.153 660.282 257.62C659.989 257.087 659.582 256.673 659.062 256.38C658.555 256.073 657.962 255.92 657.282 255.92C656.615 255.92 656.022 256.073 655.502 256.38C654.982 256.673 654.575 257.093 654.282 257.64C653.989 258.173 653.842 258.787 653.842 259.48V259.8C653.842 260.507 654.002 261.14 654.322 261.7C654.655 262.247 655.115 262.673 655.702 262.98C656.289 263.287 656.962 263.44 657.722 263.44C658.349 263.44 658.915 263.333 659.422 263.12C659.942 262.907 660.395 262.587 660.782 262.16L661.842 263.4C661.362 263.96 660.762 264.387 660.042 264.68C659.335 264.973 658.542 265.12 657.662 265.12ZM670.121 265.12C669.041 265.12 668.074 264.887 667.221 264.42C666.381 263.953 665.721 263.313 665.241 262.5C664.761 261.687 664.521 260.753 664.521 259.7C664.521 258.647 664.761 257.713 665.241 256.9C665.721 256.087 666.381 255.453 667.221 255C668.074 254.533 669.041 254.3 670.121 254.3C671.081 254.3 671.934 254.493 672.681 254.88C673.441 255.253 674.027 255.813 674.441 256.56L672.981 257.5C672.634 256.98 672.207 256.6 671.701 256.36C671.207 256.107 670.674 255.98 670.101 255.98C669.407 255.98 668.787 256.133 668.241 256.44C667.694 256.747 667.261 257.18 666.941 257.74C666.621 258.287 666.461 258.94 666.461 259.7C666.461 260.46 666.621 261.12 666.941 261.68C667.261 262.24 667.694 262.673 668.241 262.98C668.787 263.287 669.407 263.44 670.101 263.44C670.674 263.44 671.207 263.32 671.701 263.08C672.207 262.827 672.634 262.44 672.981 261.92L674.441 262.84C674.027 263.573 673.441 264.14 672.681 264.54C671.934 264.927 671.081 265.12 670.121 265.12ZM681.39 265.12C680.31 265.12 679.343 264.887 678.49 264.42C677.65 263.953 676.99 263.313 676.51 262.5C676.03 261.687 675.79 260.753 675.79 259.7C675.79 258.647 676.03 257.713 676.51 256.9C676.99 256.087 677.65 255.453 678.49 255C679.343 254.533 680.31 254.3 681.39 254.3C682.35 254.3 683.203 254.493 683.95 254.88C684.71 255.253 685.297 255.813 685.71 256.56L684.25 257.5C683.903 256.98 683.477 256.6 682.97 256.36C682.477 256.107 681.943 255.98 681.37 255.98C680.677 255.98 680.057 256.133 679.51 256.44C678.963 256.747 678.53 257.18 678.21 257.74C677.89 258.287 677.73 258.94 677.73 259.7C677.73 260.46 677.89 261.12 678.21 261.68C678.53 262.24 678.963 262.673 679.51 262.98C680.057 263.287 680.677 263.44 681.37 263.44C681.943 263.44 682.477 263.32 682.97 263.08C683.477 262.827 683.903 262.44 684.25 261.92L685.71 262.84C685.297 263.573 684.71 264.14 683.95 264.54C683.203 264.927 682.35 265.12 681.39 265.12ZM688.196 265V254.4H690.116V262.12L696.616 254.4H698.356V265H696.436V257.28L689.956 265H688.196ZM706.623 265.12C705.556 265.12 704.609 264.887 703.783 264.42C702.956 263.953 702.303 263.313 701.823 262.5C701.343 261.673 701.103 260.74 701.103 259.7C701.103 258.647 701.343 257.713 701.823 256.9C702.303 256.087 702.956 255.453 703.783 255C704.609 254.533 705.556 254.3 706.623 254.3C707.676 254.3 708.616 254.533 709.443 255C710.283 255.453 710.936 256.087 711.403 256.9C711.883 257.7 712.123 258.633 712.123 259.7C712.123 260.753 711.883 261.687 711.403 262.5C710.936 263.313 710.283 263.953 709.443 264.42C708.616 264.887 707.676 265.12 706.623 265.12ZM706.623 263.44C707.303 263.44 707.909 263.287 708.443 262.98C708.989 262.673 709.416 262.24 709.723 261.68C710.029 261.107 710.183 260.447 710.183 259.7C710.183 258.94 710.029 258.287 709.723 257.74C709.416 257.18 708.989 256.747 708.443 256.44C707.909 256.133 707.303 255.98 706.623 255.98C705.943 255.98 705.336 256.133 704.803 256.44C704.269 256.747 703.843 257.18 703.523 257.74C703.203 258.287 703.043 258.94 703.043 259.7C703.043 260.447 703.203 261.107 703.523 261.68C703.843 262.24 704.269 262.673 704.803 262.98C705.336 263.287 705.943 263.44 706.623 263.44ZM714.895 265V254.4H716.815V258.9H722.855V254.4H724.775V265H722.855V260.56H716.815V265H714.895ZM735.008 265V262.76L734.908 262.34V258.52C734.908 257.707 734.668 257.08 734.188 256.64C733.722 256.187 733.015 255.96 732.068 255.96C731.442 255.96 730.828 256.067 730.228 256.28C729.628 256.48 729.122 256.753 728.708 257.1L727.908 255.66C728.455 255.22 729.108 254.887 729.868 254.66C730.642 254.42 731.448 254.3 732.288 254.3C733.742 254.3 734.862 254.653 735.648 255.36C736.435 256.067 736.828 257.147 736.828 258.6V265H735.008ZM731.528 265.12C730.742 265.12 730.048 264.987 729.448 264.72C728.862 264.453 728.408 264.087 728.088 263.62C727.768 263.14 727.608 262.6 727.608 262C727.608 261.427 727.742 260.907 728.008 260.44C728.288 259.973 728.735 259.6 729.348 259.32C729.975 259.04 730.815 258.9 731.868 258.9H735.228V260.28H731.948C730.988 260.28 730.342 260.44 730.008 260.76C729.675 261.08 729.508 261.467 729.508 261.92C729.508 262.44 729.715 262.86 730.128 263.18C730.542 263.487 731.115 263.64 731.848 263.64C732.568 263.64 733.195 263.48 733.728 263.16C734.275 262.84 734.668 262.373 734.908 261.76L735.288 263.08C735.035 263.707 734.588 264.207 733.948 264.58C733.308 264.94 732.502 265.12 731.528 265.12ZM738.526 264.98L738.646 263.36C738.739 263.373 738.826 263.387 738.906 263.4C738.986 263.413 739.059 263.42 739.126 263.42C739.552 263.42 739.886 263.273 740.126 262.98C740.379 262.687 740.566 262.3 740.686 261.82C740.806 261.327 740.892 260.773 740.946 260.16C740.999 259.547 741.039 258.933 741.066 258.32L741.246 254.4H749.386V265H747.466V255.52L747.926 256.08H742.486L742.926 255.5L742.786 258.44C742.746 259.373 742.672 260.247 742.566 261.06C742.459 261.873 742.292 262.587 742.066 263.2C741.852 263.813 741.552 264.293 741.166 264.64C740.792 264.987 740.306 265.16 739.706 265.16C739.532 265.16 739.346 265.14 739.146 265.1C738.959 265.073 738.752 265.033 738.526 264.98ZM757.638 265.12C756.572 265.12 755.625 264.887 754.798 264.42C753.972 263.953 753.318 263.313 752.838 262.5C752.358 261.673 752.118 260.74 752.118 259.7C752.118 258.647 752.358 257.713 752.838 256.9C753.318 256.087 753.972 255.453 754.798 255C755.625 254.533 756.572 254.3 757.638 254.3C758.692 254.3 759.632 254.533 760.458 255C761.298 255.453 761.952 256.087 762.418 256.9C762.898 257.7 763.138 258.633 763.138 259.7C763.138 260.753 762.898 261.687 762.418 262.5C761.952 263.313 761.298 263.953 760.458 264.42C759.632 264.887 758.692 265.12 757.638 265.12ZM757.638 263.44C758.318 263.44 758.925 263.287 759.458 262.98C760.005 262.673 760.432 262.24 760.738 261.68C761.045 261.107 761.198 260.447 761.198 259.7C761.198 258.94 761.045 258.287 760.738 257.74C760.432 257.18 760.005 256.747 759.458 256.44C758.925 256.133 758.318 255.98 757.638 255.98C756.958 255.98 756.352 256.133 755.818 256.44C755.285 256.747 754.858 257.18 754.538 257.74C754.218 258.287 754.058 258.94 754.058 259.7C754.058 260.447 754.218 261.107 754.538 261.68C754.858 262.24 755.285 262.673 755.818 262.98C756.352 263.287 756.958 263.44 757.638 263.44ZM765.911 265V254.4H770.831C772.071 254.4 773.044 254.64 773.751 255.12C774.471 255.587 774.831 256.253 774.831 257.12C774.831 257.987 774.491 258.66 773.811 259.14C773.144 259.607 772.257 259.84 771.151 259.84L771.451 259.32C772.717 259.32 773.657 259.553 774.271 260.02C774.884 260.487 775.191 261.173 775.191 262.08C775.191 263 774.844 263.72 774.151 264.24C773.471 264.747 772.424 265 771.011 265H765.911ZM767.791 263.52H770.871C771.671 263.52 772.271 263.4 772.671 263.16C773.071 262.907 773.271 262.507 773.271 261.96C773.271 261.4 773.084 260.993 772.711 260.74C772.351 260.473 771.777 260.34 770.991 260.34H767.791V263.52ZM767.791 258.96H770.671C771.404 258.96 771.957 258.827 772.331 258.56C772.717 258.28 772.911 257.893 772.911 257.4C772.911 256.893 772.717 256.513 772.331 256.26C771.957 256.007 771.404 255.88 770.671 255.88H767.791V258.96Z" fill="white"/>
<path d="M1073.27 85.8928L1002 165" stroke="url(#paint0_linear_75_2065)" stroke-width="2"/>
<path d="M862 119C829.461 119 803 92.5386 803 60C803 27.4614 829.461 1 862 1C894.539 1 921 27.4614 921 60C921 92.7185 894.541 119 862 119Z" stroke="url(#paint1_linear_75_2065)" stroke-width="2"/>
<path d="M531.082 306.972L531.082 306.972L531.087 306.964C531.836 305.716 533.624 305.633 534.541 306.989L580.661 382.353L580.666 382.361C581.581 383.826 580.52 385.728 578.937 385.728H532.806H486.675C485.098 385.728 484.018 383.951 484.956 382.345L531.082 306.972Z" stroke="url(#paint2_linear_75_2065)" stroke-width="2"/>
<path d="M169.996 70.8195L169.977 70.837L169.958 70.8556L141.882 98.9317C139.712 101.102 139.712 104.898 141.882 107.068L169.958 135.144C171.347 136.533 171.347 139.064 169.958 140.453L144.453 165.958C143.064 167.347 140.533 167.347 139.144 165.958L111.068 137.882C108.898 135.712 105.102 135.712 102.932 137.882L74.8556 165.958C73.4667 167.347 70.9363 167.347 69.5474 165.958L44.0417 140.453C42.6528 139.064 42.6528 136.533 44.0417 135.144L72.1177 107.068C74.2877 104.898 74.2877 101.102 72.1177 98.9317L44.0417 70.8556C42.6528 69.4667 42.6528 66.9363 44.0417 65.5474L69.5474 40.0417C70.9363 38.6528 73.4667 38.6528 74.8556 40.0417L102.932 68.1178C105.102 70.2877 108.898 70.2877 111.068 68.1178L139.144 40.0417C140.533 38.6528 143.064 38.6528 144.453 40.0417L169.958 65.5474C171.567 67.1559 171.51 69.4569 169.996 70.8195Z" stroke="url(#paint3_linear_75_2065)" stroke-width="2"/>
<path d="M0.915527 456.432L81.9998 371.348H339V325" stroke="url(#paint4_linear_75_2065)" stroke-width="2"/>
<defs>
<linearGradient id="paint0_linear_75_2065" x1="1080.08" y1="85.8928" x2="1080.08" y2="203.184" gradientUnits="userSpaceOnUse">
<stop stop-color="#F7941D"/>
<stop offset="1" stop-color="#27AAE1"/>
</linearGradient>
<linearGradient id="paint1_linear_75_2065" x1="802" y1="60" x2="922" y2="60" gradientUnits="userSpaceOnUse">
<stop stop-color="#F7941D"/>
<stop offset="1" stop-color="#27AAE1"/>
</linearGradient>
<linearGradient id="paint2_linear_75_2065" x1="483.612" y1="345.864" x2="582" y2="345.864" gradientUnits="userSpaceOnUse">
<stop stop-color="#F7941D"/>
<stop offset="1" stop-color="#27AAE1"/>
</linearGradient>
<linearGradient id="paint3_linear_75_2065" x1="42" y1="103" x2="172.148" y2="103" gradientUnits="userSpaceOnUse">
<stop stop-color="#F7941D"/>
<stop offset="1" stop-color="#27AAE1"/>
</linearGradient>
<linearGradient id="paint4_linear_75_2065" x1="0.915527" y1="456.432" x2="0.915528" y2="325" gradientUnits="userSpaceOnUse">
<stop stop-color="#F7941D"/>
<stop offset="1" stop-color="#27AAE1"/>
</linearGradient>
</defs>
</svg>
