<svg width="1127" height="440" viewBox="0 0 1127 440" fill="none" xmlns="http://www.w3.org/2000/svg">
<g opacity="0.5">
<ellipse cx="-0.886588" cy="0.995475" rx="1.11341" ry="0.995475" fill="#27AAE1"/>
<ellipse cx="23.6085" cy="0.995475" rx="1.11341" ry="0.995475" fill="#27AAE1"/>
<ellipse cx="48.1035" cy="0.995475" rx="1.11341" ry="0.995475" fill="#27AAE1"/>
<ellipse cx="72.5986" cy="0.995475" rx="1.11341" ry="0.995475" fill="#27AAE1"/>
<ellipse cx="97.0936" cy="0.995475" rx="1.11341" ry="0.995475" fill="#27AAE1"/>
<ellipse cx="121.589" cy="0.995475" rx="1.11341" ry="0.995475" fill="#27AAE1"/>
<ellipse cx="146.084" cy="0.995475" rx="1.11341" ry="0.995475" fill="#27AAE1"/>
<ellipse cx="170.579" cy="0.995475" rx="1.11341" ry="0.995475" fill="#27AAE1"/>
<ellipse cx="195.074" cy="0.995475" rx="1.11341" ry="0.995475" fill="#27AAE1"/>
<ellipse cx="219.569" cy="0.995475" rx="1.11341" ry="0.995475" fill="#27AAE1"/>
<ellipse cx="244.064" cy="0.995475" rx="1.11341" ry="0.995475" fill="#27AAE1"/>
<ellipse cx="268.559" cy="0.995475" rx="1.11341" ry="0.995475" fill="#27AAE1"/>
<ellipse cx="293.054" cy="0.995475" rx="1.11341" ry="0.995475" fill="#27AAE1"/>
<ellipse cx="317.549" cy="0.995475" rx="1.11341" ry="0.995475" fill="#27AAE1"/>
<ellipse cx="342.044" cy="0.995475" rx="1.11341" ry="0.995475" fill="#27AAE1"/>
<ellipse cx="366.539" cy="0.995475" rx="1.11341" ry="0.995475" fill="#27AAE1"/>
<ellipse cx="391.035" cy="0.995475" rx="1.11341" ry="0.995475" fill="#27AAE1"/>
<ellipse cx="415.53" cy="0.995475" rx="1.11341" ry="0.995475" fill="#27AAE1"/>
<ellipse cx="440.025" cy="0.995475" rx="1.11341" ry="0.995475" fill="#27AAE1"/>
<ellipse cx="464.52" cy="0.995475" rx="1.11341" ry="0.995475" fill="#27AAE1"/>
<ellipse cx="489.015" cy="0.995475" rx="1.11341" ry="0.995475" fill="#27AAE1"/>
<ellipse cx="513.51" cy="0.995475" rx="1.11341" ry="0.995475" fill="#27AAE1"/>
<ellipse cx="538.005" cy="0.995475" rx="1.11341" ry="0.995475" fill="#27AAE1"/>
<ellipse cx="562.5" cy="0.995475" rx="1.11341" ry="0.995475" fill="#27AAE1"/>
<ellipse cx="586.995" cy="0.995475" rx="1.11341" ry="0.995475" fill="#27AAE1"/>
<ellipse cx="611.49" cy="0.995475" rx="1.11341" ry="0.995475" fill="#27AAE1"/>
<ellipse cx="635.985" cy="0.995475" rx="1.11341" ry="0.995475" fill="#27AAE1"/>
<ellipse cx="660.48" cy="0.995475" rx="1.11341" ry="0.995475" fill="#27AAE1"/>
<ellipse cx="684.975" cy="0.995475" rx="1.11341" ry="0.995475" fill="#27AAE1"/>
<ellipse cx="709.47" cy="0.995475" rx="1.11341" ry="0.995475" fill="#27AAE1"/>
<ellipse cx="733.965" cy="0.995475" rx="1.11341" ry="0.995475" fill="#27AAE1"/>
<ellipse cx="758.461" cy="0.995475" rx="1.11341" ry="0.995475" fill="#27AAE1"/>
<ellipse cx="782.956" cy="0.995475" rx="1.11341" ry="0.995475" fill="#27AAE1"/>
<ellipse cx="807.451" cy="0.995475" rx="1.11341" ry="0.995475" fill="#27AAE1"/>
<ellipse cx="831.946" cy="0.995475" rx="1.11341" ry="0.995475" fill="#27AAE1"/>
<ellipse cx="856.441" cy="0.995475" rx="1.11341" ry="0.995475" fill="#27AAE1"/>
<ellipse cx="880.936" cy="0.995475" rx="1.11341" ry="0.995475" fill="#27AAE1"/>
<ellipse cx="905.431" cy="0.995475" rx="1.11341" ry="0.995475" fill="#27AAE1"/>
<ellipse cx="929.926" cy="0.995475" rx="1.11341" ry="0.995475" fill="#27AAE1"/>
<ellipse cx="954.421" cy="0.995475" rx="1.11341" ry="0.995475" fill="#27AAE1"/>
<ellipse cx="978.916" cy="0.995475" rx="1.11341" ry="0.995475" fill="#27AAE1"/>
<ellipse cx="1003.41" cy="0.995475" rx="1.11341" ry="0.995475" fill="#27AAE1"/>
<ellipse cx="1027.91" cy="0.995475" rx="1.11341" ry="0.995475" fill="#27AAE1"/>
<ellipse cx="1052.4" cy="0.995475" rx="1.11341" ry="0.995475" fill="#27AAE1"/>
<ellipse cx="1076.9" cy="0.995475" rx="1.11341" ry="0.995475" fill="#27AAE1"/>
<ellipse cx="1101.39" cy="0.995475" rx="1.11341" ry="0.995475" fill="#27AAE1"/>
<ellipse cx="1125.89" cy="0.995475" rx="1.11341" ry="0.995475" fill="#27AAE1"/>
<ellipse cx="-0.886588" cy="22.8959" rx="1.11341" ry="0.995475" fill="#27AAE1"/>
<ellipse cx="23.6085" cy="22.8959" rx="1.11341" ry="0.995475" fill="#27AAE1"/>
<ellipse cx="48.1035" cy="22.8959" rx="1.11341" ry="0.995475" fill="#27AAE1"/>
<ellipse cx="72.5986" cy="22.8959" rx="1.11341" ry="0.995475" fill="#27AAE1"/>
<ellipse cx="97.0936" cy="22.8959" rx="1.11341" ry="0.995475" fill="#27AAE1"/>
<ellipse cx="121.589" cy="22.8959" rx="1.11341" ry="0.995475" fill="#27AAE1"/>
<ellipse cx="146.084" cy="22.8959" rx="1.11341" ry="0.995475" fill="#27AAE1"/>
<ellipse cx="170.579" cy="22.8959" rx="1.11341" ry="0.995475" fill="#27AAE1"/>
<ellipse cx="195.074" cy="22.8959" rx="1.11341" ry="0.995475" fill="#27AAE1"/>
<ellipse cx="219.569" cy="22.8959" rx="1.11341" ry="0.995475" fill="#27AAE1"/>
<ellipse cx="244.064" cy="22.8959" rx="1.11341" ry="0.995475" fill="#27AAE1"/>
<ellipse cx="268.559" cy="22.8959" rx="1.11341" ry="0.995475" fill="#27AAE1"/>
<ellipse cx="293.054" cy="22.8959" rx="1.11341" ry="0.995475" fill="#27AAE1"/>
<ellipse cx="317.549" cy="22.8959" rx="1.11341" ry="0.995475" fill="#27AAE1"/>
<ellipse cx="342.044" cy="22.8959" rx="1.11341" ry="0.995475" fill="#27AAE1"/>
<ellipse cx="366.539" cy="22.8959" rx="1.11341" ry="0.995475" fill="#27AAE1"/>
<ellipse cx="391.035" cy="22.8959" rx="1.11341" ry="0.995475" fill="#27AAE1"/>
<ellipse cx="415.53" cy="22.8959" rx="1.11341" ry="0.995475" fill="#27AAE1"/>
<ellipse cx="440.025" cy="22.8959" rx="1.11341" ry="0.995475" fill="#27AAE1"/>
<ellipse cx="464.52" cy="22.8959" rx="1.11341" ry="0.995475" fill="#27AAE1"/>
<ellipse cx="489.015" cy="22.8959" rx="1.11341" ry="0.995475" fill="#27AAE1"/>
<ellipse cx="513.51" cy="22.8959" rx="1.11341" ry="0.995475" fill="#27AAE1"/>
<ellipse cx="538.005" cy="22.8959" rx="1.11341" ry="0.995475" fill="#27AAE1"/>
<ellipse cx="562.5" cy="22.8959" rx="1.11341" ry="0.995475" fill="#27AAE1"/>
<ellipse cx="586.995" cy="22.8959" rx="1.11341" ry="0.995475" fill="#27AAE1"/>
<ellipse cx="611.49" cy="22.8959" rx="1.11341" ry="0.995475" fill="#27AAE1"/>
<ellipse cx="635.985" cy="22.8959" rx="1.11341" ry="0.995475" fill="#27AAE1"/>
<ellipse cx="660.48" cy="22.8959" rx="1.11341" ry="0.995475" fill="#27AAE1"/>
<ellipse cx="684.975" cy="22.8959" rx="1.11341" ry="0.995475" fill="#27AAE1"/>
<ellipse cx="709.47" cy="22.8959" rx="1.11341" ry="0.995475" fill="#27AAE1"/>
<ellipse cx="733.965" cy="22.8959" rx="1.11341" ry="0.995475" fill="#27AAE1"/>
<ellipse cx="758.461" cy="22.8959" rx="1.11341" ry="0.995475" fill="#27AAE1"/>
<ellipse cx="782.956" cy="22.8959" rx="1.11341" ry="0.995475" fill="#27AAE1"/>
<ellipse cx="807.451" cy="22.8959" rx="1.11341" ry="0.995475" fill="#27AAE1"/>
<ellipse cx="831.946" cy="22.8959" rx="1.11341" ry="0.995475" fill="#27AAE1"/>
<ellipse cx="856.441" cy="22.8959" rx="1.11341" ry="0.995475" fill="#27AAE1"/>
<ellipse cx="880.936" cy="22.8959" rx="1.11341" ry="0.995475" fill="#27AAE1"/>
<ellipse cx="905.431" cy="22.8959" rx="1.11341" ry="0.995475" fill="#27AAE1"/>
<ellipse cx="929.926" cy="22.8959" rx="1.11341" ry="0.995475" fill="#27AAE1"/>
<ellipse cx="954.421" cy="22.8959" rx="1.11341" ry="0.995475" fill="#27AAE1"/>
<ellipse cx="978.916" cy="22.8959" rx="1.11341" ry="0.995475" fill="#27AAE1"/>
<ellipse cx="1003.41" cy="22.8959" rx="1.11341" ry="0.995475" fill="#27AAE1"/>
<ellipse cx="1027.91" cy="22.8959" rx="1.11341" ry="0.995475" fill="#27AAE1"/>
<ellipse cx="1052.4" cy="22.8959" rx="1.11341" ry="0.995475" fill="#27AAE1"/>
<ellipse cx="1076.9" cy="22.8959" rx="1.11341" ry="0.995475" fill="#27AAE1"/>
<ellipse cx="1101.39" cy="22.8959" rx="1.11341" ry="0.995475" fill="#27AAE1"/>
<ellipse cx="1125.89" cy="22.8959" rx="1.11341" ry="0.995475" fill="#27AAE1"/>
<ellipse cx="-0.886588" cy="44.7963" rx="1.11341" ry="0.995475" fill="#27AAE1"/>
<ellipse cx="23.6085" cy="44.7965" rx="1.11341" ry="0.995475" fill="#27AAE1"/>
<ellipse cx="48.1035" cy="44.7965" rx="1.11341" ry="0.995475" fill="#27AAE1"/>
<ellipse cx="72.5986" cy="44.7965" rx="1.11341" ry="0.995475" fill="#27AAE1"/>
<ellipse cx="97.0936" cy="44.7965" rx="1.11341" ry="0.995475" fill="#27AAE1"/>
<ellipse cx="121.589" cy="44.7965" rx="1.11341" ry="0.995475" fill="#27AAE1"/>
<ellipse cx="146.084" cy="44.7965" rx="1.11341" ry="0.995475" fill="#27AAE1"/>
<ellipse cx="170.579" cy="44.7965" rx="1.11341" ry="0.995475" fill="#27AAE1"/>
<ellipse cx="195.074" cy="44.7965" rx="1.11341" ry="0.995475" fill="#27AAE1"/>
<ellipse cx="219.569" cy="44.7965" rx="1.11341" ry="0.995475" fill="#27AAE1"/>
<ellipse cx="244.064" cy="44.7965" rx="1.11341" ry="0.995475" fill="#27AAE1"/>
<ellipse cx="268.559" cy="44.7965" rx="1.11341" ry="0.995475" fill="#27AAE1"/>
<ellipse cx="293.054" cy="44.7965" rx="1.11341" ry="0.995475" fill="#27AAE1"/>
<ellipse cx="317.549" cy="44.7965" rx="1.11341" ry="0.995475" fill="#27AAE1"/>
<ellipse cx="342.044" cy="44.7965" rx="1.11341" ry="0.995475" fill="#27AAE1"/>
<ellipse cx="366.539" cy="44.7965" rx="1.11341" ry="0.995475" fill="#27AAE1"/>
<ellipse cx="391.035" cy="44.7965" rx="1.11341" ry="0.995475" fill="#27AAE1"/>
<ellipse cx="415.53" cy="44.7965" rx="1.11341" ry="0.995475" fill="#27AAE1"/>
<ellipse cx="440.025" cy="44.7965" rx="1.11341" ry="0.995475" fill="#27AAE1"/>
<ellipse cx="464.52" cy="44.7965" rx="1.11341" ry="0.995475" fill="#27AAE1"/>
<ellipse cx="489.015" cy="44.7965" rx="1.11341" ry="0.995475" fill="#27AAE1"/>
<ellipse cx="513.51" cy="44.7965" rx="1.11341" ry="0.995475" fill="#27AAE1"/>
<ellipse cx="538.005" cy="44.7965" rx="1.11341" ry="0.995475" fill="#27AAE1"/>
<ellipse cx="562.5" cy="44.7965" rx="1.11341" ry="0.995475" fill="#27AAE1"/>
<ellipse cx="586.995" cy="44.7965" rx="1.11341" ry="0.995475" fill="#27AAE1"/>
<ellipse cx="611.49" cy="44.7965" rx="1.11341" ry="0.995475" fill="#27AAE1"/>
<ellipse cx="635.985" cy="44.7965" rx="1.11341" ry="0.995475" fill="#27AAE1"/>
<ellipse cx="660.48" cy="44.7965" rx="1.11341" ry="0.995475" fill="#27AAE1"/>
<ellipse cx="684.975" cy="44.7965" rx="1.11341" ry="0.995475" fill="#27AAE1"/>
<ellipse cx="709.47" cy="44.7965" rx="1.11341" ry="0.995475" fill="#27AAE1"/>
<ellipse cx="733.965" cy="44.7965" rx="1.11341" ry="0.995475" fill="#27AAE1"/>
<ellipse cx="758.461" cy="44.7965" rx="1.11341" ry="0.995475" fill="#27AAE1"/>
<ellipse cx="782.956" cy="44.7965" rx="1.11341" ry="0.995475" fill="#27AAE1"/>
<ellipse cx="807.451" cy="44.7965" rx="1.11341" ry="0.995475" fill="#27AAE1"/>
<ellipse cx="831.946" cy="44.7965" rx="1.11341" ry="0.995475" fill="#27AAE1"/>
<ellipse cx="856.441" cy="44.7965" rx="1.11341" ry="0.995475" fill="#27AAE1"/>
<ellipse cx="880.936" cy="44.7965" rx="1.11341" ry="0.995475" fill="#27AAE1"/>
<ellipse cx="905.431" cy="44.7965" rx="1.11341" ry="0.995475" fill="#27AAE1"/>
<ellipse cx="929.926" cy="44.7965" rx="1.11341" ry="0.995475" fill="#27AAE1"/>
<ellipse cx="954.421" cy="44.7965" rx="1.11341" ry="0.995475" fill="#27AAE1"/>
<ellipse cx="978.916" cy="44.7965" rx="1.11341" ry="0.995475" fill="#27AAE1"/>
<ellipse cx="1003.41" cy="44.7965" rx="1.11341" ry="0.995475" fill="#27AAE1"/>
<ellipse cx="1027.91" cy="44.7965" rx="1.11341" ry="0.995475" fill="#27AAE1"/>
<ellipse cx="1052.4" cy="44.7965" rx="1.11341" ry="0.995475" fill="#27AAE1"/>
<ellipse cx="1076.9" cy="44.7965" rx="1.11341" ry="0.995475" fill="#27AAE1"/>
<ellipse cx="1101.39" cy="44.7965" rx="1.11341" ry="0.995475" fill="#27AAE1"/>
<ellipse cx="1125.89" cy="44.7965" rx="1.11341" ry="0.995475" fill="#27AAE1"/>
<ellipse cx="-0.886588" cy="66.6969" rx="1.11341" ry="0.995475" fill="#27AAE1"/>
<ellipse cx="23.6085" cy="66.6969" rx="1.11341" ry="0.995475" fill="#27AAE1"/>
<ellipse cx="48.1035" cy="66.6969" rx="1.11341" ry="0.995475" fill="#27AAE1"/>
<ellipse cx="72.5986" cy="66.6969" rx="1.11341" ry="0.995475" fill="#27AAE1"/>
<ellipse cx="97.0936" cy="66.6969" rx="1.11341" ry="0.995475" fill="#27AAE1"/>
<ellipse cx="121.589" cy="66.6969" rx="1.11341" ry="0.995475" fill="#27AAE1"/>
<ellipse cx="146.084" cy="66.6969" rx="1.11341" ry="0.995475" fill="#27AAE1"/>
<ellipse cx="170.579" cy="66.6969" rx="1.11341" ry="0.995475" fill="#27AAE1"/>
<ellipse cx="195.074" cy="66.6969" rx="1.11341" ry="0.995475" fill="#27AAE1"/>
<ellipse cx="219.569" cy="66.6969" rx="1.11341" ry="0.995475" fill="#27AAE1"/>
<ellipse cx="244.064" cy="66.6969" rx="1.11341" ry="0.995475" fill="#27AAE1"/>
<ellipse cx="268.559" cy="66.6969" rx="1.11341" ry="0.995475" fill="#27AAE1"/>
<ellipse cx="293.054" cy="66.6969" rx="1.11341" ry="0.995475" fill="#27AAE1"/>
<ellipse cx="317.549" cy="66.6969" rx="1.11341" ry="0.995475" fill="#27AAE1"/>
<ellipse cx="342.044" cy="66.6969" rx="1.11341" ry="0.995475" fill="#27AAE1"/>
<ellipse cx="366.539" cy="66.6969" rx="1.11341" ry="0.995475" fill="#27AAE1"/>
<ellipse cx="391.035" cy="66.6969" rx="1.11341" ry="0.995475" fill="#27AAE1"/>
<ellipse cx="415.53" cy="66.6969" rx="1.11341" ry="0.995475" fill="#27AAE1"/>
<ellipse cx="440.025" cy="66.6969" rx="1.11341" ry="0.995475" fill="#27AAE1"/>
<ellipse cx="464.52" cy="66.6969" rx="1.11341" ry="0.995475" fill="#27AAE1"/>
<ellipse cx="489.015" cy="66.6969" rx="1.11341" ry="0.995475" fill="#27AAE1"/>
<ellipse cx="513.51" cy="66.6969" rx="1.11341" ry="0.995475" fill="#27AAE1"/>
<ellipse cx="538.005" cy="66.6969" rx="1.11341" ry="0.995475" fill="#27AAE1"/>
<ellipse cx="562.5" cy="66.6969" rx="1.11341" ry="0.995475" fill="#27AAE1"/>
<ellipse cx="586.995" cy="66.6969" rx="1.11341" ry="0.995475" fill="#27AAE1"/>
<ellipse cx="611.49" cy="66.6969" rx="1.11341" ry="0.995475" fill="#27AAE1"/>
<ellipse cx="635.985" cy="66.6969" rx="1.11341" ry="0.995475" fill="#27AAE1"/>
<ellipse cx="660.48" cy="66.6969" rx="1.11341" ry="0.995475" fill="#27AAE1"/>
<ellipse cx="684.975" cy="66.6969" rx="1.11341" ry="0.995475" fill="#27AAE1"/>
<ellipse cx="709.47" cy="66.6969" rx="1.11341" ry="0.995475" fill="#27AAE1"/>
<ellipse cx="733.965" cy="66.6969" rx="1.11341" ry="0.995475" fill="#27AAE1"/>
<ellipse cx="758.461" cy="66.6969" rx="1.11341" ry="0.995475" fill="#27AAE1"/>
<ellipse cx="782.956" cy="66.6969" rx="1.11341" ry="0.995475" fill="#27AAE1"/>
<ellipse cx="807.451" cy="66.6969" rx="1.11341" ry="0.995475" fill="#27AAE1"/>
<ellipse cx="831.946" cy="66.6969" rx="1.11341" ry="0.995475" fill="#27AAE1"/>
<ellipse cx="856.441" cy="66.6969" rx="1.11341" ry="0.995475" fill="#27AAE1"/>
<ellipse cx="880.936" cy="66.6969" rx="1.11341" ry="0.995475" fill="#27AAE1"/>
<ellipse cx="905.431" cy="66.6969" rx="1.11341" ry="0.995475" fill="#27AAE1"/>
<ellipse cx="929.926" cy="66.6969" rx="1.11341" ry="0.995475" fill="#27AAE1"/>
<ellipse cx="954.421" cy="66.6969" rx="1.11341" ry="0.995475" fill="#27AAE1"/>
<ellipse cx="978.916" cy="66.6969" rx="1.11341" ry="0.995475" fill="#27AAE1"/>
<ellipse cx="1003.41" cy="66.6969" rx="1.11341" ry="0.995475" fill="#27AAE1"/>
<ellipse cx="1027.91" cy="66.6969" rx="1.11341" ry="0.995475" fill="#27AAE1"/>
<ellipse cx="1052.4" cy="66.6969" rx="1.11341" ry="0.995475" fill="#27AAE1"/>
<ellipse cx="1076.9" cy="66.6969" rx="1.11341" ry="0.995475" fill="#27AAE1"/>
<ellipse cx="1101.39" cy="66.6969" rx="1.11341" ry="0.995475" fill="#27AAE1"/>
<ellipse cx="1125.89" cy="66.6969" rx="1.11341" ry="0.995475" fill="#27AAE1"/>
<ellipse cx="-0.886588" cy="88.5973" rx="1.11341" ry="0.995475" fill="#27AAE1"/>
<ellipse cx="23.6085" cy="88.5973" rx="1.11341" ry="0.995475" fill="#27AAE1"/>
<ellipse cx="48.1035" cy="88.5973" rx="1.11341" ry="0.995475" fill="#27AAE1"/>
<ellipse cx="72.5986" cy="88.5973" rx="1.11341" ry="0.995475" fill="#27AAE1"/>
<ellipse cx="97.0936" cy="88.5973" rx="1.11341" ry="0.995475" fill="#27AAE1"/>
<ellipse cx="121.589" cy="88.5973" rx="1.11341" ry="0.995475" fill="#27AAE1"/>
<ellipse cx="146.084" cy="88.5973" rx="1.11341" ry="0.995475" fill="#27AAE1"/>
<ellipse cx="170.579" cy="88.5973" rx="1.11341" ry="0.995475" fill="#27AAE1"/>
<ellipse cx="195.074" cy="88.5973" rx="1.11341" ry="0.995475" fill="#27AAE1"/>
<ellipse cx="219.569" cy="88.5973" rx="1.11341" ry="0.995475" fill="#27AAE1"/>
<ellipse cx="244.064" cy="88.5973" rx="1.11341" ry="0.995475" fill="#27AAE1"/>
<ellipse cx="268.559" cy="88.5973" rx="1.11341" ry="0.995475" fill="#27AAE1"/>
<ellipse cx="293.054" cy="88.5973" rx="1.11341" ry="0.995475" fill="#27AAE1"/>
<ellipse cx="317.549" cy="88.5973" rx="1.11341" ry="0.995475" fill="#27AAE1"/>
<ellipse cx="342.044" cy="88.5973" rx="1.11341" ry="0.995475" fill="#27AAE1"/>
<ellipse cx="366.539" cy="88.5973" rx="1.11341" ry="0.995475" fill="#27AAE1"/>
<ellipse cx="391.035" cy="88.5973" rx="1.11341" ry="0.995475" fill="#27AAE1"/>
<ellipse cx="415.53" cy="88.5973" rx="1.11341" ry="0.995475" fill="#27AAE1"/>
<ellipse cx="440.025" cy="88.5973" rx="1.11341" ry="0.995475" fill="#27AAE1"/>
<ellipse cx="464.52" cy="88.5973" rx="1.11341" ry="0.995475" fill="#27AAE1"/>
<ellipse cx="489.015" cy="88.5973" rx="1.11341" ry="0.995475" fill="#27AAE1"/>
<ellipse cx="513.51" cy="88.5973" rx="1.11341" ry="0.995475" fill="#27AAE1"/>
<ellipse cx="538.005" cy="88.5973" rx="1.11341" ry="0.995475" fill="#27AAE1"/>
<ellipse cx="562.5" cy="88.5973" rx="1.11341" ry="0.995475" fill="#27AAE1"/>
<ellipse cx="586.995" cy="88.5973" rx="1.11341" ry="0.995475" fill="#27AAE1"/>
<ellipse cx="611.49" cy="88.5973" rx="1.11341" ry="0.995475" fill="#27AAE1"/>
<ellipse cx="635.985" cy="88.5973" rx="1.11341" ry="0.995475" fill="#27AAE1"/>
<ellipse cx="660.48" cy="88.5973" rx="1.11341" ry="0.995475" fill="#27AAE1"/>
<ellipse cx="684.975" cy="88.5973" rx="1.11341" ry="0.995475" fill="#27AAE1"/>
<ellipse cx="709.47" cy="88.5973" rx="1.11341" ry="0.995475" fill="#27AAE1"/>
<ellipse cx="733.965" cy="88.5973" rx="1.11341" ry="0.995475" fill="#27AAE1"/>
<ellipse cx="758.461" cy="88.5973" rx="1.11341" ry="0.995475" fill="#27AAE1"/>
<ellipse cx="782.956" cy="88.5973" rx="1.11341" ry="0.995475" fill="#27AAE1"/>
<ellipse cx="807.451" cy="88.5973" rx="1.11341" ry="0.995475" fill="#27AAE1"/>
<ellipse cx="831.946" cy="88.5973" rx="1.11341" ry="0.995475" fill="#27AAE1"/>
<ellipse cx="856.441" cy="88.5973" rx="1.11341" ry="0.995475" fill="#27AAE1"/>
<ellipse cx="880.936" cy="88.5973" rx="1.11341" ry="0.995475" fill="#27AAE1"/>
<ellipse cx="905.431" cy="88.5973" rx="1.11341" ry="0.995475" fill="#27AAE1"/>
<ellipse cx="929.926" cy="88.5973" rx="1.11341" ry="0.995475" fill="#27AAE1"/>
<ellipse cx="954.421" cy="88.5973" rx="1.11341" ry="0.995475" fill="#27AAE1"/>
<ellipse cx="978.916" cy="88.5973" rx="1.11341" ry="0.995475" fill="#27AAE1"/>
<ellipse cx="1003.41" cy="88.5973" rx="1.11341" ry="0.995475" fill="#27AAE1"/>
<ellipse cx="1027.91" cy="88.5973" rx="1.11341" ry="0.995475" fill="#27AAE1"/>
<ellipse cx="1052.4" cy="88.5973" rx="1.11341" ry="0.995475" fill="#27AAE1"/>
<ellipse cx="1076.9" cy="88.5973" rx="1.11341" ry="0.995475" fill="#27AAE1"/>
<ellipse cx="1101.39" cy="88.5973" rx="1.11341" ry="0.995475" fill="#27AAE1"/>
<ellipse cx="1125.89" cy="88.5973" rx="1.11341" ry="0.995475" fill="#27AAE1"/>
<ellipse cx="-0.886588" cy="110.498" rx="1.11341" ry="0.995475" fill="#27AAE1"/>
<ellipse cx="23.6085" cy="110.498" rx="1.11341" ry="0.995475" fill="#27AAE1"/>
<ellipse cx="48.1035" cy="110.498" rx="1.11341" ry="0.995475" fill="#27AAE1"/>
<ellipse cx="72.5986" cy="110.498" rx="1.11341" ry="0.995475" fill="#27AAE1"/>
<ellipse cx="97.0936" cy="110.498" rx="1.11341" ry="0.995475" fill="#27AAE1"/>
<ellipse cx="121.589" cy="110.498" rx="1.11341" ry="0.995475" fill="#27AAE1"/>
<ellipse cx="146.084" cy="110.498" rx="1.11341" ry="0.995475" fill="#27AAE1"/>
<ellipse cx="170.579" cy="110.498" rx="1.11341" ry="0.995475" fill="#27AAE1"/>
<ellipse cx="195.074" cy="110.498" rx="1.11341" ry="0.995475" fill="#27AAE1"/>
<ellipse cx="219.569" cy="110.498" rx="1.11341" ry="0.995475" fill="#27AAE1"/>
<ellipse cx="244.064" cy="110.498" rx="1.11341" ry="0.995475" fill="#27AAE1"/>
<ellipse cx="268.559" cy="110.498" rx="1.11341" ry="0.995475" fill="#27AAE1"/>
<ellipse cx="293.054" cy="110.498" rx="1.11341" ry="0.995475" fill="#27AAE1"/>
<ellipse cx="317.549" cy="110.498" rx="1.11341" ry="0.995475" fill="#27AAE1"/>
<ellipse cx="342.044" cy="110.498" rx="1.11341" ry="0.995475" fill="#27AAE1"/>
<ellipse cx="366.539" cy="110.498" rx="1.11341" ry="0.995475" fill="#27AAE1"/>
<ellipse cx="1052.4" cy="110.498" rx="1.11341" ry="0.995475" fill="#27AAE1"/>
<ellipse cx="1076.9" cy="110.498" rx="1.11341" ry="0.995475" fill="#27AAE1"/>
<ellipse cx="1101.39" cy="110.498" rx="1.11341" ry="0.995475" fill="#27AAE1"/>
<ellipse cx="1125.89" cy="110.498" rx="1.11341" ry="0.995475" fill="#27AAE1"/>
<ellipse cx="-0.886588" cy="132.398" rx="1.11341" ry="0.995475" fill="#27AAE1"/>
<ellipse cx="23.6085" cy="132.398" rx="1.11341" ry="0.995475" fill="#27AAE1"/>
<ellipse cx="48.1035" cy="132.398" rx="1.11341" ry="0.995475" fill="#27AAE1"/>
<ellipse cx="72.5986" cy="132.398" rx="1.11341" ry="0.995475" fill="#27AAE1"/>
<ellipse cx="97.0936" cy="132.398" rx="1.11341" ry="0.995475" fill="#27AAE1"/>
<ellipse cx="121.589" cy="132.398" rx="1.11341" ry="0.995475" fill="#27AAE1"/>
<ellipse cx="146.084" cy="132.398" rx="1.11341" ry="0.995475" fill="#27AAE1"/>
<ellipse cx="170.579" cy="132.398" rx="1.11341" ry="0.995475" fill="#27AAE1"/>
<ellipse cx="195.074" cy="132.398" rx="1.11341" ry="0.995475" fill="#27AAE1"/>
<ellipse cx="219.569" cy="132.398" rx="1.11341" ry="0.995475" fill="#27AAE1"/>
<ellipse cx="244.064" cy="132.398" rx="1.11341" ry="0.995475" fill="#27AAE1"/>
<ellipse cx="268.559" cy="132.398" rx="1.11341" ry="0.995475" fill="#27AAE1"/>
<ellipse cx="293.054" cy="132.398" rx="1.11341" ry="0.995475" fill="#27AAE1"/>
<ellipse cx="317.549" cy="132.398" rx="1.11341" ry="0.995475" fill="#27AAE1"/>
<ellipse cx="342.044" cy="132.398" rx="1.11341" ry="0.995475" fill="#27AAE1"/>
<ellipse cx="366.539" cy="132.398" rx="1.11341" ry="0.995475" fill="#27AAE1"/>
<ellipse cx="1052.4" cy="132.398" rx="1.11341" ry="0.995475" fill="#27AAE1"/>
<ellipse cx="1076.9" cy="132.398" rx="1.11341" ry="0.995475" fill="#27AAE1"/>
<ellipse cx="1101.39" cy="132.398" rx="1.11341" ry="0.995475" fill="#27AAE1"/>
<ellipse cx="1125.89" cy="132.398" rx="1.11341" ry="0.995475" fill="#27AAE1"/>
<ellipse cx="-0.886588" cy="154.299" rx="1.11341" ry="0.995475" fill="#27AAE1"/>
<ellipse cx="23.6085" cy="154.299" rx="1.11341" ry="0.995475" fill="#27AAE1"/>
<ellipse cx="48.1035" cy="154.299" rx="1.11341" ry="0.995475" fill="#27AAE1"/>
<ellipse cx="72.5986" cy="154.299" rx="1.11341" ry="0.995475" fill="#27AAE1"/>
<ellipse cx="97.0936" cy="154.299" rx="1.11341" ry="0.995475" fill="#27AAE1"/>
<ellipse cx="121.589" cy="154.299" rx="1.11341" ry="0.995475" fill="#27AAE1"/>
<ellipse cx="146.084" cy="154.299" rx="1.11341" ry="0.995475" fill="#27AAE1"/>
<ellipse cx="170.579" cy="154.299" rx="1.11341" ry="0.995475" fill="#27AAE1"/>
<ellipse cx="195.074" cy="154.299" rx="1.11341" ry="0.995475" fill="#27AAE1"/>
<ellipse cx="219.569" cy="154.299" rx="1.11341" ry="0.995475" fill="#27AAE1"/>
<ellipse cx="244.064" cy="154.299" rx="1.11341" ry="0.995475" fill="#27AAE1"/>
<ellipse cx="268.559" cy="154.299" rx="1.11341" ry="0.995475" fill="#27AAE1"/>
<ellipse cx="293.054" cy="154.299" rx="1.11341" ry="0.995475" fill="#27AAE1"/>
<ellipse cx="317.549" cy="154.299" rx="1.11341" ry="0.995475" fill="#27AAE1"/>
<ellipse cx="342.044" cy="154.299" rx="1.11341" ry="0.995475" fill="#27AAE1"/>
<ellipse cx="366.539" cy="154.299" rx="1.11341" ry="0.995475" fill="#27AAE1"/>
<ellipse cx="1052.4" cy="154.299" rx="1.11341" ry="0.995475" fill="#27AAE1"/>
<ellipse cx="1076.9" cy="154.299" rx="1.11341" ry="0.995475" fill="#27AAE1"/>
<ellipse cx="1101.39" cy="154.299" rx="1.11341" ry="0.995475" fill="#27AAE1"/>
<ellipse cx="1125.89" cy="154.299" rx="1.11341" ry="0.995475" fill="#27AAE1"/>
<ellipse cx="-0.886588" cy="176.199" rx="1.11341" ry="0.995475" fill="#27AAE1"/>
<ellipse cx="23.6085" cy="176.199" rx="1.11341" ry="0.995475" fill="#27AAE1"/>
<ellipse cx="48.1035" cy="176.199" rx="1.11341" ry="0.995475" fill="#27AAE1"/>
<ellipse cx="72.5986" cy="176.199" rx="1.11341" ry="0.995475" fill="#27AAE1"/>
<ellipse cx="97.0936" cy="176.199" rx="1.11341" ry="0.995475" fill="#27AAE1"/>
<ellipse cx="121.589" cy="176.199" rx="1.11341" ry="0.995475" fill="#27AAE1"/>
<ellipse cx="146.084" cy="176.199" rx="1.11341" ry="0.995475" fill="#27AAE1"/>
<ellipse cx="170.579" cy="176.199" rx="1.11341" ry="0.995475" fill="#27AAE1"/>
<ellipse cx="195.074" cy="176.199" rx="1.11341" ry="0.995475" fill="#27AAE1"/>
<ellipse cx="219.569" cy="176.199" rx="1.11341" ry="0.995475" fill="#27AAE1"/>
<ellipse cx="244.064" cy="176.199" rx="1.11341" ry="0.995475" fill="#27AAE1"/>
<ellipse cx="268.559" cy="176.199" rx="1.11341" ry="0.995475" fill="#27AAE1"/>
<ellipse cx="293.054" cy="176.199" rx="1.11341" ry="0.995475" fill="#27AAE1"/>
<ellipse cx="317.549" cy="176.199" rx="1.11341" ry="0.995475" fill="#27AAE1"/>
<ellipse cx="342.044" cy="176.199" rx="1.11341" ry="0.995475" fill="#27AAE1"/>
<ellipse cx="366.539" cy="176.199" rx="1.11341" ry="0.995475" fill="#27AAE1"/>
<ellipse cx="880.936" cy="176.199" rx="1.11341" ry="0.995475" fill="#27AAE1"/>
<ellipse cx="905.431" cy="176.199" rx="1.11341" ry="0.995475" fill="#27AAE1"/>
<ellipse cx="929.926" cy="176.199" rx="1.11341" ry="0.995475" fill="#27AAE1"/>
<ellipse cx="954.421" cy="176.199" rx="1.11341" ry="0.995475" fill="#27AAE1"/>
<ellipse cx="978.916" cy="176.199" rx="1.11341" ry="0.995475" fill="#27AAE1"/>
<ellipse cx="1003.41" cy="176.199" rx="1.11341" ry="0.995475" fill="#27AAE1"/>
<ellipse cx="1027.91" cy="176.199" rx="1.11341" ry="0.995475" fill="#27AAE1"/>
<ellipse cx="1052.4" cy="176.199" rx="1.11341" ry="0.995475" fill="#27AAE1"/>
<ellipse cx="1076.9" cy="176.199" rx="1.11341" ry="0.995475" fill="#27AAE1"/>
<ellipse cx="1101.39" cy="176.199" rx="1.11341" ry="0.995475" fill="#27AAE1"/>
<ellipse cx="1125.89" cy="176.199" rx="1.11341" ry="0.995475" fill="#27AAE1"/>
<ellipse cx="-0.886588" cy="198.099" rx="1.11341" ry="0.995475" fill="#27AAE1"/>
<ellipse cx="23.6085" cy="198.1" rx="1.11341" ry="0.995475" fill="#27AAE1"/>
<ellipse cx="48.1035" cy="198.1" rx="1.11341" ry="0.995475" fill="#27AAE1"/>
<ellipse cx="72.5986" cy="198.1" rx="1.11341" ry="0.995475" fill="#27AAE1"/>
<ellipse cx="97.0936" cy="198.1" rx="1.11341" ry="0.995475" fill="#27AAE1"/>
<ellipse cx="121.589" cy="198.1" rx="1.11341" ry="0.995475" fill="#27AAE1"/>
<ellipse cx="146.084" cy="198.1" rx="1.11341" ry="0.995475" fill="#27AAE1"/>
<ellipse cx="170.579" cy="198.1" rx="1.11341" ry="0.995475" fill="#27AAE1"/>
<ellipse cx="195.074" cy="198.1" rx="1.11341" ry="0.995475" fill="#27AAE1"/>
<ellipse cx="219.569" cy="198.1" rx="1.11341" ry="0.995475" fill="#27AAE1"/>
<ellipse cx="244.064" cy="198.1" rx="1.11341" ry="0.995475" fill="#27AAE1"/>
<ellipse cx="268.559" cy="198.1" rx="1.11341" ry="0.995475" fill="#27AAE1"/>
<ellipse cx="293.054" cy="198.1" rx="1.11341" ry="0.995475" fill="#27AAE1"/>
<ellipse cx="317.549" cy="198.1" rx="1.11341" ry="0.995475" fill="#27AAE1"/>
<ellipse cx="342.044" cy="198.1" rx="1.11341" ry="0.995475" fill="#27AAE1"/>
<ellipse cx="366.539" cy="198.1" rx="1.11341" ry="0.995475" fill="#27AAE1"/>
<ellipse cx="880.936" cy="198.1" rx="1.11341" ry="0.995475" fill="#27AAE1"/>
<ellipse cx="905.431" cy="198.1" rx="1.11341" ry="0.995475" fill="#27AAE1"/>
<ellipse cx="929.926" cy="198.1" rx="1.11341" ry="0.995475" fill="#27AAE1"/>
<ellipse cx="954.421" cy="198.1" rx="1.11341" ry="0.995475" fill="#27AAE1"/>
<ellipse cx="978.916" cy="198.1" rx="1.11341" ry="0.995475" fill="#27AAE1"/>
<ellipse cx="1003.41" cy="198.1" rx="1.11341" ry="0.995475" fill="#27AAE1"/>
<ellipse cx="1027.91" cy="198.1" rx="1.11341" ry="0.995475" fill="#27AAE1"/>
<ellipse cx="1052.4" cy="198.1" rx="1.11341" ry="0.995475" fill="#27AAE1"/>
<ellipse cx="1076.9" cy="198.1" rx="1.11341" ry="0.995475" fill="#27AAE1"/>
<ellipse cx="1101.39" cy="198.1" rx="1.11341" ry="0.995475" fill="#27AAE1"/>
<ellipse cx="1125.89" cy="198.1" rx="1.11341" ry="0.995475" fill="#27AAE1"/>
<ellipse cx="-0.886588" cy="220" rx="1.11341" ry="0.995475" fill="#27AAE1"/>
<ellipse cx="23.6085" cy="220" rx="1.11341" ry="0.995475" fill="#27AAE1"/>
<ellipse cx="48.1035" cy="220" rx="1.11341" ry="0.995475" fill="#27AAE1"/>
<ellipse cx="72.5986" cy="220" rx="1.11341" ry="0.995475" fill="#27AAE1"/>
<ellipse cx="97.0936" cy="220" rx="1.11341" ry="0.995475" fill="#27AAE1"/>
<ellipse cx="121.589" cy="220" rx="1.11341" ry="0.995475" fill="#27AAE1"/>
<ellipse cx="146.084" cy="220" rx="1.11341" ry="0.995475" fill="#27AAE1"/>
<ellipse cx="170.579" cy="220" rx="1.11341" ry="0.995475" fill="#27AAE1"/>
<ellipse cx="195.074" cy="220" rx="1.11341" ry="0.995475" fill="#27AAE1"/>
<ellipse cx="219.569" cy="220" rx="1.11341" ry="0.995475" fill="#27AAE1"/>
<ellipse cx="244.064" cy="220" rx="1.11341" ry="0.995475" fill="#27AAE1"/>
<ellipse cx="268.559" cy="220" rx="1.11341" ry="0.995475" fill="#27AAE1"/>
<ellipse cx="293.054" cy="220" rx="1.11341" ry="0.995475" fill="#27AAE1"/>
<ellipse cx="317.549" cy="220" rx="1.11341" ry="0.995475" fill="#27AAE1"/>
<ellipse cx="342.044" cy="220" rx="1.11341" ry="0.995475" fill="#27AAE1"/>
<ellipse cx="366.539" cy="220" rx="1.11341" ry="0.995475" fill="#27AAE1"/>
<ellipse cx="880.936" cy="220" rx="1.11341" ry="0.995475" fill="#27AAE1"/>
<ellipse cx="905.431" cy="220" rx="1.11341" ry="0.995475" fill="#27AAE1"/>
<ellipse cx="929.926" cy="220" rx="1.11341" ry="0.995475" fill="#27AAE1"/>
<ellipse cx="954.421" cy="220" rx="1.11341" ry="0.995475" fill="#27AAE1"/>
<ellipse cx="978.916" cy="220" rx="1.11341" ry="0.995475" fill="#27AAE1"/>
<ellipse cx="1003.41" cy="220" rx="1.11341" ry="0.995475" fill="#27AAE1"/>
<ellipse cx="1027.91" cy="220" rx="1.11341" ry="0.995475" fill="#27AAE1"/>
<ellipse cx="1052.4" cy="220" rx="1.11341" ry="0.995475" fill="#27AAE1"/>
<ellipse cx="1076.9" cy="220" rx="1.11341" ry="0.995475" fill="#27AAE1"/>
<ellipse cx="1101.39" cy="220" rx="1.11341" ry="0.995475" fill="#27AAE1"/>
<ellipse cx="1125.89" cy="220" rx="1.11341" ry="0.995475" fill="#27AAE1"/>
<ellipse cx="-0.886588" cy="241.9" rx="1.11341" ry="0.995475" fill="#27AAE1"/>
<ellipse cx="23.6085" cy="241.9" rx="1.11341" ry="0.995475" fill="#27AAE1"/>
<ellipse cx="48.1035" cy="241.9" rx="1.11341" ry="0.995475" fill="#27AAE1"/>
<ellipse cx="72.5986" cy="241.9" rx="1.11341" ry="0.995475" fill="#27AAE1"/>
<ellipse cx="97.0936" cy="241.9" rx="1.11341" ry="0.995475" fill="#27AAE1"/>
<ellipse cx="121.589" cy="241.9" rx="1.11341" ry="0.995475" fill="#27AAE1"/>
<ellipse cx="146.084" cy="241.9" rx="1.11341" ry="0.995475" fill="#27AAE1"/>
<ellipse cx="170.579" cy="241.9" rx="1.11341" ry="0.995475" fill="#27AAE1"/>
<ellipse cx="195.074" cy="241.9" rx="1.11341" ry="0.995475" fill="#27AAE1"/>
<ellipse cx="219.569" cy="241.9" rx="1.11341" ry="0.995475" fill="#27AAE1"/>
<ellipse cx="244.064" cy="241.9" rx="1.11341" ry="0.995475" fill="#27AAE1"/>
<ellipse cx="268.559" cy="241.9" rx="1.11341" ry="0.995475" fill="#27AAE1"/>
<ellipse cx="293.054" cy="241.9" rx="1.11341" ry="0.995475" fill="#27AAE1"/>
<ellipse cx="317.549" cy="241.9" rx="1.11341" ry="0.995475" fill="#27AAE1"/>
<ellipse cx="342.044" cy="241.9" rx="1.11341" ry="0.995475" fill="#27AAE1"/>
<ellipse cx="366.539" cy="241.9" rx="1.11341" ry="0.995475" fill="#27AAE1"/>
<ellipse cx="391.035" cy="241.9" rx="1.11341" ry="0.995475" fill="#27AAE1"/>
<ellipse cx="415.53" cy="241.9" rx="1.11341" ry="0.995475" fill="#27AAE1"/>
<ellipse cx="440.025" cy="241.9" rx="1.11341" ry="0.995475" fill="#27AAE1"/>
<ellipse cx="464.52" cy="241.9" rx="1.11341" ry="0.995475" fill="#27AAE1"/>
<ellipse cx="489.015" cy="241.9" rx="1.11341" ry="0.995475" fill="#27AAE1"/>
<ellipse cx="513.51" cy="241.9" rx="1.11341" ry="0.995475" fill="#27AAE1"/>
<ellipse cx="538.005" cy="241.9" rx="1.11341" ry="0.995475" fill="#27AAE1"/>
<ellipse cx="562.5" cy="241.9" rx="1.11341" ry="0.995475" fill="#27AAE1"/>
<ellipse cx="586.995" cy="241.9" rx="1.11341" ry="0.995475" fill="#27AAE1"/>
<ellipse cx="611.49" cy="241.9" rx="1.11341" ry="0.995475" fill="#27AAE1"/>
<ellipse cx="635.985" cy="241.9" rx="1.11341" ry="0.995475" fill="#27AAE1"/>
<ellipse cx="660.48" cy="241.9" rx="1.11341" ry="0.995475" fill="#27AAE1"/>
<ellipse cx="684.975" cy="241.9" rx="1.11341" ry="0.995475" fill="#27AAE1"/>
<ellipse cx="709.47" cy="241.9" rx="1.11341" ry="0.995475" fill="#27AAE1"/>
<ellipse cx="733.965" cy="241.9" rx="1.11341" ry="0.995475" fill="#27AAE1"/>
<ellipse cx="758.461" cy="241.9" rx="1.11341" ry="0.995475" fill="#27AAE1"/>
<ellipse cx="782.956" cy="241.9" rx="1.11341" ry="0.995475" fill="#27AAE1"/>
<ellipse cx="807.451" cy="241.9" rx="1.11341" ry="0.995475" fill="#27AAE1"/>
<ellipse cx="831.946" cy="241.9" rx="1.11341" ry="0.995475" fill="#27AAE1"/>
<ellipse cx="856.441" cy="241.9" rx="1.11341" ry="0.995475" fill="#27AAE1"/>
<ellipse cx="880.936" cy="241.9" rx="1.11341" ry="0.995475" fill="#27AAE1"/>
<ellipse cx="905.431" cy="241.9" rx="1.11341" ry="0.995475" fill="#27AAE1"/>
<ellipse cx="929.926" cy="241.9" rx="1.11341" ry="0.995475" fill="#27AAE1"/>
<ellipse cx="954.421" cy="241.9" rx="1.11341" ry="0.995475" fill="#27AAE1"/>
<ellipse cx="978.916" cy="241.9" rx="1.11341" ry="0.995475" fill="#27AAE1"/>
<ellipse cx="1003.41" cy="241.9" rx="1.11341" ry="0.995475" fill="#27AAE1"/>
<ellipse cx="1027.91" cy="241.9" rx="1.11341" ry="0.995475" fill="#27AAE1"/>
<ellipse cx="1052.4" cy="241.9" rx="1.11341" ry="0.995475" fill="#27AAE1"/>
<ellipse cx="1076.9" cy="241.9" rx="1.11341" ry="0.995475" fill="#27AAE1"/>
<ellipse cx="1101.39" cy="241.9" rx="1.11341" ry="0.995475" fill="#27AAE1"/>
<ellipse cx="1125.89" cy="241.9" rx="1.11341" ry="0.995475" fill="#27AAE1"/>
<ellipse cx="-0.886588" cy="263.801" rx="1.11341" ry="0.995475" fill="#27AAE1"/>
<ellipse cx="23.6085" cy="263.801" rx="1.11341" ry="0.995475" fill="#27AAE1"/>
<ellipse cx="48.1035" cy="263.801" rx="1.11341" ry="0.995475" fill="#27AAE1"/>
<ellipse cx="72.5986" cy="263.801" rx="1.11341" ry="0.995475" fill="#27AAE1"/>
<ellipse cx="97.0936" cy="263.801" rx="1.11341" ry="0.995475" fill="#27AAE1"/>
<ellipse cx="121.589" cy="263.801" rx="1.11341" ry="0.995475" fill="#27AAE1"/>
<ellipse cx="146.084" cy="263.801" rx="1.11341" ry="0.995475" fill="#27AAE1"/>
<ellipse cx="170.579" cy="263.801" rx="1.11341" ry="0.995475" fill="#27AAE1"/>
<ellipse cx="195.074" cy="263.801" rx="1.11341" ry="0.995475" fill="#27AAE1"/>
<ellipse cx="219.569" cy="263.801" rx="1.11341" ry="0.995475" fill="#27AAE1"/>
<ellipse cx="244.064" cy="263.801" rx="1.11341" ry="0.995475" fill="#27AAE1"/>
<ellipse cx="268.559" cy="263.801" rx="1.11341" ry="0.995475" fill="#27AAE1"/>
<ellipse cx="293.054" cy="263.801" rx="1.11341" ry="0.995475" fill="#27AAE1"/>
<ellipse cx="317.549" cy="263.801" rx="1.11341" ry="0.995475" fill="#27AAE1"/>
<ellipse cx="342.044" cy="263.801" rx="1.11341" ry="0.995475" fill="#27AAE1"/>
<ellipse cx="1052.4" cy="263.801" rx="1.11341" ry="0.995475" fill="#27AAE1"/>
<ellipse cx="1076.9" cy="263.801" rx="1.11341" ry="0.995475" fill="#27AAE1"/>
<ellipse cx="1101.39" cy="263.801" rx="1.11341" ry="0.995475" fill="#27AAE1"/>
<ellipse cx="1125.89" cy="263.801" rx="1.11341" ry="0.995475" fill="#27AAE1"/>
<ellipse cx="-0.886588" cy="285.701" rx="1.11341" ry="0.995475" fill="#27AAE1"/>
<ellipse cx="23.6085" cy="285.701" rx="1.11341" ry="0.995475" fill="#27AAE1"/>
<ellipse cx="48.1035" cy="285.701" rx="1.11341" ry="0.995475" fill="#27AAE1"/>
<ellipse cx="72.5986" cy="285.701" rx="1.11341" ry="0.995475" fill="#27AAE1"/>
<ellipse cx="97.0936" cy="285.701" rx="1.11341" ry="0.995475" fill="#27AAE1"/>
<ellipse cx="121.589" cy="285.701" rx="1.11341" ry="0.995475" fill="#27AAE1"/>
<ellipse cx="146.084" cy="285.701" rx="1.11341" ry="0.995475" fill="#27AAE1"/>
<ellipse cx="170.579" cy="285.701" rx="1.11341" ry="0.995475" fill="#27AAE1"/>
<ellipse cx="195.074" cy="285.701" rx="1.11341" ry="0.995475" fill="#27AAE1"/>
<ellipse cx="219.569" cy="285.701" rx="1.11341" ry="0.995475" fill="#27AAE1"/>
<ellipse cx="244.064" cy="285.701" rx="1.11341" ry="0.995475" fill="#27AAE1"/>
<ellipse cx="268.559" cy="285.701" rx="1.11341" ry="0.995475" fill="#27AAE1"/>
<ellipse cx="293.054" cy="285.701" rx="1.11341" ry="0.995475" fill="#27AAE1"/>
<ellipse cx="317.549" cy="285.701" rx="1.11341" ry="0.995475" fill="#27AAE1"/>
<ellipse cx="342.044" cy="285.701" rx="1.11341" ry="0.995475" fill="#27AAE1"/>
<ellipse cx="1052.4" cy="285.701" rx="1.11341" ry="0.995475" fill="#27AAE1"/>
<ellipse cx="1076.9" cy="285.701" rx="1.11341" ry="0.995475" fill="#27AAE1"/>
<ellipse cx="1101.39" cy="285.701" rx="1.11341" ry="0.995475" fill="#27AAE1"/>
<ellipse cx="1125.89" cy="285.701" rx="1.11341" ry="0.995475" fill="#27AAE1"/>
<ellipse cx="-0.886588" cy="307.602" rx="1.11341" ry="0.995475" fill="#27AAE1"/>
<ellipse cx="23.6085" cy="307.602" rx="1.11341" ry="0.995475" fill="#27AAE1"/>
<ellipse cx="48.1035" cy="307.602" rx="1.11341" ry="0.995475" fill="#27AAE1"/>
<ellipse cx="72.5986" cy="307.602" rx="1.11341" ry="0.995475" fill="#27AAE1"/>
<ellipse cx="97.0936" cy="307.602" rx="1.11341" ry="0.995475" fill="#27AAE1"/>
<ellipse cx="121.589" cy="307.602" rx="1.11341" ry="0.995475" fill="#27AAE1"/>
<ellipse cx="146.084" cy="307.602" rx="1.11341" ry="0.995475" fill="#27AAE1"/>
<ellipse cx="170.579" cy="307.602" rx="1.11341" ry="0.995475" fill="#27AAE1"/>
<ellipse cx="195.074" cy="307.602" rx="1.11341" ry="0.995475" fill="#27AAE1"/>
<ellipse cx="219.569" cy="307.602" rx="1.11341" ry="0.995475" fill="#27AAE1"/>
<ellipse cx="244.064" cy="307.602" rx="1.11341" ry="0.995475" fill="#27AAE1"/>
<ellipse cx="268.559" cy="307.602" rx="1.11341" ry="0.995475" fill="#27AAE1"/>
<ellipse cx="293.054" cy="307.602" rx="1.11341" ry="0.995475" fill="#27AAE1"/>
<ellipse cx="317.549" cy="307.602" rx="1.11341" ry="0.995475" fill="#27AAE1"/>
<ellipse cx="342.044" cy="307.602" rx="1.11341" ry="0.995475" fill="#27AAE1"/>
<ellipse cx="366.539" cy="307.602" rx="1.11341" ry="0.995475" fill="#27AAE1"/>
<ellipse cx="391.035" cy="307.602" rx="1.11341" ry="0.995475" fill="#27AAE1"/>
<ellipse cx="415.53" cy="307.602" rx="1.11341" ry="0.995475" fill="#27AAE1"/>
<ellipse cx="440.025" cy="307.602" rx="1.11341" ry="0.995475" fill="#27AAE1"/>
<ellipse cx="464.52" cy="307.602" rx="1.11341" ry="0.995475" fill="#27AAE1"/>
<ellipse cx="489.015" cy="307.602" rx="1.11341" ry="0.995475" fill="#27AAE1"/>
<ellipse cx="513.51" cy="307.602" rx="1.11341" ry="0.995475" fill="#27AAE1"/>
<ellipse cx="538.005" cy="307.602" rx="1.11341" ry="0.995475" fill="#27AAE1"/>
<ellipse cx="562.5" cy="307.602" rx="1.11341" ry="0.995475" fill="#27AAE1"/>
<ellipse cx="586.995" cy="307.602" rx="1.11341" ry="0.995475" fill="#27AAE1"/>
<ellipse cx="611.49" cy="307.602" rx="1.11341" ry="0.995475" fill="#27AAE1"/>
<ellipse cx="635.985" cy="307.602" rx="1.11341" ry="0.995475" fill="#27AAE1"/>
<ellipse cx="660.48" cy="307.602" rx="1.11341" ry="0.995475" fill="#27AAE1"/>
<ellipse cx="684.975" cy="307.602" rx="1.11341" ry="0.995475" fill="#27AAE1"/>
<ellipse cx="709.47" cy="307.602" rx="1.11341" ry="0.995475" fill="#27AAE1"/>
<ellipse cx="733.965" cy="307.602" rx="1.11341" ry="0.995475" fill="#27AAE1"/>
<ellipse cx="758.461" cy="307.602" rx="1.11341" ry="0.995475" fill="#27AAE1"/>
<ellipse cx="782.956" cy="307.602" rx="1.11341" ry="0.995475" fill="#27AAE1"/>
<ellipse cx="807.451" cy="307.602" rx="1.11341" ry="0.995475" fill="#27AAE1"/>
<ellipse cx="831.946" cy="307.602" rx="1.11341" ry="0.995475" fill="#27AAE1"/>
<ellipse cx="856.441" cy="307.602" rx="1.11341" ry="0.995475" fill="#27AAE1"/>
<ellipse cx="880.936" cy="307.602" rx="1.11341" ry="0.995475" fill="#27AAE1"/>
<ellipse cx="905.431" cy="307.602" rx="1.11341" ry="0.995475" fill="#27AAE1"/>
<ellipse cx="929.926" cy="307.602" rx="1.11341" ry="0.995475" fill="#27AAE1"/>
<ellipse cx="954.421" cy="307.602" rx="1.11341" ry="0.995475" fill="#27AAE1"/>
<ellipse cx="978.916" cy="307.602" rx="1.11341" ry="0.995475" fill="#27AAE1"/>
<ellipse cx="1003.41" cy="307.602" rx="1.11341" ry="0.995475" fill="#27AAE1"/>
<ellipse cx="1027.91" cy="307.602" rx="1.11341" ry="0.995475" fill="#27AAE1"/>
<ellipse cx="1052.4" cy="307.602" rx="1.11341" ry="0.995475" fill="#27AAE1"/>
<ellipse cx="1076.9" cy="307.602" rx="1.11341" ry="0.995475" fill="#27AAE1"/>
<ellipse cx="1101.39" cy="307.602" rx="1.11341" ry="0.995475" fill="#27AAE1"/>
<ellipse cx="1125.89" cy="307.602" rx="1.11341" ry="0.995475" fill="#27AAE1"/>
<ellipse cx="-0.886588" cy="329.502" rx="1.11341" ry="0.995475" fill="#27AAE1"/>
<ellipse cx="23.6085" cy="329.502" rx="1.11341" ry="0.995475" fill="#27AAE1"/>
<ellipse cx="48.1035" cy="329.502" rx="1.11341" ry="0.995475" fill="#27AAE1"/>
<ellipse cx="72.5986" cy="329.502" rx="1.11341" ry="0.995475" fill="#27AAE1"/>
<ellipse cx="97.0936" cy="329.502" rx="1.11341" ry="0.995475" fill="#27AAE1"/>
<ellipse cx="121.589" cy="329.502" rx="1.11341" ry="0.995475" fill="#27AAE1"/>
<ellipse cx="146.084" cy="329.502" rx="1.11341" ry="0.995475" fill="#27AAE1"/>
<ellipse cx="170.579" cy="329.502" rx="1.11341" ry="0.995475" fill="#27AAE1"/>
<ellipse cx="195.074" cy="329.502" rx="1.11341" ry="0.995475" fill="#27AAE1"/>
<ellipse cx="219.569" cy="329.502" rx="1.11341" ry="0.995475" fill="#27AAE1"/>
<ellipse cx="244.064" cy="329.502" rx="1.11341" ry="0.995475" fill="#27AAE1"/>
<ellipse cx="268.559" cy="329.502" rx="1.11341" ry="0.995475" fill="#27AAE1"/>
<ellipse cx="293.054" cy="329.502" rx="1.11341" ry="0.995475" fill="#27AAE1"/>
<ellipse cx="317.549" cy="329.502" rx="1.11341" ry="0.995475" fill="#27AAE1"/>
<ellipse cx="342.044" cy="329.502" rx="1.11341" ry="0.995475" fill="#27AAE1"/>
<ellipse cx="366.539" cy="329.502" rx="1.11341" ry="0.995475" fill="#27AAE1"/>
<ellipse cx="391.035" cy="329.502" rx="1.11341" ry="0.995475" fill="#27AAE1"/>
<ellipse cx="415.53" cy="329.502" rx="1.11341" ry="0.995475" fill="#27AAE1"/>
<ellipse cx="440.025" cy="329.502" rx="1.11341" ry="0.995475" fill="#27AAE1"/>
<ellipse cx="464.52" cy="329.502" rx="1.11341" ry="0.995475" fill="#27AAE1"/>
<ellipse cx="489.015" cy="329.502" rx="1.11341" ry="0.995475" fill="#27AAE1"/>
<ellipse cx="513.51" cy="329.502" rx="1.11341" ry="0.995475" fill="#27AAE1"/>
<ellipse cx="538.005" cy="329.502" rx="1.11341" ry="0.995475" fill="#27AAE1"/>
<ellipse cx="562.5" cy="329.502" rx="1.11341" ry="0.995475" fill="#27AAE1"/>
<ellipse cx="586.995" cy="329.502" rx="1.11341" ry="0.995475" fill="#27AAE1"/>
<ellipse cx="611.49" cy="329.502" rx="1.11341" ry="0.995475" fill="#27AAE1"/>
<ellipse cx="635.985" cy="329.502" rx="1.11341" ry="0.995475" fill="#27AAE1"/>
<ellipse cx="660.48" cy="329.502" rx="1.11341" ry="0.995475" fill="#27AAE1"/>
<ellipse cx="684.975" cy="329.502" rx="1.11341" ry="0.995475" fill="#27AAE1"/>
<ellipse cx="709.47" cy="329.502" rx="1.11341" ry="0.995475" fill="#27AAE1"/>
<ellipse cx="733.965" cy="329.502" rx="1.11341" ry="0.995475" fill="#27AAE1"/>
<ellipse cx="758.461" cy="329.502" rx="1.11341" ry="0.995475" fill="#27AAE1"/>
<ellipse cx="782.956" cy="329.502" rx="1.11341" ry="0.995475" fill="#27AAE1"/>
<ellipse cx="807.451" cy="329.502" rx="1.11341" ry="0.995475" fill="#27AAE1"/>
<ellipse cx="831.946" cy="329.502" rx="1.11341" ry="0.995475" fill="#27AAE1"/>
<ellipse cx="856.441" cy="329.502" rx="1.11341" ry="0.995475" fill="#27AAE1"/>
<ellipse cx="880.936" cy="329.502" rx="1.11341" ry="0.995475" fill="#27AAE1"/>
<ellipse cx="905.431" cy="329.502" rx="1.11341" ry="0.995475" fill="#27AAE1"/>
<ellipse cx="929.926" cy="329.502" rx="1.11341" ry="0.995475" fill="#27AAE1"/>
<ellipse cx="954.421" cy="329.502" rx="1.11341" ry="0.995475" fill="#27AAE1"/>
<ellipse cx="978.916" cy="329.502" rx="1.11341" ry="0.995475" fill="#27AAE1"/>
<ellipse cx="1003.41" cy="329.502" rx="1.11341" ry="0.995475" fill="#27AAE1"/>
<ellipse cx="1027.91" cy="329.502" rx="1.11341" ry="0.995475" fill="#27AAE1"/>
<ellipse cx="1052.4" cy="329.502" rx="1.11341" ry="0.995475" fill="#27AAE1"/>
<ellipse cx="1076.9" cy="329.502" rx="1.11341" ry="0.995475" fill="#27AAE1"/>
<ellipse cx="1101.39" cy="329.502" rx="1.11341" ry="0.995475" fill="#27AAE1"/>
<ellipse cx="1125.89" cy="329.502" rx="1.11341" ry="0.995475" fill="#27AAE1"/>
<ellipse cx="-0.886588" cy="351.403" rx="1.11341" ry="0.995475" fill="#27AAE1"/>
<ellipse cx="23.6085" cy="351.403" rx="1.11341" ry="0.995475" fill="#27AAE1"/>
<ellipse cx="48.1035" cy="351.403" rx="1.11341" ry="0.995475" fill="#27AAE1"/>
<ellipse cx="72.5986" cy="351.403" rx="1.11341" ry="0.995475" fill="#27AAE1"/>
<ellipse cx="97.0936" cy="351.403" rx="1.11341" ry="0.995475" fill="#27AAE1"/>
<ellipse cx="121.589" cy="351.403" rx="1.11341" ry="0.995475" fill="#27AAE1"/>
<ellipse cx="146.084" cy="351.403" rx="1.11341" ry="0.995475" fill="#27AAE1"/>
<ellipse cx="170.579" cy="351.403" rx="1.11341" ry="0.995475" fill="#27AAE1"/>
<ellipse cx="195.074" cy="351.403" rx="1.11341" ry="0.995475" fill="#27AAE1"/>
<ellipse cx="219.569" cy="351.403" rx="1.11341" ry="0.995475" fill="#27AAE1"/>
<ellipse cx="244.064" cy="351.403" rx="1.11341" ry="0.995475" fill="#27AAE1"/>
<ellipse cx="268.559" cy="351.403" rx="1.11341" ry="0.995475" fill="#27AAE1"/>
<ellipse cx="293.054" cy="351.403" rx="1.11341" ry="0.995475" fill="#27AAE1"/>
<ellipse cx="317.549" cy="351.403" rx="1.11341" ry="0.995475" fill="#27AAE1"/>
<ellipse cx="342.044" cy="351.403" rx="1.11341" ry="0.995475" fill="#27AAE1"/>
<ellipse cx="366.539" cy="351.403" rx="1.11341" ry="0.995475" fill="#27AAE1"/>
<ellipse cx="391.035" cy="351.403" rx="1.11341" ry="0.995475" fill="#27AAE1"/>
<ellipse cx="415.53" cy="351.403" rx="1.11341" ry="0.995475" fill="#27AAE1"/>
<ellipse cx="440.025" cy="351.403" rx="1.11341" ry="0.995475" fill="#27AAE1"/>
<ellipse cx="464.52" cy="351.403" rx="1.11341" ry="0.995475" fill="#27AAE1"/>
<ellipse cx="489.015" cy="351.403" rx="1.11341" ry="0.995475" fill="#27AAE1"/>
<ellipse cx="513.51" cy="351.403" rx="1.11341" ry="0.995475" fill="#27AAE1"/>
<ellipse cx="538.005" cy="351.403" rx="1.11341" ry="0.995475" fill="#27AAE1"/>
<ellipse cx="562.5" cy="351.403" rx="1.11341" ry="0.995475" fill="#27AAE1"/>
<ellipse cx="586.995" cy="351.403" rx="1.11341" ry="0.995475" fill="#27AAE1"/>
<ellipse cx="611.49" cy="351.403" rx="1.11341" ry="0.995475" fill="#27AAE1"/>
<ellipse cx="635.985" cy="351.403" rx="1.11341" ry="0.995475" fill="#27AAE1"/>
<ellipse cx="660.48" cy="351.403" rx="1.11341" ry="0.995475" fill="#27AAE1"/>
<ellipse cx="684.975" cy="351.403" rx="1.11341" ry="0.995475" fill="#27AAE1"/>
<ellipse cx="709.47" cy="351.403" rx="1.11341" ry="0.995475" fill="#27AAE1"/>
<ellipse cx="733.965" cy="351.403" rx="1.11341" ry="0.995475" fill="#27AAE1"/>
<ellipse cx="758.461" cy="351.403" rx="1.11341" ry="0.995475" fill="#27AAE1"/>
<ellipse cx="782.956" cy="351.403" rx="1.11341" ry="0.995475" fill="#27AAE1"/>
<ellipse cx="807.451" cy="351.403" rx="1.11341" ry="0.995475" fill="#27AAE1"/>
<ellipse cx="831.946" cy="351.403" rx="1.11341" ry="0.995475" fill="#27AAE1"/>
<ellipse cx="856.441" cy="351.403" rx="1.11341" ry="0.995475" fill="#27AAE1"/>
<ellipse cx="880.936" cy="351.403" rx="1.11341" ry="0.995475" fill="#27AAE1"/>
<ellipse cx="905.431" cy="351.403" rx="1.11341" ry="0.995475" fill="#27AAE1"/>
<ellipse cx="929.926" cy="351.403" rx="1.11341" ry="0.995475" fill="#27AAE1"/>
<ellipse cx="954.421" cy="351.403" rx="1.11341" ry="0.995475" fill="#27AAE1"/>
<ellipse cx="978.916" cy="351.403" rx="1.11341" ry="0.995475" fill="#27AAE1"/>
<ellipse cx="1003.41" cy="351.403" rx="1.11341" ry="0.995475" fill="#27AAE1"/>
<ellipse cx="1027.91" cy="351.403" rx="1.11341" ry="0.995475" fill="#27AAE1"/>
<ellipse cx="1052.4" cy="351.403" rx="1.11341" ry="0.995475" fill="#27AAE1"/>
<ellipse cx="1076.9" cy="351.403" rx="1.11341" ry="0.995475" fill="#27AAE1"/>
<ellipse cx="1101.39" cy="351.403" rx="1.11341" ry="0.995475" fill="#27AAE1"/>
<ellipse cx="1125.89" cy="351.403" rx="1.11341" ry="0.995475" fill="#27AAE1"/>
<ellipse cx="-0.886588" cy="373.303" rx="1.11341" ry="0.995475" fill="#27AAE1"/>
<ellipse cx="23.6085" cy="373.303" rx="1.11341" ry="0.995475" fill="#27AAE1"/>
<ellipse cx="48.1035" cy="373.303" rx="1.11341" ry="0.995475" fill="#27AAE1"/>
<ellipse cx="72.5986" cy="373.303" rx="1.11341" ry="0.995475" fill="#27AAE1"/>
<ellipse cx="97.0936" cy="373.303" rx="1.11341" ry="0.995475" fill="#27AAE1"/>
<ellipse cx="121.589" cy="373.303" rx="1.11341" ry="0.995475" fill="#27AAE1"/>
<ellipse cx="146.084" cy="373.303" rx="1.11341" ry="0.995475" fill="#27AAE1"/>
<ellipse cx="170.579" cy="373.303" rx="1.11341" ry="0.995475" fill="#27AAE1"/>
<ellipse cx="195.074" cy="373.303" rx="1.11341" ry="0.995475" fill="#27AAE1"/>
<ellipse cx="219.569" cy="373.303" rx="1.11341" ry="0.995475" fill="#27AAE1"/>
<ellipse cx="244.064" cy="373.303" rx="1.11341" ry="0.995475" fill="#27AAE1"/>
<ellipse cx="268.559" cy="373.303" rx="1.11341" ry="0.995475" fill="#27AAE1"/>
<ellipse cx="293.054" cy="373.303" rx="1.11341" ry="0.995475" fill="#27AAE1"/>
<ellipse cx="317.549" cy="373.303" rx="1.11341" ry="0.995475" fill="#27AAE1"/>
<ellipse cx="342.044" cy="373.303" rx="1.11341" ry="0.995475" fill="#27AAE1"/>
<ellipse cx="366.539" cy="373.303" rx="1.11341" ry="0.995475" fill="#27AAE1"/>
<ellipse cx="391.035" cy="373.303" rx="1.11341" ry="0.995475" fill="#27AAE1"/>
<ellipse cx="415.53" cy="373.303" rx="1.11341" ry="0.995475" fill="#27AAE1"/>
<ellipse cx="440.025" cy="373.303" rx="1.11341" ry="0.995475" fill="#27AAE1"/>
<ellipse cx="464.52" cy="373.303" rx="1.11341" ry="0.995475" fill="#27AAE1"/>
<ellipse cx="489.015" cy="373.303" rx="1.11341" ry="0.995475" fill="#27AAE1"/>
<ellipse cx="513.51" cy="373.303" rx="1.11341" ry="0.995475" fill="#27AAE1"/>
<ellipse cx="538.005" cy="373.303" rx="1.11341" ry="0.995475" fill="#27AAE1"/>
<ellipse cx="562.5" cy="373.303" rx="1.11341" ry="0.995475" fill="#27AAE1"/>
<ellipse cx="586.995" cy="373.303" rx="1.11341" ry="0.995475" fill="#27AAE1"/>
<ellipse cx="611.49" cy="373.303" rx="1.11341" ry="0.995475" fill="#27AAE1"/>
<ellipse cx="635.985" cy="373.303" rx="1.11341" ry="0.995475" fill="#27AAE1"/>
<ellipse cx="660.48" cy="373.303" rx="1.11341" ry="0.995475" fill="#27AAE1"/>
<ellipse cx="684.975" cy="373.303" rx="1.11341" ry="0.995475" fill="#27AAE1"/>
<ellipse cx="709.47" cy="373.303" rx="1.11341" ry="0.995475" fill="#27AAE1"/>
<ellipse cx="733.965" cy="373.303" rx="1.11341" ry="0.995475" fill="#27AAE1"/>
<ellipse cx="758.461" cy="373.303" rx="1.11341" ry="0.995475" fill="#27AAE1"/>
<ellipse cx="782.956" cy="373.303" rx="1.11341" ry="0.995475" fill="#27AAE1"/>
<ellipse cx="807.451" cy="373.303" rx="1.11341" ry="0.995475" fill="#27AAE1"/>
<ellipse cx="831.946" cy="373.303" rx="1.11341" ry="0.995475" fill="#27AAE1"/>
<ellipse cx="856.441" cy="373.303" rx="1.11341" ry="0.995475" fill="#27AAE1"/>
<ellipse cx="880.936" cy="373.303" rx="1.11341" ry="0.995475" fill="#27AAE1"/>
<ellipse cx="905.431" cy="373.303" rx="1.11341" ry="0.995475" fill="#27AAE1"/>
<ellipse cx="929.926" cy="373.303" rx="1.11341" ry="0.995475" fill="#27AAE1"/>
<ellipse cx="954.421" cy="373.303" rx="1.11341" ry="0.995475" fill="#27AAE1"/>
<ellipse cx="978.916" cy="373.303" rx="1.11341" ry="0.995475" fill="#27AAE1"/>
<ellipse cx="1003.41" cy="373.303" rx="1.11341" ry="0.995475" fill="#27AAE1"/>
<ellipse cx="1027.91" cy="373.303" rx="1.11341" ry="0.995475" fill="#27AAE1"/>
<ellipse cx="1052.4" cy="373.303" rx="1.11341" ry="0.995475" fill="#27AAE1"/>
<ellipse cx="1076.9" cy="373.303" rx="1.11341" ry="0.995475" fill="#27AAE1"/>
<ellipse cx="1101.39" cy="373.303" rx="1.11341" ry="0.995475" fill="#27AAE1"/>
<ellipse cx="1125.89" cy="373.303" rx="1.11341" ry="0.995475" fill="#27AAE1"/>
<ellipse cx="-0.886588" cy="395.204" rx="1.11341" ry="0.995475" fill="#27AAE1"/>
<ellipse cx="23.6085" cy="395.204" rx="1.11341" ry="0.995475" fill="#27AAE1"/>
<ellipse cx="48.1035" cy="395.204" rx="1.11341" ry="0.995475" fill="#27AAE1"/>
<ellipse cx="72.5986" cy="395.204" rx="1.11341" ry="0.995475" fill="#27AAE1"/>
<ellipse cx="97.0936" cy="395.204" rx="1.11341" ry="0.995475" fill="#27AAE1"/>
<ellipse cx="121.589" cy="395.204" rx="1.11341" ry="0.995475" fill="#27AAE1"/>
<ellipse cx="146.084" cy="395.204" rx="1.11341" ry="0.995475" fill="#27AAE1"/>
<ellipse cx="170.579" cy="395.204" rx="1.11341" ry="0.995475" fill="#27AAE1"/>
<ellipse cx="195.074" cy="395.204" rx="1.11341" ry="0.995475" fill="#27AAE1"/>
<ellipse cx="219.569" cy="395.204" rx="1.11341" ry="0.995475" fill="#27AAE1"/>
<ellipse cx="244.064" cy="395.204" rx="1.11341" ry="0.995475" fill="#27AAE1"/>
<ellipse cx="268.559" cy="395.204" rx="1.11341" ry="0.995475" fill="#27AAE1"/>
<ellipse cx="293.054" cy="395.204" rx="1.11341" ry="0.995475" fill="#27AAE1"/>
<ellipse cx="317.549" cy="395.204" rx="1.11341" ry="0.995475" fill="#27AAE1"/>
<ellipse cx="342.044" cy="395.204" rx="1.11341" ry="0.995475" fill="#27AAE1"/>
<ellipse cx="366.539" cy="395.204" rx="1.11341" ry="0.995475" fill="#27AAE1"/>
<ellipse cx="391.035" cy="395.204" rx="1.11341" ry="0.995475" fill="#27AAE1"/>
<ellipse cx="415.53" cy="395.204" rx="1.11341" ry="0.995475" fill="#27AAE1"/>
<ellipse cx="440.025" cy="395.204" rx="1.11341" ry="0.995475" fill="#27AAE1"/>
<ellipse cx="464.52" cy="395.204" rx="1.11341" ry="0.995475" fill="#27AAE1"/>
<ellipse cx="489.015" cy="395.204" rx="1.11341" ry="0.995475" fill="#27AAE1"/>
<ellipse cx="513.51" cy="395.204" rx="1.11341" ry="0.995475" fill="#27AAE1"/>
<ellipse cx="538.005" cy="395.204" rx="1.11341" ry="0.995475" fill="#27AAE1"/>
<ellipse cx="562.5" cy="395.204" rx="1.11341" ry="0.995475" fill="#27AAE1"/>
<ellipse cx="586.995" cy="395.204" rx="1.11341" ry="0.995475" fill="#27AAE1"/>
<ellipse cx="611.49" cy="395.204" rx="1.11341" ry="0.995475" fill="#27AAE1"/>
<ellipse cx="635.985" cy="395.204" rx="1.11341" ry="0.995475" fill="#27AAE1"/>
<ellipse cx="660.48" cy="395.204" rx="1.11341" ry="0.995475" fill="#27AAE1"/>
<ellipse cx="684.975" cy="395.204" rx="1.11341" ry="0.995475" fill="#27AAE1"/>
<ellipse cx="709.47" cy="395.204" rx="1.11341" ry="0.995475" fill="#27AAE1"/>
<ellipse cx="733.965" cy="395.204" rx="1.11341" ry="0.995475" fill="#27AAE1"/>
<ellipse cx="758.461" cy="395.204" rx="1.11341" ry="0.995475" fill="#27AAE1"/>
<ellipse cx="782.956" cy="395.204" rx="1.11341" ry="0.995475" fill="#27AAE1"/>
<ellipse cx="807.451" cy="395.204" rx="1.11341" ry="0.995475" fill="#27AAE1"/>
<ellipse cx="831.946" cy="395.204" rx="1.11341" ry="0.995475" fill="#27AAE1"/>
<ellipse cx="856.441" cy="395.204" rx="1.11341" ry="0.995475" fill="#27AAE1"/>
<ellipse cx="880.936" cy="395.204" rx="1.11341" ry="0.995475" fill="#27AAE1"/>
<ellipse cx="905.431" cy="395.204" rx="1.11341" ry="0.995475" fill="#27AAE1"/>
<ellipse cx="929.926" cy="395.204" rx="1.11341" ry="0.995475" fill="#27AAE1"/>
<ellipse cx="954.421" cy="395.204" rx="1.11341" ry="0.995475" fill="#27AAE1"/>
<ellipse cx="978.916" cy="395.204" rx="1.11341" ry="0.995475" fill="#27AAE1"/>
<ellipse cx="1003.41" cy="395.204" rx="1.11341" ry="0.995475" fill="#27AAE1"/>
<ellipse cx="1027.91" cy="395.204" rx="1.11341" ry="0.995475" fill="#27AAE1"/>
<ellipse cx="1052.4" cy="395.204" rx="1.11341" ry="0.995475" fill="#27AAE1"/>
<ellipse cx="1076.9" cy="395.204" rx="1.11341" ry="0.995475" fill="#27AAE1"/>
<ellipse cx="1101.39" cy="395.204" rx="1.11341" ry="0.995475" fill="#27AAE1"/>
<ellipse cx="1125.89" cy="395.204" rx="1.11341" ry="0.995475" fill="#27AAE1"/>
<ellipse cx="-0.886588" cy="417.104" rx="1.11341" ry="0.995475" fill="#27AAE1"/>
<ellipse cx="23.6085" cy="417.104" rx="1.11341" ry="0.995475" fill="#27AAE1"/>
<ellipse cx="48.1035" cy="417.104" rx="1.11341" ry="0.995475" fill="#27AAE1"/>
<ellipse cx="72.5986" cy="417.104" rx="1.11341" ry="0.995475" fill="#27AAE1"/>
<ellipse cx="97.0936" cy="417.104" rx="1.11341" ry="0.995475" fill="#27AAE1"/>
<ellipse cx="121.589" cy="417.104" rx="1.11341" ry="0.995475" fill="#27AAE1"/>
<ellipse cx="146.084" cy="417.104" rx="1.11341" ry="0.995475" fill="#27AAE1"/>
<ellipse cx="170.579" cy="417.104" rx="1.11341" ry="0.995475" fill="#27AAE1"/>
<ellipse cx="195.074" cy="417.104" rx="1.11341" ry="0.995475" fill="#27AAE1"/>
<ellipse cx="219.569" cy="417.104" rx="1.11341" ry="0.995475" fill="#27AAE1"/>
<ellipse cx="244.064" cy="417.104" rx="1.11341" ry="0.995475" fill="#27AAE1"/>
<ellipse cx="268.559" cy="417.104" rx="1.11341" ry="0.995475" fill="#27AAE1"/>
<ellipse cx="293.054" cy="417.104" rx="1.11341" ry="0.995475" fill="#27AAE1"/>
<ellipse cx="317.549" cy="417.104" rx="1.11341" ry="0.995475" fill="#27AAE1"/>
<ellipse cx="342.044" cy="417.104" rx="1.11341" ry="0.995475" fill="#27AAE1"/>
<ellipse cx="366.539" cy="417.104" rx="1.11341" ry="0.995475" fill="#27AAE1"/>
<ellipse cx="391.035" cy="417.104" rx="1.11341" ry="0.995475" fill="#27AAE1"/>
<ellipse cx="415.53" cy="417.104" rx="1.11341" ry="0.995475" fill="#27AAE1"/>
<ellipse cx="440.025" cy="417.104" rx="1.11341" ry="0.995475" fill="#27AAE1"/>
<ellipse cx="464.52" cy="417.104" rx="1.11341" ry="0.995475" fill="#27AAE1"/>
<ellipse cx="489.015" cy="417.104" rx="1.11341" ry="0.995475" fill="#27AAE1"/>
<ellipse cx="513.51" cy="417.104" rx="1.11341" ry="0.995475" fill="#27AAE1"/>
<ellipse cx="538.005" cy="417.104" rx="1.11341" ry="0.995475" fill="#27AAE1"/>
<ellipse cx="562.5" cy="417.104" rx="1.11341" ry="0.995475" fill="#27AAE1"/>
<ellipse cx="586.995" cy="417.104" rx="1.11341" ry="0.995475" fill="#27AAE1"/>
<ellipse cx="611.49" cy="417.104" rx="1.11341" ry="0.995475" fill="#27AAE1"/>
<ellipse cx="635.985" cy="417.104" rx="1.11341" ry="0.995475" fill="#27AAE1"/>
<ellipse cx="660.48" cy="417.104" rx="1.11341" ry="0.995475" fill="#27AAE1"/>
<ellipse cx="684.975" cy="417.104" rx="1.11341" ry="0.995475" fill="#27AAE1"/>
<ellipse cx="709.47" cy="417.104" rx="1.11341" ry="0.995475" fill="#27AAE1"/>
<ellipse cx="733.965" cy="417.104" rx="1.11341" ry="0.995475" fill="#27AAE1"/>
<ellipse cx="758.461" cy="417.104" rx="1.11341" ry="0.995475" fill="#27AAE1"/>
<ellipse cx="782.956" cy="417.104" rx="1.11341" ry="0.995475" fill="#27AAE1"/>
<ellipse cx="807.451" cy="417.104" rx="1.11341" ry="0.995475" fill="#27AAE1"/>
<ellipse cx="831.946" cy="417.104" rx="1.11341" ry="0.995475" fill="#27AAE1"/>
<ellipse cx="856.441" cy="417.104" rx="1.11341" ry="0.995475" fill="#27AAE1"/>
<ellipse cx="880.936" cy="417.104" rx="1.11341" ry="0.995475" fill="#27AAE1"/>
<ellipse cx="905.431" cy="417.104" rx="1.11341" ry="0.995475" fill="#27AAE1"/>
<ellipse cx="929.926" cy="417.104" rx="1.11341" ry="0.995475" fill="#27AAE1"/>
<ellipse cx="954.421" cy="417.104" rx="1.11341" ry="0.995475" fill="#27AAE1"/>
<ellipse cx="978.916" cy="417.104" rx="1.11341" ry="0.995475" fill="#27AAE1"/>
<ellipse cx="1003.41" cy="417.104" rx="1.11341" ry="0.995475" fill="#27AAE1"/>
<ellipse cx="1027.91" cy="417.104" rx="1.11341" ry="0.995475" fill="#27AAE1"/>
<ellipse cx="1052.4" cy="417.104" rx="1.11341" ry="0.995475" fill="#27AAE1"/>
<ellipse cx="1076.9" cy="417.104" rx="1.11341" ry="0.995475" fill="#27AAE1"/>
<ellipse cx="1101.39" cy="417.104" rx="1.11341" ry="0.995475" fill="#27AAE1"/>
<ellipse cx="1125.89" cy="417.104" rx="1.11341" ry="0.995475" fill="#27AAE1"/>
<ellipse cx="-0.886588" cy="439.005" rx="1.11341" ry="0.995475" fill="#27AAE1"/>
<ellipse cx="23.6085" cy="439.005" rx="1.11341" ry="0.995475" fill="#27AAE1"/>
<ellipse cx="48.1035" cy="439.005" rx="1.11341" ry="0.995475" fill="#27AAE1"/>
<ellipse cx="72.5986" cy="439.005" rx="1.11341" ry="0.995475" fill="#27AAE1"/>
<ellipse cx="97.0936" cy="439.005" rx="1.11341" ry="0.995475" fill="#27AAE1"/>
<ellipse cx="121.589" cy="439.005" rx="1.11341" ry="0.995475" fill="#27AAE1"/>
<ellipse cx="146.084" cy="439.005" rx="1.11341" ry="0.995475" fill="#27AAE1"/>
<ellipse cx="170.579" cy="439.005" rx="1.11341" ry="0.995475" fill="#27AAE1"/>
<ellipse cx="195.074" cy="439.005" rx="1.11341" ry="0.995475" fill="#27AAE1"/>
<ellipse cx="219.569" cy="439.005" rx="1.11341" ry="0.995475" fill="#27AAE1"/>
<ellipse cx="244.064" cy="439.005" rx="1.11341" ry="0.995475" fill="#27AAE1"/>
<ellipse cx="268.559" cy="439.005" rx="1.11341" ry="0.995475" fill="#27AAE1"/>
<ellipse cx="293.054" cy="439.005" rx="1.11341" ry="0.995475" fill="#27AAE1"/>
<ellipse cx="317.549" cy="439.005" rx="1.11341" ry="0.995475" fill="#27AAE1"/>
<ellipse cx="342.044" cy="439.005" rx="1.11341" ry="0.995475" fill="#27AAE1"/>
<ellipse cx="366.539" cy="439.005" rx="1.11341" ry="0.995475" fill="#27AAE1"/>
<ellipse cx="391.035" cy="439.005" rx="1.11341" ry="0.995475" fill="#27AAE1"/>
<ellipse cx="415.53" cy="439.005" rx="1.11341" ry="0.995475" fill="#27AAE1"/>
<ellipse cx="440.025" cy="439.005" rx="1.11341" ry="0.995475" fill="#27AAE1"/>
<ellipse cx="464.52" cy="439.005" rx="1.11341" ry="0.995475" fill="#27AAE1"/>
<ellipse cx="489.015" cy="439.005" rx="1.11341" ry="0.995475" fill="#27AAE1"/>
<ellipse cx="513.51" cy="439.005" rx="1.11341" ry="0.995475" fill="#27AAE1"/>
<ellipse cx="538.005" cy="439.005" rx="1.11341" ry="0.995475" fill="#27AAE1"/>
<ellipse cx="562.5" cy="439.005" rx="1.11341" ry="0.995475" fill="#27AAE1"/>
<ellipse cx="586.995" cy="439.005" rx="1.11341" ry="0.995475" fill="#27AAE1"/>
<ellipse cx="611.49" cy="439.005" rx="1.11341" ry="0.995475" fill="#27AAE1"/>
<ellipse cx="635.985" cy="439.005" rx="1.11341" ry="0.995475" fill="#27AAE1"/>
<ellipse cx="660.48" cy="439.005" rx="1.11341" ry="0.995475" fill="#27AAE1"/>
<ellipse cx="684.975" cy="439.005" rx="1.11341" ry="0.995475" fill="#27AAE1"/>
<ellipse cx="709.47" cy="439.005" rx="1.11341" ry="0.995475" fill="#27AAE1"/>
<ellipse cx="733.965" cy="439.005" rx="1.11341" ry="0.995475" fill="#27AAE1"/>
<ellipse cx="758.461" cy="439.005" rx="1.11341" ry="0.995475" fill="#27AAE1"/>
<ellipse cx="782.956" cy="439.005" rx="1.11341" ry="0.995475" fill="#27AAE1"/>
<ellipse cx="807.451" cy="439.005" rx="1.11341" ry="0.995475" fill="#27AAE1"/>
<ellipse cx="831.946" cy="439.005" rx="1.11341" ry="0.995475" fill="#27AAE1"/>
<ellipse cx="856.441" cy="439.005" rx="1.11341" ry="0.995475" fill="#27AAE1"/>
<ellipse cx="880.936" cy="439.005" rx="1.11341" ry="0.995475" fill="#27AAE1"/>
<ellipse cx="905.431" cy="439.005" rx="1.11341" ry="0.995475" fill="#27AAE1"/>
<ellipse cx="929.926" cy="439.005" rx="1.11341" ry="0.995475" fill="#27AAE1"/>
<ellipse cx="954.421" cy="439.005" rx="1.11341" ry="0.995475" fill="#27AAE1"/>
<ellipse cx="978.916" cy="439.005" rx="1.11341" ry="0.995475" fill="#27AAE1"/>
<ellipse cx="1003.41" cy="439.005" rx="1.11341" ry="0.995475" fill="#27AAE1"/>
<ellipse cx="1027.91" cy="439.005" rx="1.11341" ry="0.995475" fill="#27AAE1"/>
<ellipse cx="1052.4" cy="439.005" rx="1.11341" ry="0.995475" fill="#27AAE1"/>
<ellipse cx="1076.9" cy="439.005" rx="1.11341" ry="0.995475" fill="#27AAE1"/>
<ellipse cx="1101.39" cy="439.005" rx="1.11341" ry="0.995475" fill="#27AAE1"/>
<ellipse cx="1125.89" cy="439.005" rx="1.11341" ry="0.995475" fill="#27AAE1"/>
</g>
</svg>
