<svg width="88" height="88" viewBox="0 0 88 88" fill="none" xmlns="http://www.w3.org/2000/svg">
<g clip-path="url(#clip0_41634_15132)" filter="url(#filter0_d_41634_15132)">
<path d="M78.3936 12.887C77.9908 11.6235 77.2724 10.6342 76.3782 9.92493C75.8252 9.48669 75.5121 8.81287 75.5121 8.1073V2.34375C75.5121 1.69678 74.9878 1.17188 74.3402 1.17188H71.9965C71.3495 1.17188 70.8246 1.69678 70.8246 2.34375V7.23206C70.8246 8.09753 70.351 8.89832 69.5838 9.29871C68.479 9.87549 67.5238 10.8081 66.9025 12.1094C64.2829 17.5958 59.6338 28.9551 50.0849 38.4857C40.5542 48.0347 29.195 52.6837 23.7085 55.3033C18.6829 57.7026 19.1266 65.0867 24.4861 66.7944C27.6166 67.7917 31.0938 68.2697 34.7339 68.2037C45.3553 68.0121 56.5265 62.0551 65.0904 53.4912C73.6548 44.9274 79.6112 33.7561 79.8035 23.1348C79.8688 19.4946 79.3909 16.0175 78.3936 12.887Z" fill="#FFCF5D"/>
<path d="M73.4656 13.5974C73.6774 13.7653 73.8287 13.9984 73.9276 14.3103C74.7736 16.9659 75.1739 19.906 75.1172 23.0505C74.9579 31.842 69.9707 41.9824 61.7767 50.177C53.5822 58.3716 43.4412 63.3588 34.6497 63.5175C32.1655 63.5626 30.1691 65.5322 30.0537 67.9791C31.5723 68.1573 33.1378 68.233 34.7345 68.2043C45.3558 68.0121 56.5271 62.0557 65.0909 53.4918C73.6554 44.9274 79.6118 33.7561 79.8041 23.1348C79.8694 19.4946 79.3915 16.0175 78.3942 12.887C77.9913 11.6235 77.2729 10.6342 76.3788 9.92493C75.8258 9.48669 75.5127 8.81287 75.5127 8.1073V2.34375C75.5127 1.69678 74.9884 1.17188 74.3408 1.17188H71.9971C71.3501 1.17188 70.8252 1.69678 70.8252 2.34375V8.1073C70.8252 10.2655 71.7877 12.2662 73.4656 13.5974Z" fill="#FFB545"/>
<path d="M18.9386 35.5109L14.997 33.0152C14.0057 32.3871 12.76 33.3222 13.103 34.4367L14.2597 38.1934C15.1215 40.9937 16.9061 43.4278 19.328 45.1081L23.2007 47.6563C23.2013 43.0933 23.0243 38.0982 18.9386 35.5109Z" fill="#28D05B"/>
<path d="M29.6829 45.9552C27.4106 45.8722 25.209 46.4636 23.2004 47.5842C21.1929 46.4642 18.9908 45.8716 16.7184 45.9552C11.9669 46.1578 8.54949 48.706 6.72698 51.9867C4.89776 55.3216 4.664 59.3896 6.12274 63.8782C8.35357 70.7226 14.274 76.8542 19.8984 77.1753C20.4507 77.2131 20.9909 77.2015 21.5164 77.146C22.6285 77.0288 23.7729 77.0288 24.8849 77.146C25.4105 77.2015 25.9506 77.2131 26.503 77.1753C32.1268 76.8542 38.0478 70.7226 40.2786 63.8782C41.7374 59.3896 41.503 55.3216 39.6744 51.9867C37.8519 48.706 34.4345 46.1578 29.6829 45.9552Z" fill="#FF5368"/>
<path d="M39.6743 51.9867C38.7826 50.3809 37.5076 48.9514 35.8816 47.8864C36.0519 48.1433 36.2124 48.4058 36.3613 48.6737C38.1906 52.0087 38.4249 56.0761 36.9656 60.5652C35.4678 65.1611 32.3062 69.4354 28.688 71.8451C26.6897 73.1757 24.3319 73.8623 21.9308 73.8623H12.7041C14.9386 75.7892 17.4465 77.0355 19.8983 77.1753C20.4507 77.2131 20.9908 77.2016 21.517 77.146C22.637 77.027 23.7667 77.0282 24.8867 77.146C25.4116 77.2016 25.9512 77.2125 26.5035 77.1753C32.1273 76.8543 38.0483 70.7227 40.2792 63.8782C41.7379 59.3897 41.5035 55.3217 39.6743 51.9867Z" fill="#D9435B"/>
<path d="M71.8671 48.2031C71.3745 46.1426 69.5215 44.6094 67.3096 44.6094C65.097 44.6094 63.2446 46.1426 62.7515 48.2031C56.3458 50.1538 51.6846 56.1084 51.6846 63.1519C51.6846 71.7816 58.6798 78.7769 67.3096 78.7769C75.9387 78.7769 82.9346 71.7816 82.9346 63.1519C82.9346 56.1084 78.2733 50.1538 71.8671 48.2031Z" fill="#FF983B"/>
<path d="M76.577 50.5719C78.4905 53.1647 79.6215 56.3696 79.6215 59.8395C79.6215 68.4686 72.6262 75.4639 63.9965 75.4639C60.5272 75.4639 57.3223 74.3329 54.7295 72.4194C57.575 76.2756 62.1501 78.7769 67.3101 78.7769C75.9392 78.7769 82.9351 71.7816 82.9351 63.1519C82.9351 57.9926 80.4332 53.4174 76.577 50.5719Z" fill="#FF7E40"/>
<path d="M76.2354 48.7672L75.0787 45.0105C74.2169 42.2102 72.4329 39.7755 70.0104 38.0958L68.4814 37.0893C67.4756 36.4277 66.1377 37.1491 66.1377 38.3527V40.0178C66.1377 43.1513 67.6361 45.9431 70.3998 47.693L74.3414 50.1893C75.3326 50.8161 76.579 49.8817 76.2354 48.7672Z" fill="#28D05B"/>
<path d="M56.5035 19.7382C56.2399 19.1529 55.5337 18.91 54.941 19.1553L54.2843 19.4275L54.7872 18.9246C55.2407 18.4705 55.2871 17.7253 54.847 17.2583C54.3917 16.7756 53.6306 16.7664 53.1643 17.2327L52.6272 17.7698L52.9177 17.0679C53.1655 16.4698 52.8817 15.7843 52.2836 15.5365C51.6854 15.2881 51 15.5732 50.7522 16.1713L50.1162 17.7076C49.9648 18.0726 50.0124 18.4595 50.1974 18.7635C50.5105 19.2798 50.4604 19.936 50.0338 20.3632C49.5803 20.8167 49.5345 21.5619 49.9746 22.0289C50.4305 22.5123 51.191 22.5202 51.6567 22.0545L51.6793 22.0319C52.1121 21.5992 52.7749 21.5522 53.3016 21.8634C53.605 22.0429 53.9877 22.0868 54.3472 21.9379L55.8834 21.3019C56.4925 21.0498 56.7757 20.3437 56.5035 19.7382Z" fill="#28D05B"/>
<path d="M53.2525 20.459C52.3968 20.2295 51.5063 20.5017 50.921 21.1365L47.0758 19.9365L44.2309 22.923L43.0231 27.428C43.0096 27.4243 42.9962 27.4194 42.9822 27.4158C41.7322 27.0795 40.4468 27.821 40.1111 29.071C39.7754 30.321 40.5163 31.607 41.7663 31.9427C43.0169 32.2784 44.3023 31.5369 44.638 30.2869C44.7345 29.9268 44.7497 29.5569 44.6716 29.1937C44.9109 29.917 45.5041 30.5176 46.2958 30.73C47.5464 31.0651 48.8312 30.3229 49.1662 29.0729C49.2694 28.689 49.2737 28.2861 49.1778 27.901C49.284 28.2696 49.4824 28.6169 49.7729 28.9075C50.6878 29.823 52.1722 29.823 53.0871 28.9075C54.0027 27.9919 54.0027 26.5082 53.0871 25.5933C52.7984 25.3046 52.445 25.1013 52.066 24.9945C53.3081 25.3119 54.577 24.5709 54.9096 23.3295C55.2447 22.0795 54.5031 20.7941 53.2525 20.459Z" fill="#D9435B"/>
<path d="M49.9377 17.1466C48.1946 16.6803 46.6034 18.2807 47.0673 20.0165C46.7963 19.0003 45.8722 18.2801 44.8035 18.2801C44.2041 18.2801 43.6041 18.5089 43.1464 18.9667C42.2308 19.8822 42.2308 21.366 43.1464 22.2809C43.4625 22.5977 43.8452 22.8052 44.2505 22.9029C42.9742 22.5287 41.6632 23.2868 41.3263 24.5465C40.9918 25.7971 41.734 27.0819 42.9846 27.4164C44.2352 27.7509 45.52 27.0081 45.8545 25.7581C45.9607 25.3607 45.9607 24.9433 45.8545 24.5465C46.1194 25.5182 47.002 26.2824 48.1183 26.2824C48.1219 26.2824 48.1256 26.2818 48.1293 26.2818C50.1904 26.2726 51.2524 23.758 49.7754 22.2815C49.4714 21.977 49.1119 21.7786 48.7353 21.6767C49.9829 22.005 51.2622 21.2635 51.5961 20.0159C51.9305 18.7659 51.1877 17.4811 49.9377 17.1466Z" fill="#FF5368"/>
<path d="M50.1221 4.32312C49.8743 3.72559 49.1889 3.44177 48.5907 3.68897L47.8882 3.9801L48.4259 3.44238C48.8837 2.98462 48.8837 2.24304 48.4259 1.78528C47.9681 1.32751 47.2266 1.32751 46.7688 1.78528L46.2311 2.323L46.5222 1.62048C46.77 1.02295 46.4862 0.336914 45.8881 0.0897219C45.2905 -0.158081 44.6045 0.125733 44.3567 0.723877L43.7207 2.26013L47.9517 6.49048L49.4879 5.85449C50.0861 5.60669 50.3699 4.92126 50.1221 4.32312Z" fill="#28D05B"/>
<path d="M37.8826 3.49056C40.3234 1.04976 43.9489 1.38118 46.3897 3.82198C48.8305 6.26278 49.1619 9.88888 46.7211 12.3297C44.2803 14.7705 37.7819 17.3114 35.3411 14.8706C32.9003 12.4298 35.4418 5.93135 37.8826 3.49056Z" fill="#FF5368"/>
<path d="M46.3899 3.82202C45.804 3.23608 45.1491 2.77344 44.4594 2.43958C45.5159 4.6228 45.2632 7.16187 43.4083 9.01672C41.5535 10.8716 37.3567 12.7814 34.377 12.522C34.4594 13.4637 34.7554 14.2847 35.3413 14.8706C37.7821 17.3114 44.2805 14.7705 46.7213 12.3297C49.1621 9.88892 48.8307 6.26282 46.3899 3.82202Z" fill="#D9435B"/>
<path d="M34 24.024C34 28.3392 30.5021 31.8365 26.1875 31.8365C21.8729 31.8365 18.375 28.3392 18.375 24.024C18.375 19.7095 21.8729 16.2115 26.1875 16.2115C30.5021 16.2115 34 19.7095 34 24.024Z" fill="#5C87BD"/>
<path d="M29.8013 17.0978C30.3665 18.1787 30.6875 19.4073 30.6875 20.7111C30.6875 25.0262 27.1896 28.5236 22.875 28.5236C21.5707 28.5236 20.3427 28.2025 19.2617 27.6373C20.566 30.1324 23.1771 31.8365 26.188 31.8365C30.5026 31.8365 34.0005 28.3392 34.0005 24.024C34.0005 21.0132 32.2964 18.4021 29.8013 17.0978Z" fill="#456EA2"/>
<path d="M77.296 49.751C77.3998 49.3347 77.3919 48.8885 77.2582 48.4534L76.1028 44.6948C75.169 41.6559 73.211 38.9789 70.5895 37.1564C70.5816 37.1509 70.5736 37.146 70.5657 37.1405L69.0386 36.1334C67.2582 34.9597 64.8839 36.2421 64.8839 38.3771V40.0433C64.8839 41.3318 65.1128 42.5665 65.5462 43.7091C63.7945 44.2303 62.3705 45.5511 61.7309 47.309C58.6053 48.3972 55.8111 50.4346 53.8116 53.0975C51.6918 55.9204 50.5382 59.2657 50.4571 62.7942C47.1325 64.4885 43.8079 65.6915 40.5388 66.3837C43.1487 60.415 43.2049 53.5938 38.7554 48.8477C40.6536 47.6636 42.4627 46.427 44.146 45.1575C46.5648 43.3344 48.8195 41.377 50.8495 39.3396C58.6272 31.5576 63.1017 22.9108 66.9585 14.5831C67.8838 12.5848 68.3123 11.2512 70.0377 10.3448C71.1895 9.73938 71.9054 8.5498 71.9054 7.23633V2.34558H74.2461V8.11218C74.2461 9.19067 74.724 10.1886 75.5541 10.8496C76.317 11.4594 76.8651 12.2675 77.1801 13.2513C79.771 21.4081 78.499 30.0171 74.8473 37.7545C74.4829 38.5217 75.0384 39.4275 75.9038 39.4275C76.3543 39.4275 76.7699 39.1644 76.9616 38.7579L76.9634 38.7567C78.1774 36.1829 79.1247 33.5828 79.7765 31.0266C81.4049 24.6533 81.1846 18.1299 79.4097 12.5397C78.9605 11.12 78.1304 9.90051 77.0086 9.01245C76.7443 8.80432 76.5868 8.4668 76.5868 8.11218V2.34558C76.5868 1.05286 75.537 0.000610352 74.2461 0.000610352H71.9054C70.6151 0.00183106 69.5659 1.05286 69.5647 2.34558V7.23633C69.5647 7.66907 69.3242 8.07251 68.9544 8.26477C66.5136 9.53857 65.8501 11.4069 64.8363 13.5919C61.7699 20.2161 57.3211 29.5551 49.1955 37.6807C45.6853 41.203 41.6601 44.3323 36.9109 47.2314C34.8772 45.7745 32.4065 44.9286 29.6886 44.8126C28.1664 44.7565 26.6643 44.9701 25.1971 45.448C27.3833 41.1267 30.6219 38.1378 34.8607 36.5411C36.1437 37.8278 37.6732 36.0425 36.6179 34.9854L35.9942 34.3597C35.6804 34.046 35.2172 33.9362 34.796 34.0765C30.3033 35.5774 26.6772 38.4943 24.1106 42.6245C23.7066 39.5508 22.597 36.4813 19.5409 34.5428L15.6048 32.0453C14.7307 31.4911 13.6352 31.5393 12.813 32.1692C11.9994 32.7917 11.668 33.8257 11.9683 34.8035L13.1237 38.5626C13.8561 40.946 15.2209 43.1049 17.0397 44.8053C12.4621 44.8322 8.09744 47.1204 5.69327 51.4563C3.70047 55.0964 3.46182 59.5312 5.00296 64.2822C6.16018 67.8387 8.25491 71.2384 10.902 73.8544C13.6938 76.6138 16.8566 78.2263 19.7942 78.3948C20.404 78.4363 21.0168 78.4247 21.6125 78.3618C22.647 78.252 23.6968 78.252 24.7307 78.3612C25.0951 78.4003 25.4638 78.4192 25.8312 78.4192C26.0674 78.4192 26.3036 78.4113 26.5368 78.3954C29.5025 78.2257 32.6781 76.5997 35.4772 73.8159C36.8944 72.4066 38.1505 70.7733 39.1894 69.0161C42.9442 68.4229 46.7681 67.1924 50.5865 65.3473C51.6454 73.6011 58.7029 80 67.224 80C76.4745 80 83.9995 72.4603 83.9995 63.1927C84.0001 57.8693 81.513 52.9218 77.296 49.751ZM15.3606 37.8723L14.2058 34.1132C14.1967 34.0845 14.1912 34.0656 14.2345 34.032C14.3285 33.9606 14.041 33.8287 18.2891 36.524V36.5247C21.1883 38.3636 21.8389 41.6205 21.9707 45.4913L19.9596 44.165C17.7727 42.6416 16.1394 40.4071 15.3606 37.8723ZM39.1155 63.5553C37.0873 69.79 31.6015 75.7562 26.3909 76.0547C25.9173 76.087 25.4418 76.0785 24.9773 76.0297C24.3786 75.9656 23.7755 75.9344 23.1725 75.9344C22.5689 75.9344 21.9658 75.9662 21.3665 76.0297C20.9038 76.0785 20.4284 76.087 19.9407 76.0541C17.5585 75.9174 14.9328 74.5435 12.5457 72.1851C10.1604 69.8273 8.272 66.7627 7.22891 63.5565C5.89285 59.4366 6.07168 55.6427 7.74283 52.5897C9.56472 49.303 12.8466 47.323 16.7406 47.1564C18.5424 47.0905 20.3222 47.4908 22.0403 48.3447L22.5286 48.6664C22.9851 48.9673 23.6162 48.9233 24.0246 48.4869C25.8288 47.5354 27.7056 47.0886 29.5965 47.1564C36.8816 47.4677 42.1557 54.184 39.1155 63.5553ZM67.2246 38.3771C67.2246 38.1055 67.5225 37.9419 67.752 38.0927C69.1588 39.0204 70.9563 40.0201 72.5396 42.5165C72.5744 42.8406 72.7416 43.1458 73.0205 43.3466C73.3635 43.9972 73.6492 44.6783 73.8659 45.3845L75.0213 49.1431C75.0298 49.1718 75.0359 49.1913 74.992 49.2242C74.9346 49.2682 74.8998 49.2462 74.8742 49.2303L70.9374 46.7322C66.9311 44.1907 67.2246 40.495 67.2246 38.3771ZM67.2246 77.655C59.2657 77.655 52.7898 71.167 52.7898 63.1927C52.7898 57.3627 56.1883 52.2369 61.4031 49.953C61.4922 50.7959 61.765 51.6144 62.2143 52.359C62.434 52.7234 62.8209 52.9248 63.2171 52.9248C63.4234 52.9248 63.6321 52.8699 63.8213 52.7557C64.3743 52.4207 64.5519 51.6992 64.2174 51.145C63.7389 50.3522 63.5943 49.4153 63.8109 48.5071C64.0948 47.3169 64.9547 46.3965 66.054 46.0095V49.2798C66.054 49.9213 66.5484 50.4816 67.1886 50.5005C67.8515 50.5206 68.3953 49.9884 68.3953 49.3286V47.7563C69.1277 48.3887 69.6331 48.681 70.7323 49.3787C70.7238 49.9994 70.5535 50.6128 70.2318 51.145C69.8974 51.6992 70.0744 52.4207 70.628 52.7557C70.8172 52.8699 71.0259 52.9248 71.2322 52.9248C71.6283 52.9248 72.0147 52.7234 72.235 52.359C72.5371 51.8591 72.7599 51.3165 72.9003 50.7538L73.6217 51.2115C74.027 51.4691 74.4799 51.5961 74.9309 51.5961C75.1848 51.5961 75.4381 51.5552 75.6829 51.4746C79.4372 54.1962 81.6594 58.526 81.6594 63.1927C81.6594 71.167 75.1842 77.655 67.2246 77.655Z" fill="#1A1A1A"/>
<path d="M26.1554 33.0298C31.1029 33.0298 35.1282 28.9972 35.1282 24.0399C35.1282 19.0826 31.1029 15.0494 26.1554 15.0494C21.2073 15.0494 17.1826 19.0826 17.1826 24.0399C17.1826 28.9972 21.2073 33.0298 26.1554 33.0298ZM26.1554 17.395C29.812 17.395 32.7875 20.376 32.7875 24.0399C32.7875 27.7039 29.812 30.6848 26.1554 30.6848C22.4982 30.6848 19.5233 27.7039 19.5233 24.0399C19.5233 20.376 22.4982 17.395 26.1554 17.395Z" fill="#1A1A1A"/>
<path d="M23.8038 23.3057C24.0321 23.5346 24.3318 23.6487 24.6314 23.6487C24.9305 23.6487 25.2302 23.5346 25.4591 23.3057L25.8015 22.9621L26.1445 23.3057C26.3728 23.5346 26.6725 23.6487 26.9721 23.6487C27.2718 23.6487 27.5709 23.5346 27.7998 23.3057C28.2569 22.8474 28.2569 22.1052 27.7998 21.6474L27.4568 21.3038L27.7998 20.9601C28.2569 20.5024 28.2569 19.7596 27.7998 19.3018C27.3426 18.8441 26.6017 18.8441 26.1445 19.3018L25.8015 19.6454L25.4591 19.3018C25.0019 18.8441 24.261 18.8441 23.8038 19.3018C23.3466 19.7596 23.3466 20.5024 23.8038 20.9601L24.1462 21.3038L23.8038 21.6474C23.3466 22.1052 23.3466 22.8474 23.8038 23.3057Z" fill="#1A1A1A"/>
<path d="M47.4902 13.1665C49.4445 11.2079 49.9633 8.48511 49.082 6.00098L49.4262 5.85815C50.0231 5.61035 50.3069 4.92493 50.0591 4.32617C49.812 3.72803 49.1271 3.44421 48.5302 3.69202L47.9644 3.92639C47.9528 3.91113 47.9424 3.89587 47.9308 3.88062L48.3654 3.44482C48.8226 2.98706 48.8226 2.24426 48.3654 1.7865C47.9083 1.32874 47.1673 1.32874 46.7101 1.7865L46.2744 2.22351C46.2591 2.21191 46.2444 2.20093 46.2292 2.18994L46.4642 1.6217C46.7114 1.02356 46.4282 0.337525 45.8306 0.0897219C45.2343 -0.158081 44.5489 0.125733 44.3017 0.723877L44.1601 1.06751C41.6601 0.171509 38.9617 0.705567 37.0074 2.66357C34.2748 5.40161 31.3897 12.6233 34.4695 15.7092C37.5677 18.8141 44.79 15.8722 47.4902 13.1665ZM35.8636 9.50745C36.4282 7.5177 37.553 5.43396 38.6627 4.32251C40.6475 2.33337 43.5345 2.68066 45.5035 4.65393C47.5817 6.73584 47.7209 9.61853 45.8349 11.5082C44.7253 12.6202 42.6452 13.7469 40.6597 14.3127C38.576 14.906 36.8804 14.809 36.1242 14.0509C35.3686 13.2941 35.2709 11.5955 35.8636 9.50745Z" fill="#1A1A1A"/>
<path d="M42.1866 9.63568C42.6438 9.17792 42.6438 8.43512 42.1866 7.97736C41.7295 7.51959 40.9885 7.51959 40.5313 7.97736C40.0742 8.43512 40.0742 9.17792 40.5313 9.63568C40.9885 10.0934 41.7295 10.0934 42.1866 9.63568Z" fill="#1A1A1A"/>
<path d="M38.8766 12.9523C39.3337 12.4946 39.3337 11.7518 38.8766 11.294C38.4194 10.8362 37.6785 10.8362 37.2213 11.294C36.7648 11.7518 36.7648 12.4946 37.2213 12.9523C37.6785 13.4107 38.4194 13.4107 38.8766 12.9523Z" fill="#1A1A1A"/>
<path d="M38.8766 9.63568C39.3337 9.17792 39.3337 8.43512 38.8766 7.97736C38.4194 7.51959 37.6785 7.51959 37.2213 7.97736C36.7648 8.43512 36.7648 9.17792 37.2213 9.63568C37.6785 10.0934 38.4194 10.0934 38.8766 9.63568Z" fill="#1A1A1A"/>
<path d="M42.1866 12.9523C42.6438 12.4946 42.6438 11.7518 42.1866 11.294C41.7295 10.8362 40.9885 10.8362 40.5313 11.294C40.0742 11.7518 40.0742 12.4946 40.5313 12.9523C40.9885 13.4107 41.7295 13.4107 42.1866 12.9523Z" fill="#1A1A1A"/>
<path d="M45.4966 9.63568C45.9537 9.17792 45.9537 8.43512 45.4966 7.97736C45.04 7.51959 44.2984 7.51959 43.8419 7.97736C43.3847 8.43512 43.3847 9.17792 43.8419 9.63568C44.2984 10.0934 45.04 10.0934 45.4966 9.63568Z" fill="#1A1A1A"/>
<path d="M42.1866 6.31903C42.6438 5.86127 42.6438 5.11847 42.1866 4.66071C41.7295 4.20294 40.9885 4.20294 40.5313 4.66071C40.0742 5.11908 40.0742 5.86127 40.5313 6.31903C40.9885 6.77679 41.7295 6.77679 42.1866 6.31903Z" fill="#1A1A1A"/>
<path d="M47.4646 16.3995C47.0069 16.6742 46.6193 17.049 46.33 17.4866C45.047 16.8469 43.4076 17.0056 42.2657 18.15C41.1402 19.2773 40.9601 20.9167 41.6144 22.2229C40.9021 22.6892 40.3717 23.407 40.1441 24.259C39.9189 25.1038 40.0147 25.979 40.4053 26.7523C39.5929 27.2827 39.032 28.1311 38.8629 29.0924C38.5419 30.9137 39.7003 32.6819 41.4991 33.1183C42.995 33.4808 44.4684 32.8339 45.2643 31.626C46.2885 32.1436 47.5598 32.1564 48.6426 31.5057C49.1034 31.2286 49.4928 30.8502 49.7833 30.4071C51.0608 31.0486 52.7002 30.9064 53.8489 29.7559C54.9677 28.6346 55.1544 26.9977 54.5008 25.6873C55.2509 25.1984 55.7947 24.433 56.0034 23.5187C56.1756 22.7649 56.0822 21.9989 55.7849 21.3257C56.3721 21.0999 56.6791 20.4468 56.471 19.8474C56.2586 19.2352 55.5915 18.913 54.9805 19.1248L54.2908 19.3652L54.7528 18.9026C55.21 18.4448 55.21 17.702 54.7528 17.2443C54.2957 16.7865 53.5547 16.7865 53.0976 17.2443L52.6355 17.7069L52.8754 17.016C53.0878 16.4044 52.7655 15.7361 52.1546 15.5231C51.5595 15.3162 50.9107 15.6189 50.6824 16.2018C49.682 15.7617 48.4864 15.7867 47.4646 16.3995ZM50.401 19.726C50.3778 19.812 50.3662 19.8987 50.3626 19.9841L49.9372 20.4108C48.8727 21.4771 50.4267 23.2367 51.6846 21.9763C52.0905 21.568 52.5287 21.4832 52.956 21.6272C54.0399 21.9922 54.007 23.6108 52.8424 23.8818C51.6889 24.1498 51.3031 25.5957 52.1668 26.4093C52.3963 26.6254 52.5312 26.936 52.536 27.2601C52.5513 28.2996 51.2512 28.8641 50.506 28.0688C49.7028 27.2095 48.2538 27.5983 47.9883 28.7463C47.7814 29.6374 46.648 29.9896 45.9888 29.2847C45.1837 28.4235 43.7384 28.8141 43.4699 29.967C43.3344 30.5487 42.7271 31.0034 42.0496 30.8386C41.0645 30.6 40.8094 29.2609 41.7023 28.703C42.1979 28.3936 42.6215 28.5791 42.7954 28.6053C44.2377 28.9166 45.6494 28.2623 46.4038 27.0508C46.5082 27.1069 46.6168 27.1582 46.7285 27.2046C49.1925 28.2202 51.8604 26.1066 50.5408 24.7839C50.0836 24.3262 49.3427 24.3262 48.8855 24.7839C48.1696 25.5011 46.9892 25.0079 46.8946 24.093C46.8134 22.2125 44.4953 22.5183 44.5471 23.9923C44.5587 24.9756 44.7815 25.5927 44.1663 26.0968C43.8819 26.33 43.5034 26.3885 43.2526 26.3043C42.9761 26.3043 42.171 25.7428 42.4054 24.8651C42.5171 24.4458 42.8498 24.1241 43.2727 24.0247C44.4214 23.7555 44.8126 22.3059 43.9496 21.499C43.7183 21.283 43.5822 20.9723 43.5767 20.647C43.559 19.6033 44.8761 19.0436 45.6055 19.8218C46.4087 20.6793 47.8528 20.2924 48.1214 19.1467C48.1928 18.8446 48.3911 18.5773 48.6658 18.4125C49.5471 17.8839 50.6763 18.6957 50.401 19.726Z" fill="#1A1A1A"/>
<path d="M61.1377 55.3906C61.1377 56.0382 60.6128 56.5625 59.9658 56.5625C59.3182 56.5625 58.7939 56.0382 58.7939 55.3906C58.7939 54.7437 59.3182 54.2188 59.9658 54.2188C60.6128 54.2188 61.1377 54.7437 61.1377 55.3906Z" fill="#1A1A1A"/>
<path d="M64.2627 59.7662C64.2627 60.4132 63.7378 60.9381 63.0908 60.9381C62.4438 60.9381 61.9189 60.4132 61.9189 59.7662C61.9189 59.1187 62.4438 58.5944 63.0908 58.5944C63.7378 58.5944 64.2627 59.1187 64.2627 59.7662Z" fill="#1A1A1A"/>
<path d="M58.0127 63.2037C58.0127 63.8507 57.4884 64.3756 56.8408 64.3756C56.1938 64.3756 55.6689 63.8507 55.6689 63.2037C55.6689 62.5568 56.1938 62.0319 56.8408 62.0319C57.4884 62.0319 58.0127 62.5568 58.0127 63.2037Z" fill="#1A1A1A"/>
</g>
<defs>
<filter id="filter0_d_41634_15132" x="0" y="0" width="88" height="88" filterUnits="userSpaceOnUse" color-interpolation-filters="sRGB">
<feFlood flood-opacity="0" result="BackgroundImageFix"/>
<feColorMatrix in="SourceAlpha" type="matrix" values="0 0 0 0 0 0 0 0 0 0 0 0 0 0 0 0 0 0 127 0" result="hardAlpha"/>
<feOffset dy="4"/>
<feGaussianBlur stdDeviation="2"/>
<feComposite in2="hardAlpha" operator="out"/>
<feColorMatrix type="matrix" values="0 0 0 0 0 0 0 0 0 0 0 0 0 0 0 0 0 0 0.25 0"/>
<feBlend mode="normal" in2="BackgroundImageFix" result="effect1_dropShadow_41634_15132"/>
<feBlend mode="normal" in="SourceGraphic" in2="effect1_dropShadow_41634_15132" result="shape"/>
</filter>
<clipPath id="clip0_41634_15132">
<rect width="80" height="80" fill="white" transform="translate(4)"/>
</clipPath>
</defs>
</svg>
