<?xml version="1.0" encoding="UTF-8"?>
<svg id="ukrainian" xmlns="http://www.w3.org/2000/svg" viewBox="0 0 232.69 71.58">
  <defs>
    <style>
      .cls-1 {
        fill: #1a3948;
      }

      .cls-1, .cls-2 {
        stroke-width: 0px;
      }

      .cls-2 {
        fill: #fa5420;
      }
    </style>
  </defs>
  <g id="Ukrainian_RGB">
    <path class="cls-1" d="m54.49,39.53h-4.13v-16.76h6.06c1.35,0,3.08.16,4.5,1.39,1.13.97,1.68,2.32,1.68,4.1,0,1.64-.5,2.97-1.48,3.97-1.33,1.33-3.04,1.5-4.38,1.5h-2.25v5.79Zm0-9.16h1.27c.42,0,1.39,0,2.01-.59.38-.37.59-.93.59-1.55s-.22-1.17-.59-1.52c-.55-.52-1.37-.59-2.09-.59h-1.19v4.24Zm14.48,9.53c-1.83,0-3.16-.53-4.31-1.72-1.11-1.16-1.68-2.58-1.68-4.22,0-1.78.65-3.43,1.78-4.54,1.02-1,2.44-1.55,4-1.55,1.02,0,2.4.25,3.42,1.39v-1.02h3.88v11.28h-3.88v-1.08c-.77.97-1.85,1.46-3.21,1.46Zm.71-8.71c-.71,0-1.43.28-1.91.76-.36.36-.8.98-.8,1.92s.39,1.55.72,1.9c.5.52,1.27.83,2.06.83.67,0,1.33-.27,1.81-.73.39-.36.85-1,.85-1.99,0-.76-.29-1.47-.79-1.94-.58-.54-1.38-.73-1.94-.73Zm22.25,11.46h-3.48v-3.12h-7.46v3.12h-3.48v-6.07h.11c.56-.07,1.05-.29,1.47-.67.87-.79.95-1.94.95-3.25v-4.4h10.22v8.32h1.67v6.09Zm-9.39-6.09h3.84v-5.35h-2.76v1.98c0,1.12-.15,1.71-.26,2.07-.11.33-.33.8-.82,1.3Zm14.72,2.97h-3.88v-11.28h3.88v11.28Zm-1.94-13.66c-1.26,0-2.24-.97-2.24-2.2s.99-2.2,2.24-2.2,2.24.97,2.24,2.2-.99,2.2-2.24,2.2Zm10.08,14.04c-2.01,0-3.83-.66-5.01-1.82-1.08-1.06-1.73-2.63-1.73-4.2s.65-3.13,1.73-4.2c1.18-1.16,3.01-1.82,5.01-1.82s3.83.66,5.01,1.82c1.08,1.06,1.73,2.63,1.73,4.2s-.65,3.14-1.73,4.2c-1.18,1.16-3.01,1.82-5.01,1.82Zm0-8.76c-.79,0-1.45.26-1.96.76-.54.53-.8,1.18-.8,1.99s.26,1.47.8,1.99c.51.5,1.18.76,1.99.76s1.42-.26,1.94-.76c.54-.53.8-1.18.8-1.99s-.26-1.47-.8-1.99c-.51-.5-1.17-.76-1.96-.76Zm-47.44,35.24c-2.77,0-5.02-.82-6.7-2.44-1.72-1.63-2.67-3.88-2.67-6.35s.97-4.7,2.67-6.3c1.64-1.55,3.91-2.41,6.37-2.41,1.28,0,2.62.3,4.09.93l.07.03v4.79l-.21-.22c-1.1-1.14-2.4-1.72-3.85-1.72-1.35,0-2.48.42-3.35,1.25-.99.94-1.55,2.3-1.55,3.72,0,1.91.89,3.05,1.43,3.55.42.41,1.59,1.35,3.55,1.35,1.38,0,2.61-.55,3.78-1.67l.21-.2v4.74l-.07.03c-1.61.8-2.86.9-3.77.9Zm12.58-.37h-6.99v-11.28h6.16c.69,0,1.99,0,2.88.75.63.54.95,1.29.95,2.25,0,.81-.22,1.38-.72,1.87-.17.19-.39.35-.64.48.51.15,1,.42,1.34.73.51.5.77,1.17.77,1.97,0,.89-.3,1.66-.87,2.22-.48.47-1.37,1.02-2.89,1.02Zm-3.11-2.62h1.52c.3,0,.71,0,1-.27.2-.17.31-.46.31-.78,0-.34-.17-.56-.31-.67-.32-.27-.85-.27-1.16-.27h-1.37v1.98Zm0-4.26h1.37c.2,0,.57-.03.84-.2.22-.16.32-.38.32-.72,0-.4-.2-.6-.28-.67-.18-.13-.6-.2-.93-.2h-1.32v1.79Zm14.68,7.25c-2.01,0-3.83-.66-5.01-1.82-1.08-1.06-1.73-2.63-1.73-4.2s.65-3.14,1.73-4.2c1.18-1.16,3.01-1.82,5.01-1.82s3.83.66,5.01,1.82c1.08,1.06,1.73,2.63,1.73,4.2s-.65,3.14-1.73,4.2c-1.18,1.16-3.01,1.82-5.01,1.82Zm0-8.76c-.79,0-1.45.26-1.96.76-.54.53-.8,1.18-.8,1.99s.26,1.47.8,1.99c.51.5,1.18.76,1.99.76s1.42-.26,1.94-.76c.54-.53.8-1.18.8-1.99s-.26-1.47-.8-1.99c-.51-.5-1.17-.76-1.96-.76Zm14.8,8.76c-2.02,0-3.53-.53-4.73-1.67-2.03-1.96-2.03-4.84-2.03-5.78,0-1.93.29-5.48,2.26-7.54,1.33-1.38,3-1.75,4.1-1.99l.9-.2c1-.22,1.72-.37,2.09-.78.2-.22.25-.46.25-.61v-.12h3.44v.13c-.12,1.12-.66,2.29-1.39,2.97-.57.56-1.48,1-2.78,1.37l-1.52.42c-.95.26-2.03.55-2.75,1.19-.57.51-.97,1.25-1.09,2.04.96-.96,2.22-1.43,3.84-1.43,1.8,0,3.38.57,4.46,1.59,1.08,1.03,1.71,2.55,1.71,4.15,0,1.77-.66,3.37-1.86,4.52-1.6,1.54-3.45,1.74-4.88,1.74Zm-.03-8.74c-1.01,0-1.65.47-1.94.76-.51.51-.82,1.25-.82,1.99s.29,1.42.8,1.92c.29.28.93.76,2.01.76.68,0,1.29-.23,1.81-.69.57-.51.92-1.29.92-2.09,0-.68-.28-1.34-.8-1.87-.53-.52-1.2-.78-1.98-.78Zm14.8,8.74c-2.01,0-3.83-.66-5.01-1.82-1.08-1.06-1.73-2.63-1.73-4.2s.65-3.13,1.73-4.2c1.18-1.16,3.01-1.82,5.01-1.82s3.83.66,5.01,1.82c1.08,1.06,1.73,2.63,1.73,4.2s-.65,3.14-1.73,4.2c-1.18,1.16-3.01,1.82-5.01,1.82Zm0-8.76c-.79,0-1.45.26-1.96.76-.54.53-.8,1.18-.8,1.99s.26,1.47.8,1.99c.51.5,1.18.76,1.99.76s1.42-.26,1.94-.76c.54-.53.8-1.18.8-1.99s-.26-1.47-.8-1.99c-.51-.5-1.17-.76-1.96-.76Zm21.44,11.51h-3.48v-3.12h-7.46v3.12h-3.48v-6.07h.11c.56-.07,1.05-.29,1.47-.67.87-.79.95-1.94.95-3.25v-4.4h10.22v8.32h1.67v6.09Zm-9.39-6.09h3.84v-5.35h-2.76v1.98c0,1.12-.15,1.71-.26,2.07-.11.33-.33.8-.82,1.3Zm15.76,3.34c-1.83,0-3.16-.53-4.31-1.72-1.11-1.16-1.68-2.58-1.68-4.22,0-1.78.65-3.43,1.78-4.54,1.02-1,2.44-1.55,4-1.55,1.02,0,2.4.25,3.42,1.39v-1.02h3.88v11.28h-3.88v-1.08c-.77.97-1.85,1.46-3.21,1.46Zm.71-8.71c-.71,0-1.43.28-1.91.76-.36.36-.8.98-.8,1.92s.39,1.55.72,1.9c.5.52,1.27.83,2.06.83.67,0,1.33-.27,1.81-.73.39-.36.85-1,.85-1.99,0-.76-.29-1.47-.79-1.94-.58-.54-1.38-.73-1.94-.73Z"/>
  </g>
  <g id="M">
    <path class="cls-2" d="m46.49,21.62c-6.14.72-7.86,7.09-12.48,12.6-6.18,7.35-15.33,3.57-15.33,3.57,6.18-.77,7.95-7.19,12.68-12.67,6.27-7.27,15.13-3.5,15.13-3.5Zm-22.26,10.79s7.68-6.11,4.37-15.1C26.11,10.52,21.3,5.71,23.85.05c0,0-7.61,6.19-4.44,15.1,2.42,6.81,7.38,11.6,4.83,17.26Zm-.44-1.3s.74-9.9-7.77-13.66C9.39,14.52,2.42,14.79.03,9.06c0,0-.95,9.84,8.08,13.65,6.68,2.82,13.3,2.67,15.69,8.4Zm-10.11,16.62h17.26l4.03-8.13H13.68v8.13Zm2.75,23.85h1.45l9.9-22.76h-11.36v22.76Z"/>
  </g>
</svg>