<svg width="72" height="72" viewBox="0 0 72 72" fill="none" xmlns="http://www.w3.org/2000/svg">
<g clip-path="url(#clip0_4001_428)">
<g clip-path="url(#clip1_4001_428)">
<g clip-path="url(#clip2_4001_428)">
<g clip-path="url(#clip3_4001_428)">
<g clip-path="url(#clip4_4001_428)">
<path d="M70.8 31.8H50.4V28.2C50.4 27.816 50.2163 27.4551 49.9056 27.2292L37.2 17.9892V13.8H50.4C51.0627 13.8 51.6 13.2627 51.6 12.6V5.4C51.6 4.7373 51.0627 4.2 50.4 4.2H37.2C37.2 3.5373 36.6627 3 36 3C35.3373 3 34.8 3.5373 34.8 4.2V17.9892L22.0944 27.2292C21.7838 27.4551 21.6 27.816 21.6 28.2V31.8H1.2C0.5373 31.8 0 32.3373 0 33V73.8C0 74.4627 0.5373 75 1.2 75H70.8C71.4627 75 72 74.4627 72 73.8V33C72 32.3373 71.4627 31.8 70.8 31.8ZM37.2 6.6H49.2V11.4H37.2V6.6ZM21.6 72.6H2.4V34.2H21.6V72.6ZM40.8 72.6H31.2V60.6H40.8V72.6ZM48 72.6H43.2V59.4C43.2 58.7373 42.6627 58.2 42 58.2H30C29.3373 58.2 28.8 58.7373 28.8 59.4V72.6H24V28.8108L36 20.0832L48 28.8108V72.6ZM69.6 72.6H50.4V34.2H69.6V72.6Z" fill="#8D5CF6"/>
<path d="M10.8 37.7998H6V40.1998H10.8V37.7998Z" fill="#8D5CF6"/>
<path d="M18 37.7998H13.2V40.1998H18V37.7998Z" fill="#8D5CF6"/>
<path d="M10.8 42.6001H6V45.0001H10.8V42.6001Z" fill="#8D5CF6"/>
<path d="M18 42.6001H13.2V45.0001H18V42.6001Z" fill="#8D5CF6"/>
<path d="M10.8 47.3999H6V49.7999H10.8V47.3999Z" fill="#8D5CF6"/>
<path d="M18 47.3999H13.2V49.7999H18V47.3999Z" fill="#8D5CF6"/>
<path d="M10.8 52.2002H6V54.6002H10.8V52.2002Z" fill="#8D5CF6"/>
<path d="M18 52.2002H13.2V54.6002H18V52.2002Z" fill="#8D5CF6"/>
<path d="M10.8 57H6V59.4H10.8V57Z" fill="#8D5CF6"/>
<path d="M18 57H13.2V59.4H18V57Z" fill="#8D5CF6"/>
<path d="M58.8 37.7998H54V40.1998H58.8V37.7998Z" fill="#8D5CF6"/>
<path d="M66 37.7998H61.2V40.1998H66V37.7998Z" fill="#8D5CF6"/>
<path d="M58.8 42.6001H54V45.0001H58.8V42.6001Z" fill="#8D5CF6"/>
<path d="M66 42.6001H61.2V45.0001H66V42.6001Z" fill="#8D5CF6"/>
<path d="M58.8 47.3999H54V49.7999H58.8V47.3999Z" fill="#8D5CF6"/>
<path d="M66 47.3999H61.2V49.7999H66V47.3999Z" fill="#8D5CF6"/>
<path d="M58.8 52.2002H54V54.6002H58.8V52.2002Z" fill="#8D5CF6"/>
<path d="M66 52.2002H61.2V54.6002H66V52.2002Z" fill="#8D5CF6"/>
<path d="M58.8 57H54V59.4H58.8V57Z" fill="#8D5CF6"/>
<path d="M66 57H61.2V59.4H66V57Z" fill="#8D5CF6"/>
<path d="M27.6001 39.0001C27.6053 43.637 31.3631 47.3948 36.0001 47.4001C40.6393 47.4001 44.4001 43.6393 44.4001 39.0001C44.4001 34.3609 40.6393 30.6001 36.0001 30.6001C31.3609 30.6001 27.6001 34.3609 27.6001 39.0001ZM42.0001 39.0001C42.0001 42.3137 39.3137 45.0001 36.0001 45.0001C32.6864 45.0001 30.0001 42.3137 30.0001 39.0001C30.004 35.6881 32.6881 33.004 36.0001 33.0001C39.3137 33.0001 42.0001 35.6864 42.0001 39.0001Z" fill="#8D5CF6"/>
<path d="M34.7999 37.8002H32.3999V40.2002H37.1999V34.2002H34.7999V37.8002Z" fill="#8D5CF6"/>
</g>
</g>
</g>
</g>
</g>
<defs>
<clipPath id="clip0_4001_428">
<rect width="72" height="72" fill="white"/>
</clipPath>
<clipPath id="clip1_4001_428">
<rect width="72" height="72" fill="white" transform="translate(0 3)"/>
</clipPath>
<clipPath id="clip2_4001_428">
<rect width="72" height="72" fill="white" transform="translate(0 3)"/>
</clipPath>
<clipPath id="clip3_4001_428">
<rect width="72" height="72" fill="white" transform="translate(0 3)"/>
</clipPath>
<clipPath id="clip4_4001_428">
<rect width="72" height="72" fill="white" transform="translate(0 3)"/>
</clipPath>
</defs>
</svg>
