<svg width="153" height="54" viewBox="0 0 153 54" fill="none" xmlns="http://www.w3.org/2000/svg">
<g filter="url(#filter0_d_42_102)">
<rect x="4" width="145" height="46" rx="8" fill="#FFBC57" shape-rendering="crispEdges"/>
<path d="M45 14.4752H39.8772C39.3249 14.4752 38.8772 14.9229 38.8772 15.4752V20.5979C38.8772 21.1502 39.3249 21.5979 39.8772 21.5979H45C45.5523 21.5979 46 21.1502 46 20.5979V15.4752C46 14.9229 45.5523 14.4752 45 14.4752Z" fill="white"/>
<path d="M35.366 17.3295L31.7436 13.7071C31.3531 13.3166 30.7199 13.3166 30.3294 13.7071L26.707 17.3295C26.3165 17.72 26.3165 18.3531 26.707 18.7437L30.3294 22.366C30.7199 22.7565 31.3531 22.7565 31.7436 22.366L35.366 18.7437C35.7565 18.3531 35.7565 17.72 35.366 17.3295Z" fill="white"/>
<path d="M33.5979 25.8772H28.4751C27.9228 25.8772 27.4751 26.3249 27.4751 26.8772V32C27.4751 32.5523 27.9228 33 28.4751 33H33.5979C34.1502 33 34.5979 32.5523 34.5979 32V26.8772C34.5979 26.3249 34.1502 25.8772 33.5979 25.8772Z" fill="white"/>
<path d="M45 25.8772H39.8772C39.3249 25.8772 38.8772 26.3249 38.8772 26.8772V32C38.8772 32.5523 39.3249 33 39.8772 33H45C45.5523 33 46 32.5523 46 32V26.8772C46 26.3249 45.5523 25.8772 45 25.8772Z" fill="white"/>
<path d="M69.666 29L64.137 22.312L69.286 16.327H66.531L61.572 22.369V16.327H59.349V29H61.572V24.953L62.674 23.661L66.93 29H69.666ZM78.4145 29V22.92C78.4145 20.45 76.6285 19.595 74.5955 19.595C73.1325 19.595 71.8025 20.07 70.7385 21.077L71.5555 22.464C72.3535 21.685 73.2465 21.305 74.2725 21.305C75.5455 21.305 76.4195 21.951 76.4195 23.015V24.383C75.7545 23.604 74.6905 23.205 73.4555 23.205C71.9545 23.205 70.2635 24.079 70.2635 26.188C70.2635 28.221 71.9545 29.228 73.4555 29.228C74.6715 29.228 75.7355 28.791 76.4195 28.012V29H78.4145ZM74.2345 27.86C73.1135 27.86 72.2775 27.214 72.2775 26.226C72.2775 25.219 73.1135 24.573 74.2345 24.573C75.1085 24.573 75.9635 24.896 76.4195 25.523V26.91C75.9635 27.537 75.1085 27.86 74.2345 27.86ZM84.668 29V21.571H87.309V19.823H80.051V21.571H82.673V29H84.668ZM96.5424 29V22.92C96.5424 20.45 94.7564 19.595 92.7234 19.595C91.2604 19.595 89.9304 20.07 88.8664 21.077L89.6834 22.464C90.4814 21.685 91.3744 21.305 92.4004 21.305C93.6734 21.305 94.5474 21.951 94.5474 23.015V24.383C93.8824 23.604 92.8184 23.205 91.5834 23.205C90.0824 23.205 88.3914 24.079 88.3914 26.188C88.3914 28.221 90.0824 29.228 91.5834 29.228C92.7994 29.228 93.8634 28.791 94.5474 28.012V29H96.5424ZM92.3624 27.86C91.2414 27.86 90.4054 27.214 90.4054 26.226C90.4054 25.219 91.2414 24.573 92.3624 24.573C93.2364 24.573 94.0914 24.896 94.5474 25.523V26.91C94.0914 27.537 93.2364 27.86 92.3624 27.86ZM98.1789 29.228C100.193 29.228 101.333 27.841 101.694 24.516L102.017 21.571H105.342V29H107.337V19.823H100.25L99.6989 24.288C99.3949 26.701 98.9579 27.594 98.1789 27.594V29.228ZM114.07 29.228C117.015 29.228 118.801 27.043 118.801 24.402C118.801 21.78 117.015 19.595 114.07 19.595C111.163 19.595 109.358 21.78 109.358 24.402C109.358 27.043 111.163 29.228 114.07 29.228ZM114.07 27.461C112.379 27.461 111.429 26.036 111.429 24.402C111.429 22.787 112.379 21.362 114.07 21.362C115.78 21.362 116.73 22.787 116.73 24.402C116.73 26.036 115.78 27.461 114.07 27.461ZM127.773 19.823H120.819V29H122.814V21.571H127.773V19.823Z" fill="white"/>
</g>
<defs>
<filter id="filter0_d_42_102" x="0" y="0" width="153" height="54" filterUnits="userSpaceOnUse" color-interpolation-filters="sRGB">
<feFlood flood-opacity="0" result="BackgroundImageFix"/>
<feColorMatrix in="SourceAlpha" type="matrix" values="0 0 0 0 0 0 0 0 0 0 0 0 0 0 0 0 0 0 127 0" result="hardAlpha"/>
<feOffset dy="4"/>
<feGaussianBlur stdDeviation="2"/>
<feComposite in2="hardAlpha" operator="out"/>
<feColorMatrix type="matrix" values="0 0 0 0 0 0 0 0 0 0 0 0 0 0 0 0 0 0 0.25 0"/>
<feBlend mode="normal" in2="BackgroundImageFix" result="effect1_dropShadow_42_102"/>
<feBlend mode="normal" in="SourceGraphic" in2="effect1_dropShadow_42_102" result="shape"/>
</filter>
</defs>
</svg>
