<svg width="1075" height="458" viewBox="0 0 1075 458" fill="none" xmlns="http://www.w3.org/2000/svg">
<path d="M227.156 126.432C224.54 126.432 222.176 125.868 220.064 124.74C217.976 123.612 216.332 122.064 215.132 120.096C213.956 118.104 213.368 115.872 213.368 113.4C213.368 110.928 213.956 108.708 215.132 106.74C216.332 104.748 217.976 103.188 220.064 102.06C222.176 100.932 224.54 100.368 227.156 100.368C229.772 100.368 232.124 100.932 234.212 102.06C236.3 103.188 237.944 104.748 239.144 106.74C240.344 108.708 240.944 110.928 240.944 113.4C240.944 115.872 240.344 118.104 239.144 120.096C237.944 122.064 236.3 123.612 234.212 124.74C232.124 125.868 229.772 126.432 227.156 126.432ZM227.156 121.464C228.644 121.464 229.988 121.128 231.188 120.456C232.388 119.76 233.324 118.8 233.996 117.576C234.692 116.352 235.04 114.96 235.04 113.4C235.04 111.84 234.692 110.448 233.996 109.224C233.324 108 232.388 107.052 231.188 106.38C229.988 105.684 228.644 105.336 227.156 105.336C225.668 105.336 224.324 105.684 223.124 106.38C221.924 107.052 220.976 108 220.28 109.224C219.608 110.448 219.272 111.84 219.272 113.4C219.272 114.96 219.608 116.352 220.28 117.576C220.976 118.8 221.924 119.76 223.124 120.456C224.324 121.128 225.668 121.464 227.156 121.464ZM256.201 107.964C258.049 107.964 259.669 108.348 261.061 109.116C262.453 109.86 263.521 110.916 264.265 112.284C265.033 113.652 265.417 115.236 265.417 117.036C265.417 118.884 264.961 120.528 264.049 121.968C263.161 123.384 261.913 124.488 260.305 125.28C258.697 126.048 256.873 126.432 254.833 126.432C251.449 126.432 248.785 125.352 246.841 123.192C244.921 121.008 243.961 117.816 243.961 113.616C243.961 109.728 244.801 106.632 246.481 104.328C248.185 102 250.789 100.476 254.293 99.756L263.509 97.92L264.265 102.744L256.129 104.364C253.921 104.796 252.277 105.516 251.197 106.524C250.141 107.532 249.517 108.96 249.325 110.808C250.165 109.896 251.173 109.2 252.349 108.72C253.525 108.216 254.809 107.964 256.201 107.964ZM254.869 122.076C256.309 122.076 257.461 121.608 258.325 120.672C259.213 119.736 259.657 118.548 259.657 117.108C259.657 115.644 259.213 114.48 258.325 113.616C257.461 112.752 256.309 112.32 254.869 112.32C253.405 112.32 252.229 112.752 251.341 113.616C250.453 114.48 250.009 115.644 250.009 117.108C250.009 118.572 250.465 119.772 251.377 120.708C252.289 121.62 253.453 122.076 254.869 122.076ZM280.639 106.344C282.439 106.344 284.071 106.764 285.535 107.604C287.023 108.42 288.187 109.584 289.027 111.096C289.867 112.584 290.287 114.324 290.287 116.316C290.287 118.308 289.867 120.06 289.027 121.572C288.187 123.06 287.023 124.224 285.535 125.064C284.071 125.88 282.439 126.288 280.639 126.288C278.167 126.288 276.223 125.508 274.807 123.948V132.984H269.191V106.632H274.555V108.864C275.947 107.184 277.975 106.344 280.639 106.344ZM279.667 121.68C281.107 121.68 282.283 121.2 283.195 120.24C284.131 119.256 284.599 117.948 284.599 116.316C284.599 114.684 284.131 113.388 283.195 112.428C282.283 111.444 281.107 110.952 279.667 110.952C278.227 110.952 277.039 111.444 276.103 112.428C275.191 113.388 274.735 114.684 274.735 116.316C274.735 117.948 275.191 119.256 276.103 120.24C277.039 121.2 278.227 121.68 279.667 121.68ZM301.431 106.344C304.431 106.344 306.735 107.064 308.343 108.504C309.951 109.92 310.755 112.068 310.755 114.948V126H305.499V123.588C304.443 125.388 302.475 126.288 299.595 126.288C298.107 126.288 296.811 126.036 295.707 125.532C294.627 125.028 293.799 124.332 293.223 123.444C292.647 122.556 292.359 121.548 292.359 120.42C292.359 118.62 293.031 117.204 294.375 116.172C295.743 115.14 297.843 114.624 300.675 114.624H305.139C305.139 113.4 304.767 112.464 304.023 111.816C303.279 111.144 302.163 110.808 300.675 110.808C299.643 110.808 298.623 110.976 297.615 111.312C296.631 111.624 295.791 112.056 295.095 112.608L293.079 108.684C294.135 107.94 295.395 107.364 296.859 106.956C298.347 106.548 299.871 106.344 301.431 106.344ZM300.999 122.508C301.959 122.508 302.811 122.292 303.555 121.86C304.299 121.404 304.827 120.744 305.139 119.88V117.9H301.287C298.983 117.9 297.831 118.656 297.831 120.168C297.831 120.888 298.107 121.464 298.659 121.896C299.235 122.304 300.015 122.508 300.999 122.508ZM328.022 115.92C329.174 116.28 330.062 116.832 330.686 117.576C331.334 118.32 331.658 119.208 331.658 120.24C331.658 121.464 331.238 122.544 330.398 123.48C329.558 124.392 328.406 125.1 326.942 125.604C325.478 126.108 323.822 126.36 321.974 126.36C320.462 126.36 318.974 126.204 317.51 125.892C316.046 125.58 314.69 125.112 313.442 124.488L314.954 120.564C316.994 121.548 319.25 122.04 321.722 122.04C323.042 122.04 324.074 121.848 324.818 121.464C325.586 121.056 325.97 120.492 325.97 119.772C325.97 119.148 325.706 118.68 325.178 118.368C324.65 118.032 323.882 117.864 322.874 117.864H318.914V114.372H322.37C323.354 114.372 324.11 114.216 324.638 113.904C325.166 113.592 325.43 113.136 325.43 112.536C325.43 111.912 325.094 111.432 324.422 111.096C323.774 110.76 322.838 110.592 321.614 110.592C319.742 110.592 317.702 111.036 315.494 111.924L314.126 108.036C316.814 106.86 319.43 106.272 321.974 106.272C323.726 106.272 325.286 106.488 326.654 106.92C328.046 107.352 329.138 107.988 329.93 108.828C330.722 109.644 331.118 110.604 331.118 111.708C331.118 112.62 330.842 113.448 330.29 114.192C329.738 114.912 328.982 115.488 328.022 115.92ZM344.815 126.288C342.775 126.288 340.939 125.868 339.307 125.028C337.699 124.164 336.439 122.976 335.527 121.464C334.615 119.952 334.159 118.236 334.159 116.316C334.159 114.396 334.615 112.68 335.527 111.168C336.439 109.656 337.699 108.48 339.307 107.64C340.939 106.776 342.775 106.344 344.815 106.344C346.855 106.344 348.679 106.776 350.287 107.64C351.895 108.48 353.155 109.656 354.067 111.168C354.979 112.68 355.435 114.396 355.435 116.316C355.435 118.236 354.979 119.952 354.067 121.464C353.155 122.976 351.895 124.164 350.287 125.028C348.679 125.868 346.855 126.288 344.815 126.288ZM344.815 121.68C346.255 121.68 347.431 121.2 348.343 120.24C349.279 119.256 349.747 117.948 349.747 116.316C349.747 114.684 349.279 113.388 348.343 112.428C347.431 111.444 346.255 110.952 344.815 110.952C343.375 110.952 342.187 111.444 341.251 112.428C340.315 113.388 339.847 114.684 339.847 116.316C339.847 117.948 340.315 119.256 341.251 120.24C342.187 121.2 343.375 121.68 344.815 121.68ZM374.094 115.884C376.374 116.652 377.514 118.188 377.514 120.492C377.514 122.244 376.854 123.6 375.534 124.56C374.214 125.52 372.246 126 369.63 126H359.298V106.632H369.198C371.622 106.632 373.518 107.076 374.886 107.964C376.254 108.828 376.938 110.052 376.938 111.636C376.938 112.596 376.686 113.448 376.182 114.192C375.702 114.912 375.006 115.476 374.094 115.884ZM364.446 114.588H368.694C370.662 114.588 371.646 113.892 371.646 112.5C371.646 111.132 370.662 110.448 368.694 110.448H364.446V114.588ZM369.162 122.184C371.226 122.184 372.258 121.476 372.258 120.06C372.258 119.316 372.018 118.776 371.538 118.44C371.058 118.08 370.302 117.9 369.27 117.9H364.446V122.184H369.162ZM389.216 106.344C392.216 106.344 394.52 107.064 396.128 108.504C397.736 109.92 398.54 112.068 398.54 114.948V126H393.284V123.588C392.228 125.388 390.26 126.288 387.38 126.288C385.892 126.288 384.596 126.036 383.492 125.532C382.412 125.028 381.584 124.332 381.008 123.444C380.432 122.556 380.144 121.548 380.144 120.42C380.144 118.62 380.816 117.204 382.16 116.172C383.528 115.14 385.628 114.624 388.46 114.624H392.924C392.924 113.4 392.552 112.464 391.808 111.816C391.064 111.144 389.948 110.808 388.46 110.808C387.428 110.808 386.408 110.976 385.4 111.312C384.416 111.624 383.576 112.056 382.88 112.608L380.864 108.684C381.92 107.94 383.18 107.364 384.644 106.956C386.132 106.548 387.656 106.344 389.216 106.344ZM388.784 122.508C389.744 122.508 390.596 122.292 391.34 121.86C392.084 121.404 392.612 120.744 392.924 119.88V117.9H389.072C386.768 117.9 385.616 118.656 385.616 120.168C385.616 120.888 385.892 121.464 386.444 121.896C387.02 122.304 387.8 122.508 388.784 122.508ZM419.691 111.24H413.139V126H407.559V111.24H401.007V106.632H419.691V111.24ZM440.704 116.388C440.704 116.46 440.668 116.964 440.596 117.9H425.944C426.208 119.1 426.832 120.048 427.816 120.744C428.8 121.44 430.024 121.788 431.488 121.788C432.496 121.788 433.384 121.644 434.152 121.356C434.944 121.044 435.676 120.564 436.348 119.916L439.336 123.156C437.512 125.244 434.848 126.288 431.344 126.288C429.16 126.288 427.228 125.868 425.548 125.028C423.868 124.164 422.572 122.976 421.66 121.464C420.748 119.952 420.292 118.236 420.292 116.316C420.292 114.42 420.736 112.716 421.624 111.204C422.536 109.668 423.772 108.48 425.332 107.64C426.916 106.776 428.68 106.344 430.624 106.344C432.52 106.344 434.236 106.752 435.772 107.568C437.308 108.384 438.508 109.56 439.372 111.096C440.26 112.608 440.704 114.372 440.704 116.388ZM430.66 110.592C429.388 110.592 428.32 110.952 427.456 111.672C426.592 112.392 426.064 113.376 425.872 114.624H435.412C435.22 113.4 434.692 112.428 433.828 111.708C432.964 110.964 431.908 110.592 430.66 110.592ZM463.409 106.632V126H457.793V111.24H451.673L451.493 114.66C451.397 117.204 451.157 119.316 450.773 120.996C450.389 122.676 449.765 123.996 448.901 124.956C448.037 125.916 446.837 126.396 445.301 126.396C444.485 126.396 443.513 126.252 442.385 125.964L442.673 121.356C443.057 121.404 443.333 121.428 443.501 121.428C444.341 121.428 444.965 121.128 445.373 120.528C445.805 119.904 446.093 119.124 446.237 118.188C446.381 117.228 446.489 115.968 446.561 114.408L446.849 106.632H463.409ZM479.285 112.824C481.805 112.848 483.737 113.424 485.081 114.552C486.425 115.656 487.097 117.228 487.097 119.268C487.097 121.404 486.341 123.072 484.829 124.272C483.341 125.448 481.241 126.036 478.529 126.036L468.809 126V106.632H474.389V112.824H479.285ZM478.025 122.04C479.105 122.064 479.933 121.836 480.509 121.356C481.085 120.876 481.373 120.156 481.373 119.196C481.373 118.26 481.085 117.576 480.509 117.144C479.957 116.712 479.129 116.484 478.025 116.46L474.389 116.424V122.04H478.025ZM490.606 106.632H496.186V114.192H504.61V106.632H510.226V126H504.61V118.764H496.186V126H490.606V106.632ZM523.126 106.344C526.126 106.344 528.43 107.064 530.038 108.504C531.646 109.92 532.45 112.068 532.45 114.948V126H527.194V123.588C526.138 125.388 524.17 126.288 521.29 126.288C519.802 126.288 518.506 126.036 517.402 125.532C516.322 125.028 515.494 124.332 514.918 123.444C514.342 122.556 514.054 121.548 514.054 120.42C514.054 118.62 514.726 117.204 516.07 116.172C517.438 115.14 519.538 114.624 522.37 114.624H526.834C526.834 113.4 526.462 112.464 525.718 111.816C524.974 111.144 523.858 110.808 522.37 110.808C521.338 110.808 520.318 110.976 519.31 111.312C518.326 111.624 517.486 112.056 516.79 112.608L514.774 108.684C515.83 107.94 517.09 107.364 518.554 106.956C520.042 106.548 521.566 106.344 523.126 106.344ZM522.694 122.508C523.654 122.508 524.506 122.292 525.25 121.86C525.994 121.404 526.522 120.744 526.834 119.88V117.9H522.982C520.678 117.9 519.526 118.656 519.526 120.168C519.526 120.888 519.802 121.464 520.354 121.896C520.93 122.304 521.71 122.508 522.694 122.508ZM554.537 106.632V126H549.533V120.456H545.393L541.721 126H535.745L540.173 119.664C538.829 119.136 537.797 118.38 537.077 117.396C536.381 116.388 536.033 115.176 536.033 113.76C536.033 111.48 536.849 109.728 538.481 108.504C540.137 107.256 542.405 106.632 545.285 106.632H554.537ZM545.393 111.204C544.193 111.204 543.281 111.42 542.657 111.852C542.057 112.284 541.757 112.98 541.757 113.94C541.757 114.9 542.045 115.608 542.621 116.064C543.221 116.496 544.121 116.712 545.321 116.712H549.533V111.204H545.393ZM589.39 106.632V126H583.774V111.24H575.71V126H570.13V106.632H589.39ZM613.35 106.632V126H607.734V111.24H601.614L601.434 114.66C601.338 117.204 601.098 119.316 600.714 120.996C600.33 122.676 599.706 123.996 598.842 124.956C597.978 125.916 596.778 126.396 595.242 126.396C594.426 126.396 593.454 126.252 592.326 125.964L592.614 121.356C592.998 121.404 593.274 121.428 593.442 121.428C594.282 121.428 594.906 121.128 595.314 120.528C595.746 119.904 596.034 119.124 596.178 118.188C596.322 117.228 596.43 115.968 596.502 114.408L596.79 106.632H613.35ZM626.275 106.344C629.275 106.344 631.579 107.064 633.187 108.504C634.795 109.92 635.599 112.068 635.599 114.948V126H630.343V123.588C629.287 125.388 627.319 126.288 624.439 126.288C622.951 126.288 621.655 126.036 620.551 125.532C619.471 125.028 618.643 124.332 618.067 123.444C617.491 122.556 617.203 121.548 617.203 120.42C617.203 118.62 617.875 117.204 619.219 116.172C620.587 115.14 622.687 114.624 625.519 114.624H629.983C629.983 113.4 629.611 112.464 628.867 111.816C628.123 111.144 627.007 110.808 625.519 110.808C624.487 110.808 623.467 110.976 622.459 111.312C621.475 111.624 620.635 112.056 619.939 112.608L617.923 108.684C618.979 107.94 620.239 107.364 621.703 106.956C623.191 106.548 624.715 106.344 626.275 106.344ZM625.843 122.508C626.803 122.508 627.655 122.292 628.399 121.86C629.143 121.404 629.671 120.744 629.983 119.88V117.9H626.131C623.827 117.9 622.675 118.656 622.675 120.168C622.675 120.888 622.951 121.464 623.503 121.896C624.079 122.304 624.859 122.508 625.843 122.508ZM656.749 111.24H650.197V126H644.617V111.24H638.065V106.632H656.749V111.24ZM685.682 116.244C685.682 119.244 684.674 121.62 682.658 123.372C680.666 125.1 677.81 126.096 674.09 126.36V132.984H668.942V126.36C665.222 126.096 662.354 125.112 660.338 123.408C658.346 121.68 657.35 119.292 657.35 116.244C657.35 113.244 658.334 110.916 660.302 109.26C662.294 107.604 665.174 106.644 668.942 106.38V99.288H674.09V106.38C677.81 106.644 680.666 107.616 682.658 109.296C684.674 110.976 685.682 113.292 685.682 116.244ZM662.786 116.244C662.786 117.972 663.278 119.304 664.262 120.24C665.246 121.176 666.806 121.764 668.942 122.004V110.736C666.806 110.952 665.246 111.516 664.262 112.428C663.278 113.316 662.786 114.588 662.786 116.244ZM674.09 122.004C676.226 121.764 677.786 121.176 678.77 120.24C679.778 119.304 680.282 117.972 680.282 116.244C680.282 114.588 679.778 113.316 678.77 112.428C677.786 111.516 676.226 110.952 674.09 110.736V122.004ZM698.557 126.288C696.517 126.288 694.681 125.868 693.049 125.028C691.441 124.164 690.181 122.976 689.269 121.464C688.357 119.952 687.901 118.236 687.901 116.316C687.901 114.396 688.357 112.68 689.269 111.168C690.181 109.656 691.441 108.48 693.049 107.64C694.681 106.776 696.517 106.344 698.557 106.344C700.597 106.344 702.421 106.776 704.029 107.64C705.637 108.48 706.897 109.656 707.809 111.168C708.721 112.68 709.177 114.396 709.177 116.316C709.177 118.236 708.721 119.952 707.809 121.464C706.897 122.976 705.637 124.164 704.029 125.028C702.421 125.868 700.597 126.288 698.557 126.288ZM698.557 121.68C699.997 121.68 701.173 121.2 702.085 120.24C703.021 119.256 703.489 117.948 703.489 116.316C703.489 114.684 703.021 113.388 702.085 112.428C701.173 111.444 699.997 110.952 698.557 110.952C697.117 110.952 695.929 111.444 694.993 112.428C694.057 113.388 693.589 114.684 693.589 116.316C693.589 117.948 694.057 119.256 694.993 120.24C695.929 121.2 697.117 121.68 698.557 121.68ZM724.452 106.344C726.252 106.344 727.884 106.764 729.348 107.604C730.836 108.42 732 109.584 732.84 111.096C733.68 112.584 734.1 114.324 734.1 116.316C734.1 118.308 733.68 120.06 732.84 121.572C732 123.06 730.836 124.224 729.348 125.064C727.884 125.88 726.252 126.288 724.452 126.288C721.98 126.288 720.036 125.508 718.62 123.948V132.984H713.004V106.632H718.368V108.864C719.76 107.184 721.788 106.344 724.452 106.344ZM723.48 121.68C724.92 121.68 726.096 121.2 727.008 120.24C727.944 119.256 728.412 117.948 728.412 116.316C728.412 114.684 727.944 113.388 727.008 112.428C726.096 111.444 724.92 110.952 723.48 110.952C722.04 110.952 720.852 111.444 719.916 112.428C719.004 113.388 718.548 114.684 718.548 116.316C718.548 117.948 719.004 119.256 719.916 120.24C720.852 121.2 722.04 121.68 723.48 121.68ZM756.936 126V114.408L751.14 124.128H748.764L743.112 114.372V126H738.036V106.632H743.904L750.096 117.828L756.684 106.632H761.94L762.012 126H756.936ZM774.915 106.344C777.915 106.344 780.219 107.064 781.827 108.504C783.435 109.92 784.239 112.068 784.239 114.948V126H778.983V123.588C777.927 125.388 775.959 126.288 773.079 126.288C771.591 126.288 770.295 126.036 769.191 125.532C768.111 125.028 767.283 124.332 766.707 123.444C766.131 122.556 765.843 121.548 765.843 120.42C765.843 118.62 766.515 117.204 767.859 116.172C769.227 115.14 771.327 114.624 774.159 114.624H778.623C778.623 113.4 778.251 112.464 777.507 111.816C776.763 111.144 775.647 110.808 774.159 110.808C773.127 110.808 772.107 110.976 771.099 111.312C770.115 111.624 769.275 112.056 768.579 112.608L766.563 108.684C767.619 107.94 768.879 107.364 770.343 106.956C771.831 106.548 773.355 106.344 774.915 106.344ZM774.483 122.508C775.443 122.508 776.295 122.292 777.039 121.86C777.783 121.404 778.311 120.744 778.623 119.88V117.9H774.771C772.467 117.9 771.315 118.656 771.315 120.168C771.315 120.888 771.591 121.464 772.143 121.896C772.719 122.304 773.499 122.508 774.483 122.508Z" fill="white"/>
<path d="M212.936 170.8H219.668L224.888 178.432L230.108 170.8H236.948L228.56 182.86L237.632 196H230.756L224.888 187.648L219.092 196H212.36L221.36 183.112L212.936 170.8ZM252.258 196.432C250.266 196.432 248.418 196.108 246.714 195.46C245.034 194.812 243.57 193.9 242.322 192.724C241.098 191.548 240.138 190.168 239.442 188.584C238.77 187 238.434 185.272 238.434 183.4C238.434 181.528 238.77 179.8 239.442 178.216C240.138 176.632 241.11 175.252 242.358 174.076C243.606 172.9 245.07 171.988 246.75 171.34C248.43 170.692 250.254 170.368 252.222 170.368C254.214 170.368 256.038 170.692 257.694 171.34C259.374 171.988 260.826 172.9 262.05 174.076C263.298 175.252 264.27 176.632 264.966 178.216C265.662 179.776 266.01 181.504 266.01 183.4C266.01 185.272 265.662 187.012 264.966 188.62C264.27 190.204 263.298 191.584 262.05 192.76C260.826 193.912 259.374 194.812 257.694 195.46C256.038 196.108 254.226 196.432 252.258 196.432ZM252.222 191.464C253.35 191.464 254.382 191.272 255.318 190.888C256.278 190.504 257.118 189.952 257.838 189.232C258.558 188.512 259.11 187.66 259.494 186.676C259.902 185.692 260.106 184.6 260.106 183.4C260.106 182.2 259.902 181.108 259.494 180.124C259.11 179.14 258.558 178.288 257.838 177.568C257.142 176.848 256.314 176.296 255.354 175.912C254.394 175.528 253.35 175.336 252.222 175.336C251.094 175.336 250.05 175.528 249.09 175.912C248.154 176.296 247.326 176.848 246.606 177.568C245.886 178.288 245.322 179.14 244.914 180.124C244.53 181.108 244.338 182.2 244.338 183.4C244.338 184.576 244.53 185.668 244.914 186.676C245.322 187.66 245.874 188.512 246.57 189.232C247.29 189.952 248.13 190.504 249.09 190.888C250.05 191.272 251.094 191.464 252.222 191.464ZM286.504 193.408V175.552H277.864L277.756 179.224C277.684 180.784 277.576 182.26 277.432 183.652C277.312 185.044 277.12 186.316 276.856 187.468C276.592 188.596 276.244 189.556 275.812 190.348C275.404 191.14 274.888 191.704 274.264 192.04L268.036 191.248C268.9 191.272 269.608 190.972 270.16 190.348C270.736 189.724 271.192 188.848 271.528 187.72C271.864 186.568 272.104 185.224 272.248 183.688C272.416 182.152 272.536 180.484 272.608 178.684L272.896 170.8H292.264V193.408H286.504ZM267.208 201.22L267.244 191.248H295.792V201.22H290.392V196H272.608V201.22H267.208ZM315.169 182.14H327.265V186.82H315.169V182.14ZM315.601 196H309.769V170.8H328.813V175.48H315.601V196ZM340.08 196.288C338.472 196.288 337.032 195.976 335.76 195.352C334.512 194.728 333.54 193.78 332.844 192.508C332.148 191.212 331.8 189.568 331.8 187.576V176.632H337.416V186.748C337.416 188.356 337.752 189.544 338.424 190.312C339.12 191.056 340.092 191.428 341.34 191.428C342.204 191.428 342.972 191.248 343.644 190.888C344.316 190.504 344.844 189.928 345.228 189.16C345.612 188.368 345.804 187.384 345.804 186.208V176.632H351.42V196H346.092V190.672L347.064 192.22C346.416 193.564 345.456 194.584 344.184 195.28C342.936 195.952 341.568 196.288 340.08 196.288ZM364.543 196.288C362.263 196.288 360.487 195.712 359.215 194.56C357.943 193.384 357.307 191.644 357.307 189.34V172.348H362.923V189.268C362.923 190.084 363.139 190.72 363.571 191.176C364.003 191.608 364.591 191.824 365.335 191.824C366.223 191.824 366.979 191.584 367.603 191.104L369.115 195.064C368.539 195.472 367.843 195.784 367.027 196C366.235 196.192 365.407 196.288 364.543 196.288ZM354.319 181.384V177.064H367.747V181.384H354.319ZM380.44 196.288C378.832 196.288 377.392 195.976 376.12 195.352C374.872 194.728 373.9 193.78 373.204 192.508C372.508 191.212 372.16 189.568 372.16 187.576V176.632H377.776V186.748C377.776 188.356 378.112 189.544 378.784 190.312C379.48 191.056 380.452 191.428 381.7 191.428C382.564 191.428 383.332 191.248 384.004 190.888C384.676 190.504 385.204 189.928 385.588 189.16C385.972 188.368 386.164 187.384 386.164 186.208V176.632H391.78V196H386.452V190.672L387.424 192.22C386.776 193.564 385.816 194.584 384.544 195.28C383.296 195.952 381.928 196.288 380.44 196.288ZM396.983 196V176.632H402.347V182.104L401.591 180.52C402.167 179.152 403.091 178.12 404.363 177.424C405.635 176.704 407.183 176.344 409.007 176.344V181.528C408.767 181.504 408.551 181.492 408.359 181.492C408.167 181.468 407.963 181.456 407.747 181.456C406.211 181.456 404.963 181.9 404.003 182.788C403.067 183.652 402.599 185.008 402.599 186.856V196H396.983ZM421.817 196.288C419.609 196.288 417.665 195.856 415.985 194.992C414.329 194.128 413.045 192.952 412.133 191.464C411.221 189.952 410.765 188.236 410.765 186.316C410.765 184.372 411.209 182.656 412.097 181.168C413.009 179.656 414.245 178.48 415.805 177.64C417.365 176.776 419.129 176.344 421.097 176.344C422.993 176.344 424.697 176.752 426.209 177.568C427.745 178.36 428.957 179.512 429.845 181.024C430.733 182.512 431.177 184.3 431.177 186.388C431.177 186.604 431.165 186.856 431.141 187.144C431.117 187.408 431.093 187.66 431.069 187.9H415.337V184.624H428.117L425.957 185.596C425.957 184.588 425.753 183.712 425.345 182.968C424.937 182.224 424.373 181.648 423.653 181.24C422.933 180.808 422.093 180.592 421.133 180.592C420.173 180.592 419.321 180.808 418.577 181.24C417.857 181.648 417.293 182.236 416.885 183.004C416.477 183.748 416.273 184.636 416.273 185.668V186.532C416.273 187.588 416.501 188.524 416.957 189.34C417.437 190.132 418.097 190.744 418.937 191.176C419.801 191.584 420.809 191.788 421.961 191.788C422.993 191.788 423.893 191.632 424.661 191.32C425.453 191.008 426.173 190.54 426.821 189.916L429.809 193.156C428.921 194.164 427.805 194.944 426.461 195.496C425.117 196.024 423.569 196.288 421.817 196.288ZM442.196 196L453.428 170.8H459.188L470.456 196H464.336L455.12 173.752H457.424L448.172 196H442.196ZM447.812 190.6L449.36 186.172H462.32L463.904 190.6H447.812ZM481.858 196.288C479.77 196.288 477.91 195.868 476.278 195.028C474.646 194.164 473.362 192.976 472.426 191.464C471.514 189.952 471.058 188.236 471.058 186.316C471.058 184.372 471.514 182.656 472.426 181.168C473.362 179.656 474.646 178.48 476.278 177.64C477.91 176.776 479.77 176.344 481.858 176.344C483.898 176.344 485.674 176.776 487.186 177.64C488.698 178.48 489.814 179.692 490.534 181.276L486.178 183.616C485.674 182.704 485.038 182.032 484.27 181.6C483.526 181.168 482.71 180.952 481.822 180.952C480.862 180.952 479.998 181.168 479.23 181.6C478.462 182.032 477.85 182.644 477.394 183.436C476.962 184.228 476.746 185.188 476.746 186.316C476.746 187.444 476.962 188.404 477.394 189.196C477.85 189.988 478.462 190.6 479.23 191.032C479.998 191.464 480.862 191.68 481.822 191.68C482.71 191.68 483.526 191.476 484.27 191.068C485.038 190.636 485.674 189.952 486.178 189.016L490.534 191.392C489.814 192.952 488.698 194.164 487.186 195.028C485.674 195.868 483.898 196.288 481.858 196.288ZM505.648 196V192.22L505.288 191.392V184.624C505.288 183.424 504.916 182.488 504.172 181.816C503.452 181.144 502.336 180.808 500.824 180.808C499.792 180.808 498.772 180.976 497.764 181.312C496.78 181.624 495.94 182.056 495.244 182.608L493.228 178.684C494.284 177.94 495.556 177.364 497.044 176.956C498.532 176.548 500.044 176.344 501.58 176.344C504.532 176.344 506.824 177.04 508.456 178.432C510.088 179.824 510.904 181.996 510.904 184.948V196H505.648ZM499.744 196.288C498.232 196.288 496.936 196.036 495.856 195.532C494.776 195.004 493.948 194.296 493.372 193.408C492.796 192.52 492.508 191.524 492.508 190.42C492.508 189.268 492.784 188.26 493.336 187.396C493.912 186.532 494.812 185.86 496.036 185.38C497.26 184.876 498.856 184.624 500.824 184.624H505.972V187.9H501.436C500.116 187.9 499.204 188.116 498.7 188.548C498.22 188.98 497.98 189.52 497.98 190.168C497.98 190.888 498.256 191.464 498.808 191.896C499.384 192.304 500.164 192.508 501.148 192.508C502.084 192.508 502.924 192.292 503.668 191.86C504.412 191.404 504.952 190.744 505.288 189.88L506.152 192.472C505.744 193.72 505 194.668 503.92 195.316C502.84 195.964 501.448 196.288 499.744 196.288ZM524.443 196.288C522.619 196.288 520.975 195.88 519.511 195.064C518.047 194.224 516.883 193.06 516.019 191.572C515.179 190.084 514.759 188.332 514.759 186.316C514.759 184.276 515.179 182.512 516.019 181.024C516.883 179.536 518.047 178.384 519.511 177.568C520.975 176.752 522.619 176.344 524.443 176.344C526.075 176.344 527.503 176.704 528.727 177.424C529.951 178.144 530.899 179.236 531.571 180.7C532.243 182.164 532.579 184.036 532.579 186.316C532.579 188.572 532.255 190.444 531.607 191.932C530.959 193.396 530.023 194.488 528.799 195.208C527.599 195.928 526.147 196.288 524.443 196.288ZM525.415 191.68C526.327 191.68 527.155 191.464 527.899 191.032C528.643 190.6 529.231 189.988 529.663 189.196C530.119 188.38 530.347 187.42 530.347 186.316C530.347 185.188 530.119 184.228 529.663 183.436C529.231 182.644 528.643 182.032 527.899 181.6C527.155 181.168 526.327 180.952 525.415 180.952C524.479 180.952 523.639 181.168 522.895 181.6C522.151 182.032 521.551 182.644 521.095 183.436C520.663 184.228 520.447 185.188 520.447 186.316C520.447 187.42 520.663 188.38 521.095 189.196C521.551 189.988 522.151 190.6 522.895 191.032C523.639 191.464 524.479 191.68 525.415 191.68ZM530.491 196V192.04L530.599 186.28L530.239 180.556V169.288H535.855V196H530.491ZM550.665 196.288C548.457 196.288 546.513 195.856 544.833 194.992C543.177 194.128 541.893 192.952 540.981 191.464C540.069 189.952 539.613 188.236 539.613 186.316C539.613 184.372 540.057 182.656 540.945 181.168C541.857 179.656 543.093 178.48 544.653 177.64C546.213 176.776 547.977 176.344 549.945 176.344C551.841 176.344 553.545 176.752 555.057 177.568C556.593 178.36 557.805 179.512 558.693 181.024C559.581 182.512 560.025 184.3 560.025 186.388C560.025 186.604 560.013 186.856 559.989 187.144C559.965 187.408 559.941 187.66 559.917 187.9H544.185V184.624H556.965L554.805 185.596C554.805 184.588 554.601 183.712 554.193 182.968C553.785 182.224 553.221 181.648 552.501 181.24C551.781 180.808 550.941 180.592 549.981 180.592C549.021 180.592 548.169 180.808 547.425 181.24C546.705 181.648 546.141 182.236 545.733 183.004C545.325 183.748 545.121 184.636 545.121 185.668V186.532C545.121 187.588 545.349 188.524 545.805 189.34C546.285 190.132 546.945 190.744 547.785 191.176C548.649 191.584 549.657 191.788 550.809 191.788C551.841 191.788 552.741 191.632 553.509 191.32C554.301 191.008 555.021 190.54 555.669 189.916L558.657 193.156C557.769 194.164 556.653 194.944 555.309 195.496C553.965 196.024 552.417 196.288 550.665 196.288ZM588.568 176.344C590.104 176.344 591.46 176.656 592.636 177.28C593.836 177.88 594.772 178.816 595.444 180.088C596.14 181.336 596.488 182.944 596.488 184.912V196H590.872V185.776C590.872 184.216 590.548 183.064 589.9 182.32C589.252 181.576 588.34 181.204 587.164 181.204C586.348 181.204 585.616 181.396 584.968 181.78C584.32 182.14 583.816 182.692 583.456 183.436C583.096 184.18 582.916 185.128 582.916 186.28V196H577.3V185.776C577.3 184.216 576.976 183.064 576.328 182.32C575.704 181.576 574.804 181.204 573.628 181.204C572.812 181.204 572.08 181.396 571.432 181.78C570.784 182.14 570.28 182.692 569.92 183.436C569.56 184.18 569.38 185.128 569.38 186.28V196H563.764V176.632H569.128V181.924L568.12 180.376C568.792 179.056 569.74 178.06 570.964 177.388C572.212 176.692 573.628 176.344 575.212 176.344C576.988 176.344 578.536 176.8 579.856 177.712C581.2 178.6 582.088 179.968 582.52 181.816L580.54 181.276C581.188 179.764 582.22 178.564 583.636 177.676C585.076 176.788 586.72 176.344 588.568 176.344ZM603.618 203.272C602.61 203.272 601.614 203.116 600.63 202.804C599.646 202.492 598.842 202.06 598.218 201.508L600.27 197.512C600.702 197.896 601.194 198.196 601.746 198.412C602.322 198.628 602.886 198.736 603.438 198.736C604.23 198.736 604.854 198.544 605.31 198.16C605.79 197.8 606.222 197.188 606.606 196.324L607.614 193.948L608.046 193.336L614.994 176.632H620.394L611.646 197.188C611.022 198.748 610.302 199.972 609.486 200.86C608.694 201.748 607.806 202.372 606.822 202.732C605.862 203.092 604.794 203.272 603.618 203.272ZM606.93 196.756L598.29 176.632H604.086L610.782 192.832L606.93 196.756Z" fill="white"/>
<path d="M223.28 261.5H215.84L214.3 265H212.24L218.58 251H220.56L226.92 265H224.82L223.28 261.5ZM222.58 259.9L219.56 253.04L216.54 259.9H222.58ZM233.136 260.52H230.936V265H229.016V254.4H230.936V258.88H233.176L236.616 254.4H238.676L234.656 259.5L238.956 265H236.696L233.136 260.52ZM248.694 256.08H244.814V265H242.894V256.08H239.014V254.4H248.694V256.08ZM260.175 254.4L255.035 266.06C254.582 267.14 254.049 267.9 253.435 268.34C252.835 268.78 252.109 269 251.255 269C250.735 269 250.229 268.913 249.735 268.74C249.255 268.58 248.855 268.34 248.535 268.02L249.355 266.58C249.902 267.1 250.535 267.36 251.255 267.36C251.722 267.36 252.109 267.233 252.415 266.98C252.735 266.74 253.022 266.32 253.275 265.72L253.615 264.98L248.935 254.4H250.935L254.635 262.88L258.295 254.4H260.175ZM265.589 254.3C267.056 254.3 268.176 254.66 268.949 255.38C269.736 256.1 270.129 257.173 270.129 258.6V265H268.309V263.6C267.989 264.093 267.529 264.473 266.929 264.74C266.343 264.993 265.643 265.12 264.829 265.12C263.643 265.12 262.689 264.833 261.969 264.26C261.263 263.687 260.909 262.933 260.909 262C260.909 261.067 261.249 260.32 261.929 259.76C262.609 259.187 263.689 258.9 265.169 258.9H268.209V258.52C268.209 257.693 267.969 257.06 267.489 256.62C267.009 256.18 266.303 255.96 265.369 255.96C264.743 255.96 264.129 256.067 263.529 256.28C262.929 256.48 262.423 256.753 262.009 257.1L261.209 255.66C261.756 255.22 262.409 254.887 263.169 254.66C263.929 254.42 264.736 254.3 265.589 254.3ZM265.149 263.64C265.883 263.64 266.516 263.48 267.049 263.16C267.583 262.827 267.969 262.36 268.209 261.76V260.28H265.249C263.623 260.28 262.809 260.827 262.809 261.92C262.809 262.453 263.016 262.873 263.429 263.18C263.843 263.487 264.416 263.64 265.149 263.64ZM282.687 254.4V265H280.767V256.08H276.207L276.087 258.44C276.02 259.867 275.893 261.06 275.707 262.02C275.52 262.967 275.213 263.727 274.787 264.3C274.36 264.873 273.767 265.16 273.007 265.16C272.66 265.16 272.267 265.1 271.827 264.98L271.947 263.36C272.12 263.4 272.28 263.42 272.427 263.42C272.96 263.42 273.36 263.187 273.627 262.72C273.893 262.253 274.067 261.7 274.147 261.06C274.227 260.42 274.3 259.507 274.367 258.32L274.547 254.4H282.687ZM291.299 258C292.646 258.013 293.672 258.32 294.379 258.92C295.086 259.52 295.439 260.367 295.439 261.46C295.439 262.607 295.052 263.493 294.279 264.12C293.519 264.733 292.426 265.033 290.999 265.02L286.399 265V254.4H288.319V257.98L291.299 258ZM290.839 263.56C291.706 263.573 292.359 263.4 292.799 263.04C293.252 262.68 293.479 262.147 293.479 261.44C293.479 260.747 293.259 260.24 292.819 259.92C292.392 259.6 291.732 259.433 290.839 259.42L288.319 259.38V263.54L290.839 263.56ZM297.903 254.4H299.823V258.9H305.863V254.4H307.783V265H305.863V260.56H299.823V265H297.903V254.4ZM316.296 258C317.63 258.013 318.65 258.32 319.356 258.92C320.063 259.52 320.416 260.367 320.416 261.46C320.416 262.607 320.03 263.493 319.256 264.12C318.496 264.733 317.403 265.033 315.976 265.02L311.516 265V254.4H313.436V257.98L316.296 258ZM321.996 254.4H323.916V265H321.996V254.4ZM315.836 263.56C316.703 263.573 317.356 263.4 317.796 263.04C318.25 262.68 318.476 262.147 318.476 261.44C318.476 260.747 318.256 260.24 317.816 259.92C317.376 259.6 316.716 259.433 315.836 259.42L313.436 259.38V263.54L315.836 263.56ZM337.229 259.76C337.229 259.907 337.216 260.1 337.189 260.34H328.589C328.709 261.273 329.116 262.027 329.809 262.6C330.516 263.16 331.389 263.44 332.429 263.44C333.696 263.44 334.716 263.013 335.489 262.16L336.549 263.4C336.069 263.96 335.469 264.387 334.749 264.68C334.042 264.973 333.249 265.12 332.369 265.12C331.249 265.12 330.256 264.893 329.389 264.44C328.522 263.973 327.849 263.327 327.369 262.5C326.902 261.673 326.669 260.74 326.669 259.7C326.669 258.673 326.896 257.747 327.349 256.92C327.816 256.093 328.449 255.453 329.249 255C330.062 254.533 330.976 254.3 331.989 254.3C333.002 254.3 333.902 254.533 334.689 255C335.489 255.453 336.109 256.093 336.549 256.92C337.002 257.747 337.229 258.693 337.229 259.76ZM331.989 255.92C331.069 255.92 330.296 256.2 329.669 256.76C329.056 257.32 328.696 258.053 328.589 258.96H335.389C335.282 258.067 334.916 257.34 334.289 256.78C333.676 256.207 332.909 255.92 331.989 255.92ZM351.319 259.48C352.025 259.667 352.572 259.967 352.959 260.38C353.345 260.793 353.539 261.307 353.539 261.92C353.539 262.547 353.325 263.107 352.899 263.6C352.472 264.08 351.879 264.46 351.119 264.74C350.372 265.007 349.532 265.14 348.599 265.14C347.812 265.14 347.039 265.04 346.279 264.84C345.532 264.627 344.865 264.327 344.279 263.94L344.859 262.48C345.365 262.8 345.945 263.053 346.599 263.24C347.252 263.413 347.912 263.5 348.579 263.5C349.485 263.5 350.205 263.347 350.739 263.04C351.285 262.72 351.559 262.293 351.559 261.76C351.559 261.267 351.339 260.887 350.899 260.62C350.472 260.353 349.865 260.22 349.079 260.22H347.139V258.84H348.939C349.659 258.84 350.225 258.713 350.639 258.46C351.052 258.207 351.259 257.86 351.259 257.42C351.259 256.94 351.012 256.567 350.519 256.3C350.039 256.033 349.385 255.9 348.559 255.9C347.505 255.9 346.392 256.173 345.219 256.72L344.699 255.24C345.992 254.587 347.345 254.26 348.759 254.26C349.612 254.26 350.379 254.38 351.059 254.62C351.739 254.86 352.272 255.2 352.659 255.64C353.045 256.08 353.239 256.58 353.239 257.14C353.239 257.66 353.065 258.127 352.719 258.54C352.372 258.953 351.905 259.267 351.319 259.48ZM356.458 254.4H358.378V258.9H364.418V254.4H366.338V265H364.418V260.56H358.378V265H356.458V254.4ZM373.851 254.3C375.318 254.3 376.438 254.66 377.211 255.38C377.998 256.1 378.391 257.173 378.391 258.6V265H376.571V263.6C376.251 264.093 375.791 264.473 375.191 264.74C374.604 264.993 373.904 265.12 373.091 265.12C371.904 265.12 370.951 264.833 370.231 264.26C369.524 263.687 369.171 262.933 369.171 262C369.171 261.067 369.511 260.32 370.191 259.76C370.871 259.187 371.951 258.9 373.431 258.9H376.471V258.52C376.471 257.693 376.231 257.06 375.751 256.62C375.271 256.18 374.564 255.96 373.631 255.96C373.004 255.96 372.391 256.067 371.791 256.28C371.191 256.48 370.684 256.753 370.271 257.1L369.471 255.66C370.018 255.22 370.671 254.887 371.431 254.66C372.191 254.42 372.998 254.3 373.851 254.3ZM373.411 263.64C374.144 263.64 374.778 263.48 375.311 263.16C375.844 262.827 376.231 262.36 376.471 261.76V260.28H373.511C371.884 260.28 371.071 260.827 371.071 261.92C371.071 262.453 371.278 262.873 371.691 263.18C372.104 263.487 372.678 263.64 373.411 263.64ZM381.848 254.4H383.768V258.9H389.808V254.4H391.728V265H389.808V260.56H383.768V265H381.848V254.4ZM395.462 254.4H397.382V262.12L403.882 254.4H405.622V265H403.702V257.28L397.222 265H395.462V254.4ZM417.848 254.4V265H416.128V261.64H413.048H412.828L410.508 265H408.448L411.028 261.38C410.228 261.14 409.615 260.747 409.188 260.2C408.762 259.64 408.548 258.947 408.548 258.12C408.548 256.907 408.962 255.987 409.788 255.36C410.615 254.72 411.755 254.4 413.208 254.4H417.848ZM410.508 258.18C410.508 258.887 410.728 259.413 411.168 259.76C411.622 260.093 412.295 260.26 413.188 260.26H416.128V256.08H413.268C411.428 256.08 410.508 256.78 410.508 258.18ZM437.745 263.32V267.46H435.945V265H427.085V267.46H425.265V263.32H425.825C426.505 263.28 426.972 262.8 427.225 261.88C427.479 260.96 427.652 259.66 427.745 257.98L427.905 254.4H436.125V263.32H437.745ZM429.505 258.12C429.452 259.453 429.339 260.56 429.165 261.44C429.005 262.307 428.705 262.933 428.265 263.32H434.205V256.08H429.605L429.505 258.12ZM449.347 254.4V265H447.427V256.08H442.867L442.747 258.44C442.68 259.867 442.553 261.06 442.367 262.02C442.18 262.967 441.873 263.727 441.447 264.3C441.02 264.873 440.427 265.16 439.667 265.16C439.32 265.16 438.927 265.1 438.487 264.98L438.607 263.36C438.78 263.4 438.94 263.42 439.087 263.42C439.62 263.42 440.02 263.187 440.287 262.72C440.553 262.253 440.727 261.7 440.807 261.06C440.887 260.42 440.96 259.507 441.027 258.32L441.207 254.4H449.347ZM461.559 254.4V265H459.839V261.64H456.759H456.539L454.219 265H452.159L454.739 261.38C453.939 261.14 453.326 260.747 452.899 260.2C452.473 259.64 452.259 258.947 452.259 258.12C452.259 256.907 452.673 255.987 453.499 255.36C454.326 254.72 455.466 254.4 456.919 254.4H461.559ZM454.219 258.18C454.219 258.887 454.439 259.413 454.879 259.76C455.333 260.093 456.006 260.26 456.899 260.26H459.839V256.08H456.979C455.139 256.08 454.219 256.78 454.219 258.18ZM470.676 254.4H472.596V258.9H478.636V254.4H480.556V265H478.636V260.56H472.596V265H470.676V254.4ZM488.83 265.12C487.776 265.12 486.83 264.887 485.99 264.42C485.15 263.953 484.49 263.313 484.01 262.5C483.543 261.673 483.31 260.74 483.31 259.7C483.31 258.66 483.543 257.733 484.01 256.92C484.49 256.093 485.15 255.453 485.99 255C486.83 254.533 487.776 254.3 488.83 254.3C489.883 254.3 490.823 254.533 491.65 255C492.49 255.453 493.143 256.093 493.61 256.92C494.09 257.733 494.33 258.66 494.33 259.7C494.33 260.74 494.09 261.673 493.61 262.5C493.143 263.313 492.49 263.953 491.65 264.42C490.823 264.887 489.883 265.12 488.83 265.12ZM488.83 263.44C489.51 263.44 490.116 263.287 490.65 262.98C491.196 262.66 491.623 262.22 491.93 261.66C492.236 261.087 492.39 260.433 492.39 259.7C492.39 258.967 492.236 258.32 491.93 257.76C491.623 257.187 491.196 256.747 490.65 256.44C490.116 256.133 489.51 255.98 488.83 255.98C488.15 255.98 487.536 256.133 486.99 256.44C486.456 256.747 486.03 257.187 485.71 257.76C485.403 258.32 485.25 258.967 485.25 259.7C485.25 260.433 485.403 261.087 485.71 261.66C486.03 262.22 486.456 262.66 486.99 262.98C487.536 263.287 488.15 263.44 488.83 263.44ZM504.322 259.5C505.696 259.847 506.382 260.707 506.382 262.08C506.382 263.013 506.029 263.733 505.322 264.24C504.629 264.747 503.589 265 502.202 265H497.102V254.4H502.022C503.276 254.4 504.256 254.64 504.962 255.12C505.669 255.587 506.022 256.253 506.022 257.12C506.022 257.68 505.869 258.167 505.562 258.58C505.269 258.98 504.856 259.287 504.322 259.5ZM498.982 258.96H501.862C502.596 258.96 503.149 258.827 503.522 258.56C503.909 258.293 504.102 257.907 504.102 257.4C504.102 256.387 503.356 255.88 501.862 255.88H498.982V258.96ZM502.062 263.52C502.862 263.52 503.462 263.393 503.862 263.14C504.262 262.887 504.462 262.493 504.462 261.96C504.462 261.413 504.276 261.007 503.902 260.74C503.542 260.473 502.969 260.34 502.182 260.34H498.982V263.52H502.062ZM509.387 254.4H511.307V262.12L517.807 254.4H519.547V265H517.627V257.28L511.147 265H509.387V254.4ZM531.734 254.4V265H529.814V260.72C528.667 261.253 527.527 261.52 526.394 261.52C525.074 261.52 524.054 261.213 523.334 260.6C522.614 259.987 522.254 259.067 522.254 257.84V254.4H524.174V257.72C524.174 258.453 524.401 259.007 524.854 259.38C525.321 259.753 525.967 259.94 526.794 259.94C527.727 259.94 528.734 259.707 529.814 259.24V254.4H531.734ZM539.582 260.52H537.382V265H535.462V254.4H537.382V258.88H539.622L543.062 254.4H545.122L541.102 259.5L545.402 265H543.142L539.582 260.52ZM551.603 265.12C550.55 265.12 549.603 264.887 548.763 264.42C547.923 263.953 547.263 263.313 546.783 262.5C546.316 261.673 546.083 260.74 546.083 259.7C546.083 258.66 546.316 257.733 546.783 256.92C547.263 256.093 547.923 255.453 548.763 255C549.603 254.533 550.55 254.3 551.603 254.3C552.656 254.3 553.596 254.533 554.423 255C555.263 255.453 555.916 256.093 556.383 256.92C556.863 257.733 557.103 258.66 557.103 259.7C557.103 260.74 556.863 261.673 556.383 262.5C555.916 263.313 555.263 263.953 554.423 264.42C553.596 264.887 552.656 265.12 551.603 265.12ZM551.603 263.44C552.283 263.44 552.89 263.287 553.423 262.98C553.97 262.66 554.396 262.22 554.703 261.66C555.01 261.087 555.163 260.433 555.163 259.7C555.163 258.967 555.01 258.32 554.703 257.76C554.396 257.187 553.97 256.747 553.423 256.44C552.89 256.133 552.283 255.98 551.603 255.98C550.923 255.98 550.31 256.133 549.763 256.44C549.23 256.747 548.803 257.187 548.483 257.76C548.176 258.32 548.023 258.967 548.023 259.7C548.023 260.433 548.176 261.087 548.483 261.66C548.803 262.22 549.23 262.66 549.763 262.98C550.31 263.287 550.923 263.44 551.603 263.44ZM567.096 259.5C568.469 259.847 569.156 260.707 569.156 262.08C569.156 263.013 568.802 263.733 568.096 264.24C567.402 264.747 566.362 265 564.976 265H559.876V254.4H564.796C566.049 254.4 567.029 254.64 567.736 255.12C568.442 255.587 568.796 256.253 568.796 257.12C568.796 257.68 568.642 258.167 568.336 258.58C568.042 258.98 567.629 259.287 567.096 259.5ZM561.756 258.96H564.636C565.369 258.96 565.922 258.827 566.296 258.56C566.682 258.293 566.876 257.907 566.876 257.4C566.876 256.387 566.129 255.88 564.636 255.88H561.756V258.96ZM564.836 263.52C565.636 263.52 566.236 263.393 566.636 263.14C567.036 262.887 567.236 262.493 567.236 261.96C567.236 261.413 567.049 261.007 566.676 260.74C566.316 260.473 565.742 260.34 564.956 260.34H561.756V263.52H564.836ZM577.532 254.4H579.452V262.12L585.952 254.4H587.692V265H585.772V257.28L579.292 265H577.532V254.4ZM606.61 254.4V265H604.69V256.08H598.71V265H596.79V254.4H606.61ZM615.945 254.3C616.972 254.3 617.892 254.527 618.705 254.98C619.518 255.433 620.152 256.067 620.605 256.88C621.072 257.693 621.305 258.633 621.305 259.7C621.305 260.767 621.072 261.713 620.605 262.54C620.152 263.353 619.518 263.987 618.705 264.44C617.892 264.893 616.972 265.12 615.945 265.12C615.185 265.12 614.485 264.973 613.845 264.68C613.218 264.387 612.685 263.96 612.245 263.4V268.88H610.325V254.4H612.165V256.08C612.592 255.493 613.132 255.053 613.785 254.76C614.438 254.453 615.158 254.3 615.945 254.3ZM615.785 263.44C616.465 263.44 617.072 263.287 617.605 262.98C618.152 262.66 618.578 262.22 618.885 261.66C619.205 261.087 619.365 260.433 619.365 259.7C619.365 258.967 619.205 258.32 618.885 257.76C618.578 257.187 618.152 256.747 617.605 256.44C617.072 256.133 616.465 255.98 615.785 255.98C615.118 255.98 614.512 256.14 613.965 256.46C613.432 256.767 613.005 257.2 612.685 257.76C612.378 258.32 612.225 258.967 612.225 259.7C612.225 260.433 612.378 261.087 612.685 261.66C612.992 262.22 613.418 262.66 613.965 262.98C614.512 263.287 615.118 263.44 615.785 263.44ZM628.634 265.12C627.581 265.12 626.634 264.887 625.794 264.42C624.954 263.953 624.294 263.313 623.814 262.5C623.348 261.673 623.114 260.74 623.114 259.7C623.114 258.66 623.348 257.733 623.814 256.92C624.294 256.093 624.954 255.453 625.794 255C626.634 254.533 627.581 254.3 628.634 254.3C629.688 254.3 630.628 254.533 631.454 255C632.294 255.453 632.948 256.093 633.414 256.92C633.894 257.733 634.134 258.66 634.134 259.7C634.134 260.74 633.894 261.673 633.414 262.5C632.948 263.313 632.294 263.953 631.454 264.42C630.628 264.887 629.688 265.12 628.634 265.12ZM628.634 263.44C629.314 263.44 629.921 263.287 630.454 262.98C631.001 262.66 631.428 262.22 631.734 261.66C632.041 261.087 632.194 260.433 632.194 259.7C632.194 258.967 632.041 258.32 631.734 257.76C631.428 257.187 631.001 256.747 630.454 256.44C629.921 256.133 629.314 255.98 628.634 255.98C627.954 255.98 627.341 256.133 626.794 256.44C626.261 256.747 625.834 257.187 625.514 257.76C625.208 258.32 625.054 258.967 625.054 259.7C625.054 260.433 625.208 261.087 625.514 261.66C625.834 262.22 626.261 262.66 626.794 262.98C627.341 263.287 627.954 263.44 628.634 263.44ZM650.287 259.68C650.287 261.32 649.74 262.613 648.647 263.56C647.554 264.507 646.014 265.033 644.027 265.14V268.88H642.147V265.14C640.16 265.033 638.62 264.513 637.527 263.58C636.447 262.633 635.907 261.333 635.907 259.68C635.907 258.04 636.447 256.76 637.527 255.84C638.607 254.92 640.147 254.407 642.147 254.3V250.16H644.027V254.3C646.014 254.407 647.554 254.927 648.647 255.86C649.74 256.78 650.287 258.053 650.287 259.68ZM637.807 259.68C637.807 260.813 638.167 261.7 638.887 262.34C639.62 262.98 640.707 263.347 642.147 263.44V256C640.694 256.093 639.607 256.453 638.887 257.08C638.167 257.707 637.807 258.573 637.807 259.68ZM644.027 263.46C646.934 263.233 648.387 261.973 648.387 259.68C648.387 258.56 648.02 257.693 647.287 257.08C646.554 256.453 645.467 256.093 644.027 256V263.46ZM662.581 259.76C662.581 259.907 662.567 260.1 662.541 260.34H653.941C654.061 261.273 654.467 262.027 655.161 262.6C655.867 263.16 656.741 263.44 657.781 263.44C659.047 263.44 660.067 263.013 660.841 262.16L661.901 263.4C661.421 263.96 660.821 264.387 660.101 264.68C659.394 264.973 658.601 265.12 657.721 265.12C656.601 265.12 655.607 264.893 654.741 264.44C653.874 263.973 653.201 263.327 652.721 262.5C652.254 261.673 652.021 260.74 652.021 259.7C652.021 258.673 652.247 257.747 652.701 256.92C653.167 256.093 653.801 255.453 654.601 255C655.414 254.533 656.327 254.3 657.341 254.3C658.354 254.3 659.254 254.533 660.041 255C660.841 255.453 661.461 256.093 661.901 256.92C662.354 257.747 662.581 258.693 662.581 259.76ZM657.341 255.92C656.421 255.92 655.647 256.2 655.021 256.76C654.407 257.32 654.047 258.053 653.941 258.96H660.741C660.634 258.067 660.267 257.34 659.641 256.78C659.027 256.207 658.261 255.92 657.341 255.92ZM670.179 265.12C669.099 265.12 668.133 264.887 667.279 264.42C666.439 263.953 665.779 263.313 665.299 262.5C664.819 261.673 664.579 260.74 664.579 259.7C664.579 258.66 664.819 257.733 665.299 256.92C665.779 256.093 666.439 255.453 667.279 255C668.133 254.533 669.099 254.3 670.179 254.3C671.139 254.3 671.993 254.493 672.739 254.88C673.499 255.267 674.086 255.827 674.499 256.56L673.039 257.5C672.706 256.993 672.293 256.613 671.799 256.36C671.306 256.107 670.759 255.98 670.159 255.98C669.466 255.98 668.839 256.133 668.279 256.44C667.733 256.747 667.299 257.187 666.979 257.76C666.673 258.32 666.519 258.967 666.519 259.7C666.519 260.447 666.673 261.107 666.979 261.68C667.299 262.24 667.733 262.673 668.279 262.98C668.839 263.287 669.466 263.44 670.159 263.44C670.759 263.44 671.306 263.313 671.799 263.06C672.293 262.807 672.706 262.427 673.039 261.92L674.499 262.84C674.086 263.573 673.499 264.14 672.739 264.54C671.993 264.927 671.139 265.12 670.179 265.12ZM681.449 265.12C680.369 265.12 679.402 264.887 678.549 264.42C677.709 263.953 677.049 263.313 676.569 262.5C676.089 261.673 675.849 260.74 675.849 259.7C675.849 258.66 676.089 257.733 676.569 256.92C677.049 256.093 677.709 255.453 678.549 255C679.402 254.533 680.369 254.3 681.449 254.3C682.409 254.3 683.262 254.493 684.009 254.88C684.769 255.267 685.355 255.827 685.769 256.56L684.309 257.5C683.975 256.993 683.562 256.613 683.069 256.36C682.575 256.107 682.029 255.98 681.429 255.98C680.735 255.98 680.109 256.133 679.549 256.44C679.002 256.747 678.569 257.187 678.249 257.76C677.942 258.32 677.789 258.967 677.789 259.7C677.789 260.447 677.942 261.107 678.249 261.68C678.569 262.24 679.002 262.673 679.549 262.98C680.109 263.287 680.735 263.44 681.429 263.44C682.029 263.44 682.575 263.313 683.069 263.06C683.562 262.807 683.975 262.427 684.309 261.92L685.769 262.84C685.355 263.573 684.769 264.14 684.009 264.54C683.262 264.927 682.409 265.12 681.449 265.12ZM688.255 254.4H690.175V262.12L696.675 254.4H698.415V265H696.495V257.28L690.015 265H688.255V254.4ZM706.681 265.12C705.628 265.12 704.681 264.887 703.841 264.42C703.001 263.953 702.341 263.313 701.861 262.5C701.395 261.673 701.161 260.74 701.161 259.7C701.161 258.66 701.395 257.733 701.861 256.92C702.341 256.093 703.001 255.453 703.841 255C704.681 254.533 705.628 254.3 706.681 254.3C707.735 254.3 708.675 254.533 709.501 255C710.341 255.453 710.995 256.093 711.461 256.92C711.941 257.733 712.181 258.66 712.181 259.7C712.181 260.74 711.941 261.673 711.461 262.5C710.995 263.313 710.341 263.953 709.501 264.42C708.675 264.887 707.735 265.12 706.681 265.12ZM706.681 263.44C707.361 263.44 707.968 263.287 708.501 262.98C709.048 262.66 709.475 262.22 709.781 261.66C710.088 261.087 710.241 260.433 710.241 259.7C710.241 258.967 710.088 258.32 709.781 257.76C709.475 257.187 709.048 256.747 708.501 256.44C707.968 256.133 707.361 255.98 706.681 255.98C706.001 255.98 705.388 256.133 704.841 256.44C704.308 256.747 703.881 257.187 703.561 257.76C703.255 258.32 703.101 258.967 703.101 259.7C703.101 260.433 703.255 261.087 703.561 261.66C703.881 262.22 704.308 262.66 704.841 262.98C705.388 263.287 706.001 263.44 706.681 263.44ZM714.954 254.4H716.874V258.9H722.914V254.4H724.834V265H722.914V260.56H716.874V265H714.954V254.4ZM732.347 254.3C733.814 254.3 734.934 254.66 735.707 255.38C736.494 256.1 736.887 257.173 736.887 258.6V265H735.067V263.6C734.747 264.093 734.287 264.473 733.687 264.74C733.1 264.993 732.4 265.12 731.587 265.12C730.4 265.12 729.447 264.833 728.727 264.26C728.02 263.687 727.667 262.933 727.667 262C727.667 261.067 728.007 260.32 728.687 259.76C729.367 259.187 730.447 258.9 731.927 258.9H734.967V258.52C734.967 257.693 734.727 257.06 734.247 256.62C733.767 256.18 733.06 255.96 732.127 255.96C731.5 255.96 730.887 256.067 730.287 256.28C729.687 256.48 729.18 256.753 728.767 257.1L727.967 255.66C728.514 255.22 729.167 254.887 729.927 254.66C730.687 254.42 731.494 254.3 732.347 254.3ZM731.907 263.64C732.64 263.64 733.274 263.48 733.807 263.16C734.34 262.827 734.727 262.36 734.967 261.76V260.28H732.007C730.38 260.28 729.567 260.827 729.567 261.92C729.567 262.453 729.774 262.873 730.187 263.18C730.6 263.487 731.174 263.64 731.907 263.64ZM749.444 254.4V265H747.524V256.08H742.964L742.844 258.44C742.778 259.867 742.651 261.06 742.464 262.02C742.278 262.967 741.971 263.727 741.544 264.3C741.118 264.873 740.524 265.16 739.764 265.16C739.418 265.16 739.024 265.1 738.584 264.98L738.704 263.36C738.878 263.4 739.038 263.42 739.184 263.42C739.718 263.42 740.118 263.187 740.384 262.72C740.651 262.253 740.824 261.7 740.904 261.06C740.984 260.42 741.058 259.507 741.124 258.32L741.304 254.4H749.444ZM757.697 265.12C756.644 265.12 755.697 264.887 754.857 264.42C754.017 263.953 753.357 263.313 752.877 262.5C752.41 261.673 752.177 260.74 752.177 259.7C752.177 258.66 752.41 257.733 752.877 256.92C753.357 256.093 754.017 255.453 754.857 255C755.697 254.533 756.644 254.3 757.697 254.3C758.75 254.3 759.69 254.533 760.517 255C761.357 255.453 762.01 256.093 762.477 256.92C762.957 257.733 763.197 258.66 763.197 259.7C763.197 260.74 762.957 261.673 762.477 262.5C762.01 263.313 761.357 263.953 760.517 264.42C759.69 264.887 758.75 265.12 757.697 265.12ZM757.697 263.44C758.377 263.44 758.984 263.287 759.517 262.98C760.064 262.66 760.49 262.22 760.797 261.66C761.104 261.087 761.257 260.433 761.257 259.7C761.257 258.967 761.104 258.32 760.797 257.76C760.49 257.187 760.064 256.747 759.517 256.44C758.984 256.133 758.377 255.98 757.697 255.98C757.017 255.98 756.404 256.133 755.857 256.44C755.324 256.747 754.897 257.187 754.577 257.76C754.27 258.32 754.117 258.967 754.117 259.7C754.117 260.433 754.27 261.087 754.577 261.66C754.897 262.22 755.324 262.66 755.857 262.98C756.404 263.287 757.017 263.44 757.697 263.44ZM773.189 259.5C774.563 259.847 775.249 260.707 775.249 262.08C775.249 263.013 774.896 263.733 774.189 264.24C773.496 264.747 772.456 265 771.069 265H765.969V254.4H770.889C772.143 254.4 773.123 254.64 773.829 255.12C774.536 255.587 774.889 256.253 774.889 257.12C774.889 257.68 774.736 258.167 774.429 258.58C774.136 258.98 773.723 259.287 773.189 259.5ZM767.849 258.96H770.729C771.463 258.96 772.016 258.827 772.389 258.56C772.776 258.293 772.969 257.907 772.969 257.4C772.969 256.387 772.223 255.88 770.729 255.88H767.849V258.96ZM770.929 263.52C771.729 263.52 772.329 263.393 772.729 263.14C773.129 262.887 773.329 262.493 773.329 261.96C773.329 261.413 773.143 261.007 772.769 260.74C772.409 260.473 771.836 260.34 771.049 260.34H767.849V263.52H770.929Z" fill="white"/>
<path d="M1073.27 85.8928L1002 165" stroke="url(#paint0_linear_75_2065)" stroke-width="2"/>
<path d="M862 119C829.461 119 803 92.5386 803 60C803 27.4614 829.461 1 862 1C894.539 1 921 27.4614 921 60C921 92.7185 894.541 119 862 119Z" stroke="url(#paint1_linear_75_2065)" stroke-width="2"/>
<path d="M531.082 306.972L531.082 306.972L531.087 306.964C531.836 305.716 533.624 305.633 534.541 306.989L580.661 382.353L580.666 382.361C581.581 383.826 580.52 385.728 578.937 385.728H532.806H486.675C485.098 385.728 484.018 383.951 484.956 382.345L531.082 306.972Z" stroke="url(#paint2_linear_75_2065)" stroke-width="2"/>
<path d="M169.996 70.8195L169.977 70.837L169.958 70.8556L141.882 98.9317C139.712 101.102 139.712 104.898 141.882 107.068L169.958 135.144C171.347 136.533 171.347 139.064 169.958 140.453L144.453 165.958C143.064 167.347 140.533 167.347 139.144 165.958L111.068 137.882C108.898 135.712 105.102 135.712 102.932 137.882L74.8556 165.958C73.4667 167.347 70.9363 167.347 69.5474 165.958L44.0417 140.453C42.6528 139.064 42.6528 136.533 44.0417 135.144L72.1177 107.068C74.2877 104.898 74.2877 101.102 72.1177 98.9317L44.0417 70.8556C42.6528 69.4667 42.6528 66.9363 44.0417 65.5474L69.5474 40.0417C70.9363 38.6528 73.4667 38.6528 74.8556 40.0417L102.932 68.1178C105.102 70.2877 108.898 70.2877 111.068 68.1178L139.144 40.0417C140.533 38.6528 143.064 38.6528 144.453 40.0417L169.958 65.5474C171.567 67.1559 171.51 69.4569 169.996 70.8195Z" stroke="url(#paint3_linear_75_2065)" stroke-width="2"/>
<path d="M0.915527 456.432L81.9998 371.348H339V325" stroke="url(#paint4_linear_75_2065)" stroke-width="2"/>
<defs>
<linearGradient id="paint0_linear_75_2065" x1="1080.08" y1="85.8928" x2="1080.08" y2="203.184" gradientUnits="userSpaceOnUse">
<stop stop-color="#F7941D"/>
<stop offset="1" stop-color="#27AAE1"/>
</linearGradient>
<linearGradient id="paint1_linear_75_2065" x1="802" y1="60" x2="922" y2="60" gradientUnits="userSpaceOnUse">
<stop stop-color="#F7941D"/>
<stop offset="1" stop-color="#27AAE1"/>
</linearGradient>
<linearGradient id="paint2_linear_75_2065" x1="483.612" y1="345.864" x2="582" y2="345.864" gradientUnits="userSpaceOnUse">
<stop stop-color="#F7941D"/>
<stop offset="1" stop-color="#27AAE1"/>
</linearGradient>
<linearGradient id="paint3_linear_75_2065" x1="42" y1="103" x2="172.148" y2="103" gradientUnits="userSpaceOnUse">
<stop stop-color="#F7941D"/>
<stop offset="1" stop-color="#27AAE1"/>
</linearGradient>
<linearGradient id="paint4_linear_75_2065" x1="0.915527" y1="456.432" x2="0.915528" y2="325" gradientUnits="userSpaceOnUse">
<stop stop-color="#F7941D"/>
<stop offset="1" stop-color="#27AAE1"/>
</linearGradient>
</defs>
</svg>
